<?xml version="1.0" encoding="UTF-8" standalone="no"?>
<!DOCTYPE svg PUBLIC "-//W3C//DTD SVG 1.1//EN"
 "http://www.w3.org/Graphics/SVG/1.1/DTD/svg11.dtd">
<!-- Generated by graphviz version 2.40.1 (20161225.0304)
 -->
<!-- Title: %3 Pages: 1 -->
<svg width="515pt" height="457pt"
 viewBox="0.00 0.00 515.35 457.00" xmlns="http://www.w3.org/2000/svg" xmlns:xlink="http://www.w3.org/1999/xlink">
<g id="graph0" class="graph" transform="scale(1 1) rotate(0) translate(4 453)">
<title>%3</title>
<polygon fill="#ffffff" stroke="transparent" points="-4,4 -4,-453 511.346,-453 511.346,4 -4,4"/>
<!-- EntityName -->
<g id="node1" class="node">
<title>EntityName</title>
<polygon fill="#ffffff" stroke="#000000" points="507.346,-312 430.346,-312 430.346,-276 507.346,-276 507.346,-312"/>
<text text-anchor="middle" x="468.846" y="-291.5" font-family="Courier,monospace" font-size="10.00" fill="#000000">EntityName</text>
</g>
<!-- EntityName_KeyField -->
<g id="node2" class="node">
<title>EntityName_KeyField</title>
<ellipse fill="#ffffff" stroke="#000000" cx="327.3591" cy="-431" rx="38.0276" ry="18"/>
<text text-anchor="start" x="302.8591" y="-429.5" font-family="Courier,monospace" text-decoration="underline" font-size="10.00" fill="#000000">KeyField</text>
</g>
<!-- EntityName_KeyField&#45;&#45;EntityName -->
<g id="edge1" class="edge">
<title>EntityName_KeyField&#45;&#45;EntityName</title>
<path fill="none" stroke="#000000" d="M360.7998,-421.9168C372.2354,-417.7208 384.5908,-411.8777 394.346,-404 425.9285,-378.4962 449.298,-336.0679 460.8197,-312.0409"/>
</g>
<!-- EntityName_OptionalField -->
<g id="node3" class="node">
<title>EntityName_OptionalField</title>
<ellipse fill="#ffffff" stroke="#000000" cx="327.3591" cy="-377" rx="62.9739" ry="18"/>
<text text-anchor="middle" x="327.3591" y="-374.5" font-family="Courier,monospace" font-size="10.00" fill="#000000">OptionalField ?</text>
</g>
<!-- EntityName_OptionalField&#45;&#45;EntityName -->
<g id="edge2" class="edge">
<title>EntityName_OptionalField&#45;&#45;EntityName</title>
<path fill="none" stroke="#000000" d="M367.1263,-362.9647C376.2831,-359.1918 385.8288,-354.8074 394.346,-350 413.5096,-339.1833 433.3378,-324.0547 447.7159,-312.2483"/>
</g>
<!-- EntityName_DerivedField -->
<g id="node4" class="node">
<title>EntityName_DerivedField</title>
<ellipse fill="none" stroke="#000000" stroke-dasharray="5,2" cx="327.3591" cy="-323" rx="52.2822" ry="18"/>
<text text-anchor="middle" x="327.3591" y="-320.5" font-family="Courier,monospace" font-size="10.00" fill="#000000">DerivedField</text>
</g>
<!-- EntityName_DerivedField&#45;&#45;EntityName -->
<g id="edge3" class="edge">
<title>EntityName_DerivedField&#45;&#45;EntityName</title>
<path fill="none" stroke="#000000" d="M372.5154,-313.7445C391.1163,-309.9319 412.4447,-305.5603 430.2965,-301.9013"/>
</g>
<!-- EntityName_MultiValueField -->
<g id="node5" class="node">
<title>EntityName_MultiValueField</title>
<ellipse fill="#ffffff" stroke="#000000" cx="327.3591" cy="-265" rx="62.9747" ry="18"/>
<ellipse fill="none" stroke="#000000" cx="327.3591" cy="-265" rx="66.9739" ry="22"/>
<text text-anchor="middle" x="327.3591" y="-262.5" font-family="Courier,monospace" font-size="10.00" fill="#000000">MultiValueField</text>
</g>
<!-- EntityName_MultiValueField&#45;&#45;EntityName -->
<g id="edge4" class="edge">
<title>EntityName_MultiValueField&#45;&#45;EntityName</title>
<path fill="none" stroke="#000000" d="M384.4994,-276.7118C399.8384,-279.8558 416.0641,-283.1815 430.1432,-286.0672"/>
</g>
<!-- EntityName_CompositeField -->
<g id="node6" class="node">
<title>EntityName_CompositeField</title>
<ellipse fill="#ffffff" stroke="#000000" cx="327.3591" cy="-207" rx="59.4099" ry="18"/>
<text text-anchor="middle" x="327.3591" y="-204.5" font-family="Courier,monospace" font-size="10.00" fill="#000000">CompositeField</text>
</g>
<!-- EntityName_CompositeField&#45;&#45;EntityName -->
<g id="edge5" class="edge">
<title>EntityName_CompositeField&#45;&#45;EntityName</title>
<path fill="none" stroke="#000000" d="M366.5413,-220.5402C375.9079,-224.3838 385.6941,-228.924 394.346,-234 414.5427,-245.8492 435.0918,-262.8474 449.4782,-275.728"/>
</g>
<!-- EntityName_CompositeField_SubField1 -->
<g id="node7" class="node">
<title>EntityName_CompositeField_SubField1</title>
<ellipse fill="#ffffff" stroke="#000000" cx="175.5131" cy="-323" rx="41.5911" ry="18"/>
<text text-anchor="middle" x="175.5131" y="-320.5" font-family="Courier,monospace" font-size="10.00" fill="#000000">SubField1</text>
</g>
<!-- EntityName_CompositeField_SubField1&#45;&#45;EntityName_CompositeField -->
<g id="edge6" class="edge">
<title>EntityName_CompositeField_SubField1&#45;&#45;EntityName_CompositeField</title>
<path fill="none" stroke="#000000" d="M204.9293,-310.0974C211.8116,-306.2112 218.7627,-301.4917 224.3721,-296 247.1411,-273.7091 236.2897,-254.865 260.3721,-234 267.2901,-228.0063 275.7097,-223.2353 284.2119,-219.4772"/>
</g>
<!-- EntityName_CompositeField_SubField2 -->
<g id="node8" class="node">
<title>EntityName_CompositeField_SubField2</title>
<ellipse fill="#ffffff" stroke="#000000" cx="175.5131" cy="-265" rx="41.6089" ry="18"/>
<ellipse fill="none" stroke="#000000" cx="175.5131" cy="-265" rx="45.5911" ry="22"/>
<text text-anchor="middle" x="175.5131" y="-262.5" font-family="Courier,monospace" font-size="10.00" fill="#000000">SubField2</text>
</g>
<!-- EntityName_CompositeField_SubField2&#45;&#45;EntityName_CompositeField -->
<g id="edge7" class="edge">
<title>EntityName_CompositeField_SubField2&#45;&#45;EntityName_CompositeField</title>
<path fill="none" stroke="#000000" d="M211.4985,-251.2548C235.2655,-242.1766 266.3318,-230.3103 290.312,-221.1507"/>
</g>
<!-- EntityName_CompositeField_SubField3 -->
<g id="node9" class="node">
<title>EntityName_CompositeField_SubField3</title>
<ellipse fill="#ffffff" stroke="#000000" cx="175.5131" cy="-207" rx="48.7185" ry="18"/>
<text text-anchor="middle" x="175.5131" y="-204.5" font-family="Courier,monospace" font-size="10.00" fill="#000000">SubField3 ?</text>
</g>
<!-- EntityName_CompositeField_SubField3&#45;&#45;EntityName_CompositeField -->
<g id="edge8" class="edge">
<title>EntityName_CompositeField_SubField3&#45;&#45;EntityName_CompositeField</title>
<path fill="none" stroke="#000000" d="M224.394,-207C238.179,-207 253.3321,-207 267.6741,-207"/>
</g>
<!-- EntityName_CompositeField_SubField4 -->
<g id="node10" class="node">
<title>EntityName_CompositeField_SubField4</title>
<ellipse fill="none" stroke="#000000" stroke-dasharray="5,2" cx="175.5131" cy="-153" rx="41.5911" ry="18"/>
<text text-anchor="middle" x="175.5131" y="-150.5" font-family="Courier,monospace" font-size="10.00" fill="#000000">SubField4</text>
</g>
<!-- EntityName_CompositeField_SubField4&#45;&#45;EntityName_CompositeField -->
<g id="edge9" class="edge">
<title>EntityName_CompositeField_SubField4&#45;&#45;EntityName_CompositeField</title>
<path fill="none" stroke="#000000" d="M208.0879,-164.5844C231.7037,-172.9827 263.7344,-184.3736 288.656,-193.2363"/>
</g>
<!-- EntityName_ComplexField -->
<g id="node11" class="node">
<title>EntityName_ComplexField</title>
<ellipse fill="#ffffff" stroke="#000000" cx="327.3591" cy="-99" rx="52.2899" ry="18"/>
<ellipse fill="none" stroke="#000000" cx="327.3591" cy="-99" rx="56.2822" ry="22"/>
<text text-anchor="middle" x="327.3591" y="-96.5" font-family="Courier,monospace" font-size="10.00" fill="#000000">ComplexField</text>
</g>
<!-- EntityName_ComplexField&#45;&#45;EntityName -->
<g id="edge10" class="edge">
<title>EntityName_ComplexField&#45;&#45;EntityName</title>
<path fill="none" stroke="#000000" d="M345.9452,-120.1328C359.7808,-136.1781 378.8688,-158.9902 394.346,-180 418.4655,-212.7413 443.8049,-252.9479 457.8371,-275.8084"/>
</g>
<!-- EntityName_ComplexField_SubField1 -->
<g id="node12" class="node">
<title>EntityName_ComplexField_SubField1</title>
<ellipse fill="#ffffff" stroke="#000000" cx="175.5131" cy="-99" rx="41.5911" ry="18"/>
<text text-anchor="middle" x="175.5131" y="-96.5" font-family="Courier,monospace" font-size="10.00" fill="#000000">SubField1</text>
</g>
<!-- EntityName_ComplexField_SubField1&#45;&#45;EntityName_ComplexField -->
<g id="edge11" class="edge">
<title>EntityName_ComplexField_SubField1&#45;&#45;EntityName_ComplexField</title>
<path fill="none" stroke="#000000" d="M217.4077,-99C233.9111,-99 253.1192,-99 270.8206,-99"/>
</g>
<!-- EntityName_ComplexField_SubField2 -->
<g id="node13" class="node">
<title>EntityName_ComplexField_SubField2</title>
<ellipse fill="#ffffff" stroke="#000000" cx="175.5131" cy="-45" rx="41.5911" ry="18"/>
<text text-anchor="middle" x="175.5131" y="-42.5" font-family="Courier,monospace" font-size="10.00" fill="#000000">SubField2</text>
</g>
<!-- EntityName_ComplexField_SubField2&#45;&#45;EntityName_ComplexField -->
<g id="edge12" class="edge">
<title>EntityName_ComplexField_SubField2&#45;&#45;EntityName_ComplexField</title>
<path fill="none" stroke="#000000" d="M208.0879,-56.5844C230.7451,-64.6418 261.148,-75.4538 285.5871,-84.1449"/>
</g>
<!-- EntityName_ComplexField_SubField2_SubField21 -->
<g id="node14" class="node">
<title>EntityName_ComplexField_SubField2_SubField21</title>
<ellipse fill="#ffffff" stroke="#000000" cx="45.327" cy="-72" rx="45.1548" ry="18"/>
<text text-anchor="middle" x="45.327" y="-69.5" font-family="Courier,monospace" font-size="10.00" fill="#000000">SubField21</text>
</g>
<!-- EntityName_ComplexField_SubField2_SubField21&#45;&#45;EntityName_ComplexField_SubField2 -->
<g id="edge13" class="edge">
<title>EntityName_ComplexField_SubField2_SubField21&#45;&#45;EntityName_ComplexField_SubField2</title>
<path fill="none" stroke="#000000" d="M85.8051,-63.605C102.3755,-60.1684 121.4417,-56.2142 137.724,-52.8373"/>
</g>
<!-- EntityName_ComplexField_SubField2_SubField22 -->
<g id="node15" class="node">
<title>EntityName_ComplexField_SubField2_SubField22</title>
<ellipse fill="#ffffff" stroke="#000000" cx="45.327" cy="-18" rx="45.1548" ry="18"/>
<text text-anchor="middle" x="45.327" y="-15.5" font-family="Courier,monospace" font-size="10.00" fill="#000000">SubField22</text>
</g>
<!-- EntityName_ComplexField_SubField2_SubField22&#45;&#45;EntityName_ComplexField_SubField2 -->
<g id="edge14" class="edge">
<title>EntityName_ComplexField_SubField2_SubField22&#45;&#45;EntityName_ComplexField_SubField2</title>
<path fill="none" stroke="#000000" d="M85.8051,-26.395C102.3755,-29.8316 121.4417,-33.7858 137.724,-37.1627"/>
</g>
</g>
</svg>
