<?xml version="1.0" encoding="UTF-8" standalone="no"?>
<!DOCTYPE svg PUBLIC "-//W3C//DTD SVG 1.1//EN"
 "http://www.w3.org/Graphics/SVG/1.1/DTD/svg11.dtd">
<!-- Generated by graphviz version 2.40.1 (20161225.0304)
 -->
<!-- Title: %3 Pages: 1 -->
<svg width="753pt" height="551pt"
 viewBox="0.00 0.00 753.00 551.00" xmlns="http://www.w3.org/2000/svg" xmlns:xlink="http://www.w3.org/1999/xlink">
<g id="graph0" class="graph" transform="scale(1 1) rotate(0) translate(4 547)">
<title>%3</title>
<polygon fill="#ffffff" stroke="transparent" points="-4,4 -4,-547 749,-547 749,4 -4,4"/>
<!-- MOVIE -->
<g id="node1" class="node">
<title>MOVIE</title>
<polygon fill="#ffffff" stroke="transparent" points="291,-466 189,-466 189,-373 291,-373 291,-466"/>
<polygon fill="none" stroke="#000000" points="197,-444.5 197,-461.5 283,-461.5 283,-444.5 197,-444.5"/>
<text text-anchor="start" x="200" y="-451.5" font-family="Courier,monospace" font-weight="bold" font-size="10.00" fill="#000000">MOVIE</text>
<polygon fill="none" stroke="#000000" points="197,-427.5 197,-444.5 283,-444.5 283,-427.5 197,-427.5"/>
<text text-anchor="start" x="200" y="-434.5" font-family="Courier,monospace" text-decoration="underline" font-size="10.00" fill="#000000">MovieId</text>
<text text-anchor="start" x="243" y="-434.5" font-family="Courier,monospace" font-size="10.00" fill="#000000"> </text>
<text text-anchor="start" x="250" y="-434.5" font-family="Courier,monospace" font-style="italic" font-size="10.00" fill="#000000">int</text>
<polygon fill="none" stroke="#000000" points="197,-410.5 197,-427.5 283,-427.5 283,-410.5 197,-410.5"/>
<text text-anchor="start" x="200" y="-417.5" font-family="Courier,monospace" font-size="10.00" fill="#000000">Title </text>
<text text-anchor="start" x="237" y="-417.5" font-family="Courier,monospace" font-style="italic" font-size="10.00" fill="#000000">varchar</text>
<polygon fill="none" stroke="#000000" points="197,-393.5 197,-410.5 283,-410.5 283,-393.5 197,-393.5"/>
<text text-anchor="start" x="200" y="-400.5" font-family="Courier,monospace" font-size="10.00" fill="#000000">Duration </text>
<text text-anchor="start" x="255" y="-400.5" font-family="Courier,monospace" font-style="italic" font-size="10.00" fill="#000000">int</text>
<polygon fill="none" stroke="#000000" points="197,-376.5 197,-393.5 283,-393.5 283,-376.5 197,-376.5"/>
<text text-anchor="start" x="200" y="-383.5" font-family="Courier,monospace" font-size="10.00" fill="#000000">Year </text>
<text text-anchor="start" x="231" y="-383.5" font-family="Courier,monospace" font-style="italic" font-size="10.00" fill="#000000">year</text>
</g>
<!-- ACTOR -->
<g id="node2" class="node">
<title>ACTOR</title>
<polygon fill="#ffffff" stroke="transparent" points="288,-543 192,-543 192,-484 288,-484 288,-543"/>
<polygon fill="none" stroke="#000000" points="200,-521.5 200,-538.5 280,-538.5 280,-521.5 200,-521.5"/>
<text text-anchor="start" x="203" y="-528.5" font-family="Courier,monospace" font-weight="bold" font-size="10.00" fill="#000000">ACTOR</text>
<polygon fill="none" stroke="#000000" points="200,-504.5 200,-521.5 280,-521.5 280,-504.5 200,-504.5"/>
<text text-anchor="start" x="203" y="-511.5" font-family="Courier,monospace" text-decoration="underline" font-size="10.00" fill="#000000">ActorId</text>
<text text-anchor="start" x="246" y="-511.5" font-family="Courier,monospace" font-size="10.00" fill="#000000"> </text>
<text text-anchor="start" x="253" y="-511.5" font-family="Courier,monospace" font-style="italic" font-size="10.00" fill="#000000">int</text>
<polygon fill="none" stroke="#000000" points="200,-487.5 200,-504.5 280,-504.5 280,-487.5 200,-487.5"/>
<text text-anchor="start" x="203" y="-494.5" font-family="Courier,monospace" font-size="10.00" fill="#000000">Name </text>
<text text-anchor="start" x="234" y="-494.5" font-family="Courier,monospace" font-style="italic" font-size="10.00" fill="#000000">varchar</text>
</g>
<!-- GENRE -->
<g id="node3" class="node">
<title>GENRE</title>
<polygon fill="#ffffff" stroke="transparent" points="291,-355 189,-355 189,-296 291,-296 291,-355"/>
<polygon fill="none" stroke="#000000" points="197,-333.5 197,-350.5 283,-350.5 283,-333.5 197,-333.5"/>
<text text-anchor="start" x="200" y="-340.5" font-family="Courier,monospace" font-weight="bold" font-size="10.00" fill="#000000">GENRE</text>
<polygon fill="none" stroke="#000000" points="197,-316.5 197,-333.5 283,-333.5 283,-316.5 197,-316.5"/>
<text text-anchor="start" x="200" y="-323.5" font-family="Courier,monospace" text-decoration="underline" font-size="10.00" fill="#000000">GenreId</text>
<text text-anchor="start" x="243" y="-323.5" font-family="Courier,monospace" font-size="10.00" fill="#000000"> </text>
<text text-anchor="start" x="250" y="-323.5" font-family="Courier,monospace" font-style="italic" font-size="10.00" fill="#000000">int</text>
<polygon fill="none" stroke="#000000" points="197,-299.5 197,-316.5 283,-316.5 283,-299.5 197,-299.5"/>
<text text-anchor="start" x="200" y="-306.5" font-family="Courier,monospace" font-size="10.00" fill="#000000">Label </text>
<text text-anchor="start" x="237" y="-306.5" font-family="Courier,monospace" font-style="italic" font-size="10.00" fill="#000000">varchar</text>
</g>
<!-- MOVIE_ACTOR -->
<g id="node4" class="node">
<title>MOVIE_ACTOR</title>
<polygon fill="#ffffff" stroke="transparent" points="114.5,-542 23.5,-542 23.5,-483 114.5,-483 114.5,-542"/>
<polygon fill="none" stroke="#000000" points="32,-520.5 32,-537.5 107,-537.5 107,-520.5 32,-520.5"/>
<text text-anchor="start" x="35" y="-527.5" font-family="Courier,monospace" font-weight="bold" font-size="10.00" fill="#000000">MOVIE_ACTOR</text>
<polygon fill="none" stroke="#000000" points="32,-503.5 32,-520.5 107,-520.5 107,-503.5 32,-503.5"/>
<text text-anchor="start" x="35" y="-510.5" font-family="Courier,monospace" text-decoration="underline" font-size="10.00" fill="#000000">MovieId</text>
<text text-anchor="start" x="78" y="-510.5" font-family="Courier,monospace" font-size="10.00" fill="#000000"> </text>
<text text-anchor="start" x="85" y="-510.5" font-family="Courier,monospace" font-style="italic" font-size="10.00" fill="#000000">int</text>
<polygon fill="none" stroke="#000000" points="32,-486.5 32,-503.5 107,-503.5 107,-486.5 32,-486.5"/>
<text text-anchor="start" x="35" y="-493.5" font-family="Courier,monospace" text-decoration="underline" font-size="10.00" fill="#000000">ActorId</text>
<text text-anchor="start" x="78" y="-493.5" font-family="Courier,monospace" font-size="10.00" fill="#000000"> </text>
<text text-anchor="start" x="85" y="-493.5" font-family="Courier,monospace" font-style="italic" font-size="10.00" fill="#000000">int</text>
</g>
<!-- MOVIE_ACTOR&#45;&gt;MOVIE -->
<g id="edge1" class="edge">
<title>MOVIE_ACTOR:MovieId&#45;&gt;MOVIE:MovieId</title>
<path fill="none" stroke="#000000" d="M107,-511.5C155.4073,-511.5 146.5923,-446.6761 186.9527,-437.5602"/>
<polygon fill="#000000" stroke="#000000" points="187.4225,-441.0302 197,-436.5 186.6879,-434.0688 187.4225,-441.0302"/>
</g>
<!-- MOVIE_ACTOR&#45;&gt;ACTOR -->
<g id="edge2" class="edge">
<title>MOVIE_ACTOR:ActorId&#45;&gt;ACTOR:ActorId</title>
<path fill="none" stroke="#000000" d="M107,-494.5C145.4824,-494.5 156.1413,-509.5392 189.8415,-512.124"/>
<polygon fill="#000000" stroke="#000000" points="189.8774,-515.6277 200,-512.5 190.1363,-508.6325 189.8774,-515.6277"/>
</g>
<!-- MOVIE_GENRE -->
<g id="node5" class="node">
<title>MOVIE_GENRE</title>
<polygon fill="#ffffff" stroke="transparent" points="114.5,-447 23.5,-447 23.5,-388 114.5,-388 114.5,-447"/>
<polygon fill="none" stroke="#000000" points="32,-425.5 32,-442.5 107,-442.5 107,-425.5 32,-425.5"/>
<text text-anchor="start" x="35" y="-432.5" font-family="Courier,monospace" font-weight="bold" font-size="10.00" fill="#000000">MOVIE_GENRE</text>
<polygon fill="none" stroke="#000000" points="32,-408.5 32,-425.5 107,-425.5 107,-408.5 32,-408.5"/>
<text text-anchor="start" x="35" y="-415.5" font-family="Courier,monospace" text-decoration="underline" font-size="10.00" fill="#000000">MovieId</text>
<text text-anchor="start" x="78" y="-415.5" font-family="Courier,monospace" font-size="10.00" fill="#000000"> </text>
<text text-anchor="start" x="85" y="-415.5" font-family="Courier,monospace" font-style="italic" font-size="10.00" fill="#000000">int</text>
<polygon fill="none" stroke="#000000" points="32,-391.5 32,-408.5 107,-408.5 107,-391.5 32,-391.5"/>
<text text-anchor="start" x="35" y="-398.5" font-family="Courier,monospace" text-decoration="underline" font-size="10.00" fill="#000000">GenreId</text>
<text text-anchor="start" x="78" y="-398.5" font-family="Courier,monospace" font-size="10.00" fill="#000000"> </text>
<text text-anchor="start" x="85" y="-398.5" font-family="Courier,monospace" font-style="italic" font-size="10.00" fill="#000000">int</text>
</g>
<!-- MOVIE_GENRE&#45;&gt;MOVIE -->
<g id="edge3" class="edge">
<title>MOVIE_GENRE:MovieId&#45;&gt;MOVIE:MovieId</title>
<path fill="none" stroke="#000000" d="M107,-416.5C144.2943,-416.5 154.3122,-433.0677 186.7054,-436.0447"/>
<polygon fill="#000000" stroke="#000000" points="186.8551,-439.5546 197,-436.5 187.1644,-432.5615 186.8551,-439.5546"/>
</g>
<!-- MOVIE_GENRE&#45;&gt;GENRE -->
<g id="edge4" class="edge">
<title>MOVIE_GENRE:GenreId&#45;&gt;GENRE:GenreId</title>
<path fill="none" stroke="#000000" d="M107,-399.5C155.4073,-399.5 146.5923,-334.6761 186.9527,-325.5602"/>
<polygon fill="#000000" stroke="#000000" points="187.4225,-329.0302 197,-324.5 186.6879,-322.0688 187.4225,-329.0302"/>
</g>
<!-- STREAM -->
<g id="node6" class="node">
<title>STREAM</title>
<polygon fill="#ffffff" stroke="transparent" points="138,-350.5 0,-350.5 0,-240.5 138,-240.5 138,-350.5"/>
<polygon fill="none" stroke="#000000" points="8,-329.5 8,-346.5 130,-346.5 130,-329.5 8,-329.5"/>
<text text-anchor="start" x="11" y="-336.5" font-family="Courier,monospace" font-weight="bold" font-size="10.00" fill="#000000">STREAM</text>
<polygon fill="none" stroke="#000000" points="8,-312.5 8,-329.5 130,-329.5 130,-312.5 8,-312.5"/>
<text text-anchor="start" x="11" y="-319.5" font-family="Courier,monospace" text-decoration="underline" font-size="10.00" fill="#000000">StreamId</text>
<text text-anchor="start" x="60" y="-319.5" font-family="Courier,monospace" font-size="10.00" fill="#000000"> </text>
<text text-anchor="start" x="67" y="-319.5" font-family="Courier,monospace" font-style="italic" font-size="10.00" fill="#000000">int</text>
<polygon fill="none" stroke="#000000" points="8,-295.5 8,-312.5 130,-312.5 130,-295.5 8,-295.5"/>
<text text-anchor="start" x="11" y="-302.5" font-family="Courier,monospace" font-size="10.00" fill="#000000">MovieId </text>
<text text-anchor="start" x="60" y="-302.5" font-family="Courier,monospace" font-style="italic" font-size="10.00" fill="#000000">int</text>
<polygon fill="none" stroke="#000000" points="8,-278.5 8,-295.5 130,-295.5 130,-278.5 8,-278.5"/>
<text text-anchor="start" x="11" y="-285.5" font-family="Courier,monospace" font-size="10.00" fill="#000000">CustomerId </text>
<text text-anchor="start" x="78" y="-285.5" font-family="Courier,monospace" font-style="italic" font-size="10.00" fill="#000000">int</text>
<polygon fill="none" stroke="#000000" points="8,-261.5 8,-278.5 130,-278.5 130,-261.5 8,-261.5"/>
<text text-anchor="start" x="11" y="-268.5" font-family="Courier,monospace" font-size="10.00" fill="#000000">StreamDate </text>
<text text-anchor="start" x="78" y="-268.5" font-family="Courier,monospace" font-style="italic" font-size="10.00" fill="#000000">datetime</text>
<polygon fill="none" stroke="#000000" points="8,-244.5 8,-261.5 130,-261.5 130,-244.5 8,-244.5"/>
<text text-anchor="start" x="11" y="-251.5" font-family="Courier,monospace" font-size="10.00" fill="#000000">Charge </text>
<text text-anchor="start" x="54" y="-251.5" font-family="Courier,monospace" font-style="italic" font-size="10.00" fill="#000000">float</text>
</g>
<!-- STREAM&#45;&gt;MOVIE -->
<g id="edge5" class="edge">
<title>STREAM:MovieId&#45;&gt;MOVIE:MovieId</title>
<path fill="none" stroke="#000000" d="M130,-304.5C192.0648,-304.5 138.1064,-421.9704 187.028,-435.2775"/>
<polygon fill="#000000" stroke="#000000" points="186.6484,-438.7571 197,-436.5 187.5002,-431.8091 186.6484,-438.7571"/>
</g>
<!-- CUSTOMER -->
<g id="node7" class="node">
<title>CUSTOMER</title>
<polygon fill="#ffffff" stroke="transparent" points="306,-277.5 174,-277.5 174,-99.5 306,-99.5 306,-277.5"/>
<polygon fill="none" stroke="#000000" points="182,-256.5 182,-273.5 298,-273.5 298,-256.5 182,-256.5"/>
<text text-anchor="start" x="185" y="-263.5" font-family="Courier,monospace" font-weight="bold" font-size="10.00" fill="#000000">CUSTOMER</text>
<polygon fill="none" stroke="#000000" points="182,-239.5 182,-256.5 298,-256.5 298,-239.5 182,-239.5"/>
<text text-anchor="start" x="185" y="-246.5" font-family="Courier,monospace" text-decoration="underline" font-size="10.00" fill="#000000">CustomerId</text>
<text text-anchor="start" x="246" y="-246.5" font-family="Courier,monospace" font-size="10.00" fill="#000000"> </text>
<text text-anchor="start" x="253" y="-246.5" font-family="Courier,monospace" font-style="italic" font-size="10.00" fill="#000000">int</text>
<polygon fill="none" stroke="#000000" points="182,-222.5 182,-239.5 298,-239.5 298,-222.5 182,-222.5"/>
<text text-anchor="start" x="185" y="-229.5" font-family="Courier,monospace" font-size="10.00" fill="#000000">Name </text>
<text text-anchor="start" x="216" y="-229.5" font-family="Courier,monospace" font-style="italic" font-size="10.00" fill="#000000">varchar</text>
<polygon fill="none" stroke="#000000" points="182,-205.5 182,-222.5 298,-222.5 298,-205.5 182,-205.5"/>
<text text-anchor="start" x="185" y="-212.5" font-family="Courier,monospace" font-size="10.00" fill="#000000">Address </text>
<text text-anchor="start" x="234" y="-212.5" font-family="Courier,monospace" font-style="italic" font-size="10.00" fill="#000000">varchar</text>
<polygon fill="none" stroke="#000000" points="182,-188.5 182,-205.5 298,-205.5 298,-188.5 182,-188.5"/>
<text text-anchor="start" x="185" y="-195.5" font-family="Courier,monospace" font-size="10.00" fill="#000000">City </text>
<text text-anchor="start" x="216" y="-195.5" font-family="Courier,monospace" font-style="italic" font-size="10.00" fill="#000000">varchar</text>
<polygon fill="none" stroke="#000000" points="182,-171.5 182,-188.5 298,-188.5 298,-171.5 182,-171.5"/>
<text text-anchor="start" x="185" y="-178.5" font-family="Courier,monospace" font-size="10.00" fill="#000000">PostalCode </text>
<text text-anchor="start" x="252" y="-178.5" font-family="Courier,monospace" font-style="italic" font-size="10.00" fill="#000000">varchar</text>
<polygon fill="none" stroke="#000000" points="182,-154.5 182,-171.5 298,-171.5 298,-154.5 182,-154.5"/>
<text text-anchor="start" x="185" y="-161.5" font-family="Courier,monospace" font-size="10.00" fill="#000000">Country </text>
<text text-anchor="start" x="234" y="-161.5" font-family="Courier,monospace" font-style="italic" font-size="10.00" fill="#000000">varchar</text>
<polygon fill="none" stroke="#000000" points="182,-137.5 182,-154.5 298,-154.5 298,-137.5 182,-137.5"/>
<text text-anchor="start" x="185" y="-144.5" font-family="Courier,monospace" font-size="10.00" fill="#000000">Email </text>
<text text-anchor="start" x="222" y="-144.5" font-family="Courier,monospace" font-style="italic" font-size="10.00" fill="#000000">varchar</text>
<polygon fill="none" stroke="#000000" points="182,-120.5 182,-137.5 298,-137.5 298,-120.5 182,-120.5"/>
<text text-anchor="start" x="185" y="-127.5" font-family="Courier,monospace" font-size="10.00" fill="#000000">Phone ? </text>
<text text-anchor="start" x="234" y="-127.5" font-family="Courier,monospace" font-style="italic" font-size="10.00" fill="#000000">int</text>
<polygon fill="none" stroke="#000000" points="182,-103.5 182,-120.5 298,-120.5 298,-103.5 182,-103.5"/>
<text text-anchor="start" x="185" y="-110.5" font-family="Courier,monospace" font-size="10.00" fill="#000000">Active </text>
<text text-anchor="start" x="228" y="-110.5" font-family="Courier,monospace" font-style="italic" font-size="10.00" fill="#000000">bool</text>
</g>
<!-- STREAM&#45;&gt;CUSTOMER -->
<g id="edge6" class="edge">
<title>STREAM:CustomerId&#45;&gt;CUSTOMER:CustomerId</title>
<path fill="none" stroke="#000000" d="M130,-286.5C154.5991,-286.5 154.182,-258.436 171.7452,-250.543"/>
<polygon fill="#000000" stroke="#000000" points="172.8766,-253.8865 182,-248.5 171.5089,-247.0214 172.8766,-253.8865"/>
</g>
<!-- COUNTRY -->
<g id="node8" class="node">
<title>COUNTRY</title>
<polygon fill="#ffffff" stroke="transparent" points="439,-193 342,-193 342,-134 439,-134 439,-193"/>
<polygon fill="none" stroke="#000000" points="350.5,-171.5 350.5,-188.5 431.5,-188.5 431.5,-171.5 350.5,-171.5"/>
<text text-anchor="start" x="353.5" y="-178.5" font-family="Courier,monospace" font-weight="bold" font-size="10.00" fill="#000000">COUNTRY</text>
<polygon fill="none" stroke="#000000" points="350.5,-154.5 350.5,-171.5 431.5,-171.5 431.5,-154.5 350.5,-154.5"/>
<text text-anchor="start" x="353.5" y="-161.5" font-family="Courier,monospace" text-decoration="underline" font-size="10.00" fill="#000000">Name</text>
<text text-anchor="start" x="378.5" y="-161.5" font-family="Courier,monospace" font-size="10.00" fill="#000000"> </text>
<text text-anchor="start" x="385.5" y="-161.5" font-family="Courier,monospace" font-style="italic" font-size="10.00" fill="#000000">varchar</text>
<polygon fill="none" stroke="#000000" points="350.5,-137.5 350.5,-154.5 431.5,-154.5 431.5,-137.5 350.5,-137.5"/>
<text text-anchor="start" x="353.5" y="-144.5" font-family="Courier,monospace" font-size="10.00" fill="#000000">RegionId </text>
<text text-anchor="start" x="408.5" y="-144.5" font-family="Courier,monospace" font-style="italic" font-size="10.00" fill="#000000">int</text>
</g>
<!-- CUSTOMER&#45;&gt;COUNTRY -->
<g id="edge7" class="edge">
<title>CUSTOMER:Country&#45;&gt;COUNTRY:Name</title>
<path fill="none" stroke="#000000" d="M298,-162.5C317.5052,-162.5 324.7816,-162.5 340.2742,-162.5"/>
<polygon fill="#000000" stroke="#000000" points="340.5,-166.0001 350.5,-162.5 340.5,-159.0001 340.5,-166.0001"/>
</g>
<!-- REGION -->
<g id="node9" class="node">
<title>REGION</title>
<polygon fill="#ffffff" stroke="transparent" points="601,-174.5 475,-174.5 475,-98.5 601,-98.5 601,-174.5"/>
<polygon fill="none" stroke="#000000" points="483,-153.5 483,-170.5 593,-170.5 593,-153.5 483,-153.5"/>
<text text-anchor="start" x="486" y="-160.5" font-family="Courier,monospace" font-weight="bold" font-size="10.00" fill="#000000">REGION</text>
<polygon fill="none" stroke="#000000" points="483,-136.5 483,-153.5 593,-153.5 593,-136.5 483,-136.5"/>
<text text-anchor="start" x="486" y="-143.5" font-family="Courier,monospace" text-decoration="underline" font-size="10.00" fill="#000000">RegionId</text>
<text text-anchor="start" x="535" y="-143.5" font-family="Courier,monospace" font-size="10.00" fill="#000000"> </text>
<text text-anchor="start" x="542" y="-143.5" font-family="Courier,monospace" font-style="italic" font-size="10.00" fill="#000000">int</text>
<polygon fill="none" stroke="#000000" points="483,-119.5 483,-136.5 593,-136.5 593,-119.5 483,-119.5"/>
<text text-anchor="start" x="486" y="-126.5" font-family="Courier,monospace" font-size="10.00" fill="#000000">Name </text>
<text text-anchor="start" x="517" y="-126.5" font-family="Courier,monospace" font-style="italic" font-size="10.00" fill="#000000">varchar</text>
<polygon fill="none" stroke="#000000" points="483,-102.5 483,-119.5 593,-119.5 593,-102.5 483,-102.5"/>
<text text-anchor="start" x="486" y="-109.5" font-family="Courier,monospace" font-size="10.00" fill="#000000">RegionManager </text>
<text text-anchor="start" x="571" y="-109.5" font-family="Courier,monospace" font-style="italic" font-size="10.00" fill="#000000">int</text>
</g>
<!-- COUNTRY&#45;&gt;REGION -->
<g id="edge8" class="edge">
<title>COUNTRY:RegionId&#45;&gt;REGION:RegionId</title>
<path fill="none" stroke="#000000" d="M431.5,-145.5C450.6337,-145.5 457.7714,-145.5 472.969,-145.5"/>
<polygon fill="#000000" stroke="#000000" points="473,-149.0001 483,-145.5 473,-142.0001 473,-149.0001"/>
</g>
<!-- STAFF -->
<g id="node10" class="node">
<title>STAFF</title>
<polygon fill="#ffffff" stroke="transparent" points="745,-93 637,-93 637,0 745,0 745,-93"/>
<polygon fill="none" stroke="#000000" points="645,-71.5 645,-88.5 737,-88.5 737,-71.5 645,-71.5"/>
<text text-anchor="start" x="648" y="-78.5" font-family="Courier,monospace" font-weight="bold" font-size="10.00" fill="#000000">STAFF</text>
<polygon fill="none" stroke="#000000" points="645,-54.5 645,-71.5 737,-71.5 737,-54.5 645,-54.5"/>
<text text-anchor="start" x="648" y="-61.5" font-family="Courier,monospace" text-decoration="underline" font-size="10.00" fill="#000000">StaffId</text>
<text text-anchor="start" x="691" y="-61.5" font-family="Courier,monospace" font-size="10.00" fill="#000000"> </text>
<text text-anchor="start" x="698" y="-61.5" font-family="Courier,monospace" font-style="italic" font-size="10.00" fill="#000000">int</text>
<polygon fill="none" stroke="#000000" points="645,-37.5 645,-54.5 737,-54.5 737,-37.5 645,-37.5"/>
<text text-anchor="start" x="648" y="-44.5" font-family="Courier,monospace" font-size="10.00" fill="#000000">Job </text>
<text text-anchor="start" x="673" y="-44.5" font-family="Courier,monospace" font-style="italic" font-size="10.00" fill="#000000">varchar</text>
<polygon fill="none" stroke="#000000" points="645,-20.5 645,-37.5 737,-37.5 737,-20.5 645,-20.5"/>
<text text-anchor="start" x="648" y="-27.5" font-family="Courier,monospace" font-size="10.00" fill="#000000">Supervisor </text>
<text text-anchor="start" x="715" y="-27.5" font-family="Courier,monospace" font-style="italic" font-size="10.00" fill="#000000">int</text>
<polygon fill="none" stroke="#000000" points="645,-3.5 645,-20.5 737,-20.5 737,-3.5 645,-3.5"/>
<text text-anchor="start" x="648" y="-10.5" font-family="Courier,monospace" font-size="10.00" fill="#000000">Name </text>
<text text-anchor="start" x="679" y="-10.5" font-family="Courier,monospace" font-style="italic" font-size="10.00" fill="#000000">varchar</text>
</g>
<!-- REGION&#45;&gt;STAFF -->
<g id="edge9" class="edge">
<title>REGION:RegionManager&#45;&gt;STAFF:StaffId</title>
<path fill="none" stroke="#000000" d="M593,-110.5C620.2583,-110.5 615.7761,-74.5156 635.0992,-65.5195"/>
<polygon fill="#000000" stroke="#000000" points="635.9013,-68.9281 645,-63.5 634.5022,-62.0693 635.9013,-68.9281"/>
</g>
<!-- STAFF&#45;&gt;STAFF -->
<g id="edge10" class="edge">
<title>STAFF:Supervisor&#45;&gt;STAFF:StaffId</title>
<path fill="none" stroke="#000000" d="M644.6877,-23.3344C604.085,-21.8049 561,-27.3154 561,-46 561,-63.1519 597.3063,-69.2023 634.6706,-68.8964"/>
<polygon fill="#000000" stroke="#000000" points="634.771,-72.3952 644.6877,-68.6656 634.6096,-65.397 634.771,-72.3952"/>
</g>
<!-- DEPARTMENT -->
<g id="node11" class="node">
<title>DEPARTMENT</title>
<polygon fill="#ffffff" stroke="transparent" points="586,-80.5 490,-80.5 490,-4.5 586,-4.5 586,-80.5"/>
<polygon fill="none" stroke="#000000" points="498,-59.5 498,-76.5 578,-76.5 578,-59.5 498,-59.5"/>
<text text-anchor="start" x="501" y="-66.5" font-family="Courier,monospace" font-weight="bold" font-size="10.00" fill="#000000">DEPARTMENT</text>
<polygon fill="none" stroke="#000000" points="498,-42.5 498,-59.5 578,-59.5 578,-42.5 498,-42.5"/>
<text text-anchor="start" x="501" y="-49.5" font-family="Courier,monospace" text-decoration="underline" font-size="10.00" fill="#000000">DepId</text>
<text text-anchor="start" x="532" y="-49.5" font-family="Courier,monospace" font-size="10.00" fill="#000000"> </text>
<text text-anchor="start" x="539" y="-49.5" font-family="Courier,monospace" font-style="italic" font-size="10.00" fill="#000000">int</text>
<polygon fill="none" stroke="#000000" points="498,-25.5 498,-42.5 578,-42.5 578,-25.5 498,-25.5"/>
<text text-anchor="start" x="501" y="-32.5" font-family="Courier,monospace" font-size="10.00" fill="#000000">Name </text>
<text text-anchor="start" x="532" y="-32.5" font-family="Courier,monospace" font-style="italic" font-size="10.00" fill="#000000">varchar</text>
<polygon fill="none" stroke="#000000" points="498,-8.5 498,-25.5 578,-25.5 578,-8.5 498,-8.5"/>
<text text-anchor="start" x="501" y="-15.5" font-family="Courier,monospace" font-size="10.00" fill="#000000">Manager </text>
<text text-anchor="start" x="550" y="-15.5" font-family="Courier,monospace" font-style="italic" font-size="10.00" fill="#000000">int</text>
</g>
<!-- DEPARTMENT&#45;&gt;STAFF -->
<g id="edge11" class="edge">
<title>DEPARTMENT:Manager&#45;&gt;STAFF:StaffId</title>
<path fill="none" stroke="#000000" d="M578,-16.5C610.5376,-16.5 609.37,-54.1087 634.7979,-62.0418"/>
<polygon fill="#000000" stroke="#000000" points="634.6054,-65.5498 645,-63.5 635.5958,-58.6202 634.6054,-65.5498"/>
</g>
</g>
</svg>
