<?xml version="1.0" encoding="UTF-8" standalone="no"?>
<!DOCTYPE svg PUBLIC "-//W3C//DTD SVG 1.1//EN"
 "http://www.w3.org/Graphics/SVG/1.1/DTD/svg11.dtd">
<!-- Generated by graphviz version 2.36.0 (20140111.2315)
 -->
<!-- Title: %3 Pages: 1 -->
<svg width="762pt" height="562pt"
 viewBox="0.00 0.00 762.00 562.00" xmlns="http://www.w3.org/2000/svg" xmlns:xlink="http://www.w3.org/1999/xlink">
<g id="graph0" class="graph" transform="scale(1 1) rotate(0) translate(4 558)">
<title>%3</title>
<polygon fill="white" stroke="none" points="-4,4 -4,-558 758,-558 758,4 -4,4"/>
<!-- MOVIE -->
<g id="node1" class="node"><title>MOVIE</title>
<polygon fill="white" stroke="none" points="294.5,-471 191.5,-471 191.5,-377 294.5,-377 294.5,-471"/>
<polygon fill="none" stroke="black" points="200,-449 200,-467 287,-467 287,-449 200,-449"/>
<text text-anchor="start" x="203" y="-456.5" font-family="Courier,monospace" font-weight="bold" font-size="10.00">MOVIE</text>
<polygon fill="none" stroke="black" points="200,-432 200,-449 287,-449 287,-432 200,-432"/>
<text text-anchor="start" x="203" y="-439" font-family="Courier,monospace" text-decoration="underline" font-size="10.00">MovieId</text>
<text text-anchor="start" x="246" y="-439" font-family="Courier,monospace" font-size="10.00"> </text>
<text text-anchor="start" x="253" y="-439" font-family="Courier,monospace" font-style="italic" font-size="10.00">int</text>
<polygon fill="none" stroke="black" points="200,-415 200,-432 287,-432 287,-415 200,-415"/>
<text text-anchor="start" x="203" y="-422" font-family="Courier,monospace" font-size="10.00">Title </text>
<text text-anchor="start" x="240" y="-422" font-family="Courier,monospace" font-style="italic" font-size="10.00">varchar</text>
<polygon fill="none" stroke="black" points="200,-398 200,-415 287,-415 287,-398 200,-398"/>
<text text-anchor="start" x="203" y="-405" font-family="Courier,monospace" font-size="10.00">Duration </text>
<text text-anchor="start" x="258" y="-405" font-family="Courier,monospace" font-style="italic" font-size="10.00">int</text>
<polygon fill="none" stroke="black" points="200,-381 200,-398 287,-398 287,-381 200,-381"/>
<text text-anchor="start" x="203" y="-388" font-family="Courier,monospace" font-size="10.00">Year </text>
<text text-anchor="start" x="234" y="-388" font-family="Courier,monospace" font-style="italic" font-size="10.00">year</text>
</g>
<!-- ACTOR -->
<g id="node2" class="node"><title>ACTOR</title>
<polygon fill="white" stroke="none" points="291.5,-549 194.5,-549 194.5,-489 291.5,-489 291.5,-549"/>
<polygon fill="none" stroke="black" points="203,-527 203,-545 284,-545 284,-527 203,-527"/>
<text text-anchor="start" x="206" y="-534.5" font-family="Courier,monospace" font-weight="bold" font-size="10.00">ACTOR</text>
<polygon fill="none" stroke="black" points="203,-510 203,-527 284,-527 284,-510 203,-510"/>
<text text-anchor="start" x="206" y="-517" font-family="Courier,monospace" text-decoration="underline" font-size="10.00">ActorId</text>
<text text-anchor="start" x="249" y="-517" font-family="Courier,monospace" font-size="10.00"> </text>
<text text-anchor="start" x="256" y="-517" font-family="Courier,monospace" font-style="italic" font-size="10.00">int</text>
<polygon fill="none" stroke="black" points="203,-493 203,-510 284,-510 284,-493 203,-493"/>
<text text-anchor="start" x="206" y="-500" font-family="Courier,monospace" font-size="10.00">Name </text>
<text text-anchor="start" x="237" y="-500" font-family="Courier,monospace" font-style="italic" font-size="10.00">varchar</text>
</g>
<!-- GENRE -->
<g id="node3" class="node"><title>GENRE</title>
<polygon fill="white" stroke="none" points="294.5,-359 191.5,-359 191.5,-299 294.5,-299 294.5,-359"/>
<polygon fill="none" stroke="black" points="200,-337 200,-355 287,-355 287,-337 200,-337"/>
<text text-anchor="start" x="203" y="-344.5" font-family="Courier,monospace" font-weight="bold" font-size="10.00">GENRE</text>
<polygon fill="none" stroke="black" points="200,-320 200,-337 287,-337 287,-320 200,-320"/>
<text text-anchor="start" x="203" y="-327" font-family="Courier,monospace" text-decoration="underline" font-size="10.00">GenreId</text>
<text text-anchor="start" x="246" y="-327" font-family="Courier,monospace" font-size="10.00"> </text>
<text text-anchor="start" x="253" y="-327" font-family="Courier,monospace" font-style="italic" font-size="10.00">int</text>
<polygon fill="none" stroke="black" points="200,-303 200,-320 287,-320 287,-303 200,-303"/>
<text text-anchor="start" x="203" y="-310" font-family="Courier,monospace" font-size="10.00">Label </text>
<text text-anchor="start" x="240" y="-310" font-family="Courier,monospace" font-style="italic" font-size="10.00">varchar</text>
</g>
<!-- MOVIE_ACTOR -->
<g id="node4" class="node"><title>MOVIE_ACTOR</title>
<polygon fill="white" stroke="none" points="116,-554 24,-554 24,-494 116,-494 116,-554"/>
<polygon fill="none" stroke="black" points="32,-532 32,-550 108,-550 108,-532 32,-532"/>
<text text-anchor="start" x="35" y="-539.5" font-family="Courier,monospace" font-weight="bold" font-size="10.00">MOVIE_ACTOR</text>
<polygon fill="none" stroke="black" points="32,-515 32,-532 108,-532 108,-515 32,-515"/>
<text text-anchor="start" x="35" y="-522" font-family="Courier,monospace" text-decoration="underline" font-size="10.00">MovieId</text>
<text text-anchor="start" x="78" y="-522" font-family="Courier,monospace" font-size="10.00"> </text>
<text text-anchor="start" x="85" y="-522" font-family="Courier,monospace" font-style="italic" font-size="10.00">int</text>
<polygon fill="none" stroke="black" points="32,-498 32,-515 108,-515 108,-498 32,-498"/>
<text text-anchor="start" x="35" y="-505" font-family="Courier,monospace" text-decoration="underline" font-size="10.00">ActorId</text>
<text text-anchor="start" x="78" y="-505" font-family="Courier,monospace" font-size="10.00"> </text>
<text text-anchor="start" x="85" y="-505" font-family="Courier,monospace" font-style="italic" font-size="10.00">int</text>
</g>
<!-- MOVIE_ACTOR&#45;&gt;MOVIE -->
<g id="edge1" class="edge"><title>MOVIE_ACTOR:MovieId&#45;&gt;MOVIE:MovieId</title>
<path fill="none" stroke="black" d="M109,-523C159.414,-523 147.041,-451.828 188.871,-442.097"/>
<polygon fill="black" stroke="black" points="189.435,-445.557 199,-441 188.681,-438.597 189.435,-445.557"/>
</g>
<!-- MOVIE_ACTOR&#45;&gt;ACTOR -->
<g id="edge2" class="edge"><title>MOVIE_ACTOR:ActorId&#45;&gt;ACTOR:ActorId</title>
<path fill="none" stroke="black" d="M109,-506C147.094,-506 158.429,-516.026 191.924,-517.749"/>
<polygon fill="black" stroke="black" points="191.916,-521.25 202,-518 192.09,-514.252 191.916,-521.25"/>
</g>
<!-- MOVIE_GENRE -->
<g id="node5" class="node"><title>MOVIE_GENRE</title>
<polygon fill="white" stroke="none" points="116,-429 24,-429 24,-369 116,-369 116,-429"/>
<polygon fill="none" stroke="black" points="32,-407 32,-425 108,-425 108,-407 32,-407"/>
<text text-anchor="start" x="35" y="-414.5" font-family="Courier,monospace" font-weight="bold" font-size="10.00">MOVIE_GENRE</text>
<polygon fill="none" stroke="black" points="32,-390 32,-407 108,-407 108,-390 32,-390"/>
<text text-anchor="start" x="35" y="-397" font-family="Courier,monospace" text-decoration="underline" font-size="10.00">MovieId</text>
<text text-anchor="start" x="78" y="-397" font-family="Courier,monospace" font-size="10.00"> </text>
<text text-anchor="start" x="85" y="-397" font-family="Courier,monospace" font-style="italic" font-size="10.00">int</text>
<polygon fill="none" stroke="black" points="32,-373 32,-390 108,-390 108,-373 32,-373"/>
<text text-anchor="start" x="35" y="-380" font-family="Courier,monospace" text-decoration="underline" font-size="10.00">GenreId</text>
<text text-anchor="start" x="78" y="-380" font-family="Courier,monospace" font-size="10.00"> </text>
<text text-anchor="start" x="85" y="-380" font-family="Courier,monospace" font-style="italic" font-size="10.00">int</text>
</g>
<!-- MOVIE_GENRE&#45;&gt;MOVIE -->
<g id="edge3" class="edge"><title>MOVIE_GENRE:MovieId&#45;&gt;MOVIE:MovieId</title>
<path fill="none" stroke="black" d="M109,-398C149.694,-398 154.16,-434.235 188.911,-440.179"/>
<polygon fill="black" stroke="black" points="188.749,-443.678 199,-441 189.317,-436.701 188.749,-443.678"/>
</g>
<!-- MOVIE_GENRE&#45;&gt;GENRE -->
<g id="edge4" class="edge"><title>MOVIE_GENRE:GenreId&#45;&gt;GENRE:GenreId</title>
<path fill="none" stroke="black" d="M109,-381C151.794,-381 152.723,-335.958 188.975,-328.92"/>
<polygon fill="black" stroke="black" points="189.362,-332.399 199,-328 188.722,-325.429 189.362,-332.399"/>
</g>
<!-- STREAM -->
<g id="node6" class="node"><title>STREAM</title>
<polygon fill="white" stroke="none" points="139.5,-327.5 0.5,-327.5 0.5,-216.5 139.5,-216.5 139.5,-327.5"/>
<polygon fill="none" stroke="black" points="9,-305 9,-323 132,-323 132,-305 9,-305"/>
<text text-anchor="start" x="12" y="-312.5" font-family="Courier,monospace" font-weight="bold" font-size="10.00">STREAM</text>
<polygon fill="none" stroke="black" points="9,-288 9,-305 132,-305 132,-288 9,-288"/>
<text text-anchor="start" x="12" y="-295" font-family="Courier,monospace" text-decoration="underline" font-size="10.00">StreamId</text>
<text text-anchor="start" x="61" y="-295" font-family="Courier,monospace" font-size="10.00"> </text>
<text text-anchor="start" x="68" y="-295" font-family="Courier,monospace" font-style="italic" font-size="10.00">int</text>
<polygon fill="none" stroke="black" points="9,-271 9,-288 132,-288 132,-271 9,-271"/>
<text text-anchor="start" x="12" y="-278" font-family="Courier,monospace" font-size="10.00">MovieId </text>
<text text-anchor="start" x="61" y="-278" font-family="Courier,monospace" font-style="italic" font-size="10.00">int</text>
<polygon fill="none" stroke="black" points="9,-254 9,-271 132,-271 132,-254 9,-254"/>
<text text-anchor="start" x="12" y="-261" font-family="Courier,monospace" font-size="10.00">CustomerId </text>
<text text-anchor="start" x="79" y="-261" font-family="Courier,monospace" font-style="italic" font-size="10.00">int</text>
<polygon fill="none" stroke="black" points="9,-237 9,-254 132,-254 132,-237 9,-237"/>
<text text-anchor="start" x="12" y="-244" font-family="Courier,monospace" font-size="10.00">StreamDate </text>
<text text-anchor="start" x="79" y="-244" font-family="Courier,monospace" font-style="italic" font-size="10.00">datetime</text>
<polygon fill="none" stroke="black" points="9,-220 9,-237 132,-237 132,-220 9,-220"/>
<text text-anchor="start" x="12" y="-227" font-family="Courier,monospace" font-size="10.00">Charge </text>
<text text-anchor="start" x="55" y="-227" font-family="Courier,monospace" font-style="italic" font-size="10.00">float</text>
</g>
<!-- STREAM&#45;&gt;MOVIE -->
<g id="edge5" class="edge"><title>STREAM:MovieId&#45;&gt;MOVIE:MovieId</title>
<path fill="none" stroke="black" d="M133,-280C206.559,-280 129.929,-425.661 188.82,-439.886"/>
<polygon fill="black" stroke="black" points="188.679,-443.391 199,-441 189.44,-436.433 188.679,-443.391"/>
</g>
<!-- CUSTOMER -->
<g id="node7" class="node"><title>CUSTOMER</title>
<polygon fill="white" stroke="none" points="309.5,-280.5 176.5,-280.5 176.5,-101.5 309.5,-101.5 309.5,-280.5"/>
<polygon fill="none" stroke="black" points="185,-258 185,-276 302,-276 302,-258 185,-258"/>
<text text-anchor="start" x="188" y="-265.5" font-family="Courier,monospace" font-weight="bold" font-size="10.00">CUSTOMER</text>
<polygon fill="none" stroke="black" points="185,-241 185,-258 302,-258 302,-241 185,-241"/>
<text text-anchor="start" x="188" y="-248" font-family="Courier,monospace" text-decoration="underline" font-size="10.00">CustomerId</text>
<text text-anchor="start" x="249" y="-248" font-family="Courier,monospace" font-size="10.00"> </text>
<text text-anchor="start" x="256" y="-248" font-family="Courier,monospace" font-style="italic" font-size="10.00">int</text>
<polygon fill="none" stroke="black" points="185,-224 185,-241 302,-241 302,-224 185,-224"/>
<text text-anchor="start" x="188" y="-231" font-family="Courier,monospace" font-size="10.00">Name </text>
<text text-anchor="start" x="219" y="-231" font-family="Courier,monospace" font-style="italic" font-size="10.00">varchar</text>
<polygon fill="none" stroke="black" points="185,-207 185,-224 302,-224 302,-207 185,-207"/>
<text text-anchor="start" x="188" y="-214" font-family="Courier,monospace" font-size="10.00">Address </text>
<text text-anchor="start" x="237" y="-214" font-family="Courier,monospace" font-style="italic" font-size="10.00">varchar</text>
<polygon fill="none" stroke="black" points="185,-190 185,-207 302,-207 302,-190 185,-190"/>
<text text-anchor="start" x="188" y="-197" font-family="Courier,monospace" font-size="10.00">City </text>
<text text-anchor="start" x="219" y="-197" font-family="Courier,monospace" font-style="italic" font-size="10.00">varchar</text>
<polygon fill="none" stroke="black" points="185,-173 185,-190 302,-190 302,-173 185,-173"/>
<text text-anchor="start" x="188" y="-180" font-family="Courier,monospace" font-size="10.00">PostalCode </text>
<text text-anchor="start" x="255" y="-180" font-family="Courier,monospace" font-style="italic" font-size="10.00">varchar</text>
<polygon fill="none" stroke="black" points="185,-156 185,-173 302,-173 302,-156 185,-156"/>
<text text-anchor="start" x="188" y="-163" font-family="Courier,monospace" font-size="10.00">Country </text>
<text text-anchor="start" x="237" y="-163" font-family="Courier,monospace" font-style="italic" font-size="10.00">varchar</text>
<polygon fill="none" stroke="black" points="185,-139 185,-156 302,-156 302,-139 185,-139"/>
<text text-anchor="start" x="188" y="-146" font-family="Courier,monospace" font-size="10.00">Email </text>
<text text-anchor="start" x="225" y="-146" font-family="Courier,monospace" font-style="italic" font-size="10.00">varchar</text>
<polygon fill="none" stroke="black" points="185,-122 185,-139 302,-139 302,-122 185,-122"/>
<text text-anchor="start" x="188" y="-129" font-family="Courier,monospace" font-size="10.00">Phone ? </text>
<text text-anchor="start" x="237" y="-129" font-family="Courier,monospace" font-style="italic" font-size="10.00">int</text>
<polygon fill="none" stroke="black" points="185,-105 185,-122 302,-122 302,-105 185,-105"/>
<text text-anchor="start" x="188" y="-112" font-family="Courier,monospace" font-size="10.00">Active </text>
<text text-anchor="start" x="231" y="-112" font-family="Courier,monospace" font-style="italic" font-size="10.00">bool</text>
</g>
<!-- STREAM&#45;&gt;CUSTOMER -->
<g id="edge6" class="edge"><title>STREAM:CustomerId&#45;&gt;CUSTOMER:CustomerId</title>
<path fill="none" stroke="black" d="M133,-262C152.465,-262 158.754,-253.615 173.895,-250.863"/>
<polygon fill="black" stroke="black" points="174.334,-254.338 184,-250 173.738,-247.364 174.334,-254.338"/>
</g>
<!-- COUNTRY -->
<g id="node8" class="node"><title>COUNTRY</title>
<polygon fill="white" stroke="none" points="444,-195 346,-195 346,-135 444,-135 444,-195"/>
<polygon fill="none" stroke="black" points="354,-173 354,-191 436,-191 436,-173 354,-173"/>
<text text-anchor="start" x="357" y="-180.5" font-family="Courier,monospace" font-weight="bold" font-size="10.00">COUNTRY</text>
<polygon fill="none" stroke="black" points="354,-156 354,-173 436,-173 436,-156 354,-156"/>
<text text-anchor="start" x="357" y="-163" font-family="Courier,monospace" text-decoration="underline" font-size="10.00">Name</text>
<text text-anchor="start" x="382" y="-163" font-family="Courier,monospace" font-size="10.00"> </text>
<text text-anchor="start" x="389" y="-163" font-family="Courier,monospace" font-style="italic" font-size="10.00">varchar</text>
<polygon fill="none" stroke="black" points="354,-139 354,-156 436,-156 436,-139 354,-139"/>
<text text-anchor="start" x="357" y="-146" font-family="Courier,monospace" font-size="10.00">RegionId </text>
<text text-anchor="start" x="412" y="-146" font-family="Courier,monospace" font-style="italic" font-size="10.00">int</text>
</g>
<!-- CUSTOMER&#45;&gt;COUNTRY -->
<g id="edge7" class="edge"><title>CUSTOMER:Country&#45;&gt;COUNTRY:Name</title>
<path fill="none" stroke="black" d="M303,-164C321.403,-164 328.376,-164 342.849,-164"/>
<polygon fill="black" stroke="black" points="343,-167.5 353,-164 343,-160.5 343,-167.5"/>
</g>
<!-- REGION -->
<g id="node9" class="node"><title>REGION</title>
<polygon fill="white" stroke="none" points="607.5,-177.5 480.5,-177.5 480.5,-100.5 607.5,-100.5 607.5,-177.5"/>
<polygon fill="none" stroke="black" points="489,-155 489,-173 600,-173 600,-155 489,-155"/>
<text text-anchor="start" x="492" y="-162.5" font-family="Courier,monospace" font-weight="bold" font-size="10.00">REGION</text>
<polygon fill="none" stroke="black" points="489,-138 489,-155 600,-155 600,-138 489,-138"/>
<text text-anchor="start" x="492" y="-145" font-family="Courier,monospace" text-decoration="underline" font-size="10.00">RegionId</text>
<text text-anchor="start" x="541" y="-145" font-family="Courier,monospace" font-size="10.00"> </text>
<text text-anchor="start" x="548" y="-145" font-family="Courier,monospace" font-style="italic" font-size="10.00">int</text>
<polygon fill="none" stroke="black" points="489,-121 489,-138 600,-138 600,-121 489,-121"/>
<text text-anchor="start" x="492" y="-128" font-family="Courier,monospace" font-size="10.00">Name </text>
<text text-anchor="start" x="523" y="-128" font-family="Courier,monospace" font-style="italic" font-size="10.00">varchar</text>
<polygon fill="none" stroke="black" points="489,-104 489,-121 600,-121 600,-104 489,-104"/>
<text text-anchor="start" x="492" y="-111" font-family="Courier,monospace" font-size="10.00">RegionManager </text>
<text text-anchor="start" x="577" y="-111" font-family="Courier,monospace" font-style="italic" font-size="10.00">int</text>
</g>
<!-- COUNTRY&#45;&gt;REGION -->
<g id="edge8" class="edge"><title>COUNTRY:RegionId&#45;&gt;REGION:RegionId</title>
<path fill="none" stroke="black" d="M437,-147C455.771,-147 462.883,-147 477.646,-147"/>
<polygon fill="black" stroke="black" points="478,-150.5 488,-147 478,-143.5 478,-150.5"/>
</g>
<!-- STAFF -->
<g id="node10" class="node"><title>STAFF</title>
<polygon fill="white" stroke="none" points="753.5,-94 644.5,-94 644.5,-0 753.5,-0 753.5,-94"/>
<polygon fill="none" stroke="black" points="653,-72 653,-90 746,-90 746,-72 653,-72"/>
<text text-anchor="start" x="656" y="-79.5" font-family="Courier,monospace" font-weight="bold" font-size="10.00">STAFF</text>
<polygon fill="none" stroke="black" points="653,-55 653,-72 746,-72 746,-55 653,-55"/>
<text text-anchor="start" x="656" y="-62" font-family="Courier,monospace" text-decoration="underline" font-size="10.00">StaffId</text>
<text text-anchor="start" x="699" y="-62" font-family="Courier,monospace" font-size="10.00"> </text>
<text text-anchor="start" x="706" y="-62" font-family="Courier,monospace" font-style="italic" font-size="10.00">int</text>
<polygon fill="none" stroke="black" points="653,-38 653,-55 746,-55 746,-38 653,-38"/>
<text text-anchor="start" x="656" y="-45" font-family="Courier,monospace" font-size="10.00">Job </text>
<text text-anchor="start" x="681" y="-45" font-family="Courier,monospace" font-style="italic" font-size="10.00">varchar</text>
<polygon fill="none" stroke="black" points="653,-21 653,-38 746,-38 746,-21 653,-21"/>
<text text-anchor="start" x="656" y="-28" font-family="Courier,monospace" font-size="10.00">Supervisor </text>
<text text-anchor="start" x="723" y="-28" font-family="Courier,monospace" font-style="italic" font-size="10.00">int</text>
<polygon fill="none" stroke="black" points="653,-4 653,-21 746,-21 746,-4 653,-4"/>
<text text-anchor="start" x="656" y="-11" font-family="Courier,monospace" font-size="10.00">Name </text>
<text text-anchor="start" x="687" y="-11" font-family="Courier,monospace" font-style="italic" font-size="10.00">varchar</text>
</g>
<!-- REGION&#45;&gt;STAFF -->
<g id="edge9" class="edge"><title>REGION:RegionManager&#45;&gt;STAFF:StaffId</title>
<path fill="none" stroke="black" d="M601,-112C628.236,-112 623.024,-75.25 642.148,-66.0625"/>
<polygon fill="black" stroke="black" points="642.929,-69.475 652,-64 641.495,-62.6235 642.929,-69.475"/>
</g>
<!-- STAFF&#45;&gt;STAFF -->
<g id="edge10" class="edge"><title>STAFF:Supervisor&#45;&gt;STAFF:StaffId</title>
<path fill="none" stroke="black" d="M652.944,-23.8344C611.579,-22.3049 567.5,-27.8154 567.5,-46.5 567.5,-63.6519 604.644,-69.7023 642.735,-69.3964"/>
<polygon fill="black" stroke="black" points="643.025,-72.8909 652.944,-69.1656 642.867,-65.8927 643.025,-72.8909"/>
</g>
<!-- DEPARTMENT -->
<g id="node11" class="node"><title>DEPARTMENT</title>
<polygon fill="white" stroke="none" points="592.5,-82.5 495.5,-82.5 495.5,-5.5 592.5,-5.5 592.5,-82.5"/>
<polygon fill="none" stroke="black" points="504,-60 504,-78 585,-78 585,-60 504,-60"/>
<text text-anchor="start" x="507" y="-67.5" font-family="Courier,monospace" font-weight="bold" font-size="10.00">DEPARTMENT</text>
<polygon fill="none" stroke="black" points="504,-43 504,-60 585,-60 585,-43 504,-43"/>
<text text-anchor="start" x="507" y="-50" font-family="Courier,monospace" text-decoration="underline" font-size="10.00">DepId</text>
<text text-anchor="start" x="538" y="-50" font-family="Courier,monospace" font-size="10.00"> </text>
<text text-anchor="start" x="545" y="-50" font-family="Courier,monospace" font-style="italic" font-size="10.00">int</text>
<polygon fill="none" stroke="black" points="504,-26 504,-43 585,-43 585,-26 504,-26"/>
<text text-anchor="start" x="507" y="-33" font-family="Courier,monospace" font-size="10.00">Name </text>
<text text-anchor="start" x="538" y="-33" font-family="Courier,monospace" font-style="italic" font-size="10.00">varchar</text>
<polygon fill="none" stroke="black" points="504,-9 504,-26 585,-26 585,-9 504,-9"/>
<text text-anchor="start" x="507" y="-16" font-family="Courier,monospace" font-size="10.00">Manager </text>
<text text-anchor="start" x="556" y="-16" font-family="Courier,monospace" font-style="italic" font-size="10.00">int</text>
</g>
<!-- DEPARTMENT&#45;&gt;STAFF -->
<g id="edge11" class="edge"><title>DEPARTMENT:Manager&#45;&gt;STAFF:StaffId</title>
<path fill="none" stroke="black" d="M586,-17C618.213,-17 616.792,-54.6087 641.91,-62.5418"/>
<polygon fill="black" stroke="black" points="641.602,-66.0336 652,-64 642.603,-59.1056 641.602,-66.0336"/>
</g>
</g>
</svg>
