<?xml version="1.0" encoding="UTF-8" standalone="no"?>
<!DOCTYPE svg PUBLIC "-//W3C//DTD SVG 1.1//EN"
 "http://www.w3.org/Graphics/SVG/1.1/DTD/svg11.dtd">
<!-- Generated by graphviz version 2.40.1 (20161225.0304)
 -->
<!-- Title: %3 Pages: 1 -->
<svg width="292pt" height="220pt"
 viewBox="0.00 0.00 291.66 220.00" xmlns="http://www.w3.org/2000/svg" xmlns:xlink="http://www.w3.org/1999/xlink">
<g id="graph0" class="graph" transform="scale(1 1) rotate(0) translate(4 216)">
<title>%3</title>
<polygon fill="#ffffff" stroke="transparent" points="-4,4 -4,-216 287.6629,-216 287.6629,4 -4,4"/>
<!-- EntityA -->
<g id="node1" class="node">
<title>EntityA</title>
<polygon fill="#ffffff" stroke="#000000" points="64.6991,-165 5.6991,-165 5.6991,-129 64.6991,-129 64.6991,-165"/>
<text text-anchor="middle" x="35.1991" y="-144.5" font-family="Courier,monospace" font-size="10.00" fill="#000000">EntityA</text>
</g>
<!-- Rel1 -->
<g id="node4" class="node">
<title>Rel1</title>
<polygon fill="#ffffff" stroke="#000000" points="147.5306,-212 113.2655,-194 147.5306,-176 181.7957,-194 147.5306,-212"/>
<text text-anchor="middle" x="147.5306" y="-191.5" font-family="Courier,monospace" font-size="10.00" fill="#000000">Rel1</text>
</g>
<!-- EntityA&#45;&#45;Rel1 -->
<g id="edge1" class="edge">
<title>EntityA&#45;&#45;Rel1</title>
<path fill="none" stroke="#000000" d="M64.7129,-159.3487C84.864,-167.78 110.9737,-178.7044 128.4393,-186.0121"/>
<text text-anchor="middle" x="91.8983" y="-174" font-family="Courier,monospace" font-size="10.00" fill="#000000">1</text>
</g>
<!-- Rel2 -->
<g id="node5" class="node">
<title>Rel2</title>
<polygon fill="#ffffff" stroke="#000000" points="147.5306,-158 113.2655,-140 147.5306,-122 181.7957,-140 147.5306,-158"/>
<text text-anchor="middle" x="147.5306" y="-137.5" font-family="Courier,monospace" font-size="10.00" fill="#000000">Rel2</text>
</g>
<!-- EntityA&#45;&#45;Rel2 -->
<g id="edge3" class="edge">
<title>EntityA&#45;&#45;Rel2</title>
<path fill="none" stroke="#000000" d="M64.7129,-145.1608C80.7038,-144.1644 100.4469,-142.934 116.6451,-141.9246"/>
<text text-anchor="middle" x="91.8983" y="-146" font-family="Courier,monospace" font-size="10.00" fill="#000000">M</text>
</g>
<!-- Rel3 -->
<g id="node6" class="node">
<title>Rel3</title>
<polygon fill="#ffffff" stroke="#000000" points="147.5306,-98 113.2655,-80 147.5306,-62 181.7957,-80 147.5306,-98"/>
<text text-anchor="middle" x="147.5306" y="-77.5" font-family="Courier,monospace" font-size="10.00" fill="#000000">Rel3</text>
</g>
<!-- EntityA&#45;&#45;Rel3 -->
<g id="edge5" class="edge">
<title>EntityA&#45;&#45;Rel3</title>
<path fill="none" stroke="#000000" d="M63.6884,-127.6789C85.0096,-114.9619 113.0014,-98.2662 130.3669,-87.9085"/>
<path fill="none" stroke="transparent" d="M64.7129,-129.3965C86.0341,-116.6795 114.0259,-99.9838 131.3914,-89.6262"/>
<path fill="none" stroke="#000000" d="M65.7374,-131.1142C87.0586,-118.3972 115.0504,-101.7015 132.4159,-91.3439"/>
<text text-anchor="middle" x="91.8983" y="-116" font-family="Courier,monospace" font-size="10.00" fill="#000000">1</text>
</g>
<!-- EntityB -->
<g id="node2" class="node">
<title>EntityB</title>
<polygon fill="#ffffff" stroke="#000000" points="283.6629,-185 224.6629,-185 224.6629,-149 283.6629,-149 283.6629,-185"/>
<text text-anchor="middle" x="254.1629" y="-164.5" font-family="Courier,monospace" font-size="10.00" fill="#000000">EntityB</text>
</g>
<!-- EntityC -->
<g id="node3" class="node">
<title>EntityC</title>
<polygon fill="#ffffff" stroke="#000000" points="283.6629,-98 224.6629,-98 224.6629,-62 283.6629,-62 283.6629,-98"/>
<text text-anchor="middle" x="254.1629" y="-77.5" font-family="Courier,monospace" font-size="10.00" fill="#000000">EntityC</text>
</g>
<!-- Rel1&#45;&#45;EntityB -->
<g id="edge2" class="edge">
<title>Rel1&#45;&#45;EntityB</title>
<path fill="none" stroke="#000000" d="M170.1773,-186.2026C185.9805,-182.2011 207.0581,-176.8641 224.0818,-172.5536"/>
<path fill="none" stroke="transparent" d="M170.6682,-188.1414C186.4714,-184.1399 207.549,-178.8029 224.5727,-174.4924"/>
<path fill="none" stroke="#000000" d="M171.1591,-190.0802C186.9623,-186.0787 208.04,-180.7417 225.0636,-176.4312"/>
<text text-anchor="middle" x="203.1629" y="-183" font-family="Courier,monospace" font-size="10.00" fill="#000000">N</text>
</g>
<!-- Rel2&#45;&#45;EntityB -->
<g id="edge4" class="edge">
<title>Rel2&#45;&#45;EntityB</title>
<path fill="none" stroke="#000000" d="M170.6682,-145.8586C186.4714,-149.8601 207.549,-155.1971 224.5727,-159.5076"/>
<text text-anchor="middle" x="203.1629" y="-157" font-family="Courier,monospace" font-size="10.00" fill="#000000">N</text>
</g>
<!-- Rel3&#45;&#45;EntityC -->
<g id="edge6" class="edge">
<title>Rel3&#45;&#45;EntityC</title>
<path fill="none" stroke="#000000" d="M181.8567,-80C195.6162,-80 211.3167,-80 224.5638,-80"/>
<text text-anchor="middle" x="203.1629" y="-83" font-family="Courier,monospace" font-size="10.00" fill="#000000">1</text>
</g>
<!-- Rel3_RAttr1 -->
<g id="node7" class="node">
<title>Rel3_RAttr1</title>
<ellipse fill="#ffffff" stroke="#000000" cx="35.1991" cy="-80" rx="31.3996" ry="18"/>
<text text-anchor="middle" x="35.1991" y="-77.5" font-family="Courier,monospace" font-size="10.00" fill="#000000">RAttr1</text>
</g>
<!-- Rel3_RAttr1&#45;&#45;Rel3 -->
<g id="edge7" class="edge">
<title>Rel3_RAttr1&#45;&#45;Rel3</title>
<path fill="none" stroke="#000000" d="M66.4897,-80C81.0313,-80 98.3607,-80 113.2553,-80"/>
</g>
<!-- Rel3_RAttr2 -->
<g id="node8" class="node">
<title>Rel3_RAttr2</title>
<ellipse fill="#ffffff" stroke="#000000" cx="35.1991" cy="-22" rx="31.3766" ry="18"/>
<ellipse fill="none" stroke="#000000" cx="35.1991" cy="-22" rx="35.3994" ry="22"/>
<text text-anchor="middle" x="35.1991" y="-19.5" font-family="Courier,monospace" font-size="10.00" fill="#000000">RAttr2</text>
</g>
<!-- Rel3_RAttr2&#45;&#45;Rel3 -->
<g id="edge8" class="edge">
<title>Rel3_RAttr2&#45;&#45;Rel3</title>
<path fill="none" stroke="#000000" d="M62.3914,-36.0402C83.4292,-46.9026 111.9351,-61.621 130.0327,-70.9654"/>
</g>
</g>
</svg>
