<?xml version="1.0" encoding="UTF-8" standalone="no"?>
<!DOCTYPE svg PUBLIC "-//W3C//DTD SVG 1.1//EN"
 "http://www.w3.org/Graphics/SVG/1.1/DTD/svg11.dtd">
<!-- Generated by graphviz version 2.36.0 (20140111.2315)
 -->
<!-- Title: %3 Pages: 1 -->
<svg width="294pt" height="220pt"
 viewBox="0.00 0.00 294.00 220.00" xmlns="http://www.w3.org/2000/svg" xmlns:xlink="http://www.w3.org/1999/xlink">
<g id="graph0" class="graph" transform="scale(1 1) rotate(0) translate(4 216)">
<title>%3</title>
<polygon fill="white" stroke="none" points="-4,4 -4,-216 290,-216 290,4 -4,4"/>
<!-- EntityA -->
<g id="node1" class="node"><title>EntityA</title>
<polygon fill="white" stroke="black" points="64.5,-165 5.5,-165 5.5,-129 64.5,-129 64.5,-165"/>
<text text-anchor="middle" x="35" y="-144.5" font-family="Courier,monospace" font-size="10.00">EntityA</text>
</g>
<!-- Rel1 -->
<g id="node4" class="node"><title>Rel1</title>
<polygon fill="white" stroke="black" points="148,-212 113.735,-194 148,-176 182.265,-194 148,-212"/>
<text text-anchor="middle" x="148" y="-191.5" font-family="Courier,monospace" font-size="10.00">Rel1</text>
</g>
<!-- EntityA&#45;&#45;Rel1 -->
<g id="edge1" class="edge"><title>EntityA&#45;&#45;Rel1</title>
<path fill="none" stroke="black" d="M64.5853,-159.104C84.6267,-167.59 110.846,-178.692 128.272,-186.07"/>
<text text-anchor="middle" x="92" y="-174" font-family="Courier,monospace" font-size="10.00">1</text>
</g>
<!-- Rel2 -->
<g id="node5" class="node"><title>Rel2</title>
<polygon fill="white" stroke="black" points="148,-158 113.735,-140 148,-122 182.265,-140 148,-158"/>
<text text-anchor="middle" x="148" y="-137.5" font-family="Courier,monospace" font-size="10.00">Rel2</text>
</g>
<!-- EntityA&#45;&#45;Rel2 -->
<g id="edge3" class="edge"><title>EntityA&#45;&#45;Rel2</title>
<path fill="none" stroke="black" d="M64.5853,-145.197C80.6441,-144.185 100.67,-142.922 116.96,-141.894"/>
<text text-anchor="middle" x="92" y="-146" font-family="Courier,monospace" font-size="10.00">M</text>
</g>
<!-- Rel3 -->
<g id="node6" class="node"><title>Rel3</title>
<polygon fill="white" stroke="black" points="148,-98 113.735,-80 148,-62 182.265,-80 148,-98"/>
<text text-anchor="middle" x="148" y="-77.5" font-family="Courier,monospace" font-size="10.00">Rel3</text>
</g>
<!-- EntityA&#45;&#45;Rel3 -->
<g id="edge5" class="edge"><title>EntityA&#45;&#45;Rel3</title>
<path fill="none" stroke="black" d="M63.5517,-128.034C84.8779,-115.161 113.2,-98.0659 130.478,-87.6368"/>
<path fill="none" stroke="none" d="M64.5853,-129.746C85.9114,-116.873 114.233,-99.7781 131.511,-89.3491"/>
<path fill="none" stroke="black" d="M65.6188,-131.458C86.9449,-118.586 115.267,-101.49 132.545,-91.0614"/>
<text text-anchor="middle" x="92" y="-118" font-family="Courier,monospace" font-size="10.00">1</text>
</g>
<!-- EntityB -->
<g id="node2" class="node"><title>EntityB</title>
<polygon fill="white" stroke="black" points="285.5,-180 226.5,-180 226.5,-144 285.5,-144 285.5,-180"/>
<text text-anchor="middle" x="256" y="-159.5" font-family="Courier,monospace" font-size="10.00">EntityB</text>
</g>
<!-- EntityC -->
<g id="node3" class="node"><title>EntityC</title>
<polygon fill="white" stroke="black" points="285.5,-98 226.5,-98 226.5,-62 285.5,-62 285.5,-98"/>
<text text-anchor="middle" x="256" y="-77.5" font-family="Courier,monospace" font-size="10.00">EntityC</text>
</g>
<!-- Rel1&#45;&#45;EntityB -->
<g id="edge2" class="edge"><title>Rel1&#45;&#45;EntityB</title>
<path fill="none" stroke="black" d="M169.618,-185.687C185.689,-180.835 207.951,-174.114 225.633,-168.776"/>
<path fill="none" stroke="none" d="M170.196,-187.601C186.267,-182.75 208.529,-176.029 226.211,-170.691"/>
<path fill="none" stroke="black" d="M170.774,-189.516C186.845,-184.664 209.107,-177.944 226.789,-172.606"/>
<text text-anchor="middle" x="204" y="-181" font-family="Courier,monospace" font-size="10.00">N</text>
</g>
<!-- Rel2&#45;&#45;EntityB -->
<g id="edge4" class="edge"><title>Rel2&#45;&#45;EntityB</title>
<path fill="none" stroke="black" d="M173.053,-144.992C188.812,-148.263 209.497,-152.556 226.142,-156.011"/>
<text text-anchor="middle" x="204" y="-154" font-family="Courier,monospace" font-size="10.00">N</text>
</g>
<!-- Rel3&#45;&#45;EntityC -->
<g id="edge6" class="edge"><title>Rel3&#45;&#45;EntityC</title>
<path fill="none" stroke="black" d="M182.248,-80C196.334,-80 212.592,-80 226.162,-80"/>
<text text-anchor="middle" x="204" y="-83" font-family="Courier,monospace" font-size="10.00">1</text>
</g>
<!-- Rel3_RAttr1 -->
<g id="node7" class="node"><title>Rel3_RAttr1</title>
<ellipse fill="white" stroke="black" cx="35" cy="-80" rx="31.3996" ry="18"/>
<text text-anchor="middle" x="35" y="-77.5" font-family="Courier,monospace" font-size="10.00">RAttr1</text>
</g>
<!-- Rel3_RAttr1&#45;&#45;Rel3 -->
<g id="edge7" class="edge"><title>Rel3_RAttr1&#45;&#45;Rel3</title>
<path fill="none" stroke="black" d="M66.3312,-80C80.9665,-80 98.5641,-80 113.583,-80"/>
</g>
<!-- Rel3_RAttr2 -->
<g id="node8" class="node"><title>Rel3_RAttr2</title>
<ellipse fill="white" stroke="black" cx="35" cy="-22" rx="31.3766" ry="18"/>
<ellipse fill="none" stroke="black" cx="35" cy="-22" rx="35.3994" ry="22"/>
<text text-anchor="middle" x="35" y="-19.5" font-family="Courier,monospace" font-size="10.00">RAttr2</text>
</g>
<!-- Rel3_RAttr2&#45;&#45;Rel3 -->
<g id="edge8" class="edge"><title>Rel3_RAttr2&#45;&#45;Rel3</title>
<path fill="none" stroke="black" d="M62.5873,-35.8924C83.6243,-46.8848 112.351,-61.895 130.281,-71.2638"/>
</g>
</g>
</svg>
