<?xml version="1.0" encoding="UTF-8" standalone="no"?>
<!DOCTYPE svg PUBLIC "-//W3C//DTD SVG 1.1//EN"
 "http://www.w3.org/Graphics/SVG/1.1/DTD/svg11.dtd">
<!-- Generated by graphviz version 2.40.1 (20161225.0304)
 -->
<!-- Title: %3 Pages: 1 -->
<svg width="368pt" height="135pt"
 viewBox="0.00 0.00 368.00 134.50" xmlns="http://www.w3.org/2000/svg" xmlns:xlink="http://www.w3.org/1999/xlink">
<g id="graph0" class="graph" transform="scale(1 1) rotate(0) translate(4 130.5)">
<title>%3</title>
<polygon fill="#ffffff" stroke="transparent" points="-4,4 -4,-130.5 364,-130.5 364,4 -4,4"/>
<!-- A -->
<g id="node1" class="node">
<title>A</title>
<polygon fill="#ffffff" stroke="transparent" points="192,-126.5 79,-126.5 79,-16.5 192,-16.5 192,-126.5"/>
<polygon fill="none" stroke="#000000" points="87.5,-105.5 87.5,-122.5 184.5,-122.5 184.5,-105.5 87.5,-105.5"/>
<text text-anchor="start" x="90.5" y="-112.5" font-family="Courier,monospace" font-weight="bold" font-size="10.00" fill="#000000">A</text>
<polygon fill="none" stroke="#000000" points="87.5,-88.5 87.5,-105.5 184.5,-105.5 184.5,-88.5 87.5,-88.5"/>
<text text-anchor="start" x="90.5" y="-95.5" font-family="Courier,monospace" text-decoration="underline" font-size="10.00" fill="#000000">PrimaryKey</text>
<polygon fill="none" stroke="#000000" points="87.5,-71.5 87.5,-88.5 184.5,-88.5 184.5,-71.5 87.5,-71.5"/>
<text text-anchor="start" x="90.5" y="-77.5" font-family="Courier,monospace" font-size="10.00" fill="#000000">PlainField</text>
<polygon fill="none" stroke="#000000" points="87.5,-54.5 87.5,-71.5 184.5,-71.5 184.5,-54.5 87.5,-54.5"/>
<text text-anchor="start" x="90.5" y="-60.5" font-family="Courier,monospace" font-size="10.00" fill="#000000">OptionalField ?</text>
<polygon fill="none" stroke="#000000" points="87.5,-37.5 87.5,-54.5 184.5,-54.5 184.5,-37.5 87.5,-37.5"/>
<text text-anchor="start" x="90.5" y="-43.5" font-family="Courier,monospace" font-size="10.00" fill="#000000">ForeignKey1</text>
<polygon fill="none" stroke="#000000" points="87.5,-20.5 87.5,-37.5 184.5,-37.5 184.5,-20.5 87.5,-20.5"/>
<text text-anchor="start" x="90.5" y="-26.5" font-family="Courier,monospace" font-size="10.00" fill="#000000">ForeignKey2</text>
</g>
<!-- A&#45;&gt;A -->
<g id="edge1" class="edge">
<title>A:ForeignKey1&#45;&gt;A:PrimaryKey</title>
<path fill="none" stroke="#000000" d="M87.3101,-40.5365C44.9033,-39.6254 0,-46.959 0,-71.5 0,-94.0279 37.8385,-102.0556 76.8499,-102.5163"/>
<polygon fill="#000000" stroke="#000000" points="77.328,-106.014 87.3101,-102.4635 77.2926,-99.0141 77.328,-106.014"/>
</g>
<!-- B -->
<g id="node2" class="node">
<title>B</title>
<polygon fill="#ffffff" stroke="transparent" points="360,-59 228,-59 228,0 360,0 360,-59"/>
<polygon fill="none" stroke="#000000" points="236,-37.5 236,-54.5 352,-54.5 352,-37.5 236,-37.5"/>
<text text-anchor="start" x="239" y="-44.5" font-family="Courier,monospace" font-weight="bold" font-size="10.00" fill="#000000">B</text>
<polygon fill="none" stroke="#000000" points="236,-20.5 236,-37.5 352,-37.5 352,-20.5 236,-20.5"/>
<text text-anchor="start" x="239" y="-27.5" font-family="Courier,monospace" text-decoration="underline" font-size="10.00" fill="#000000">PrimaryKey</text>
<text text-anchor="start" x="300" y="-27.5" font-family="Courier,monospace" font-size="10.00" fill="#000000"> </text>
<text text-anchor="start" x="307" y="-27.5" font-family="Courier,monospace" font-style="italic" font-size="10.00" fill="#000000">int</text>
<polygon fill="none" stroke="#000000" points="236,-3.5 236,-20.5 352,-20.5 352,-3.5 236,-3.5"/>
<text text-anchor="start" x="239" y="-10.5" font-family="Courier,monospace" font-size="10.00" fill="#000000">PlainField </text>
<text text-anchor="start" x="306" y="-10.5" font-family="Courier,monospace" font-style="italic" font-size="10.00" fill="#000000">varchar</text>
</g>
<!-- A&#45;&gt;B -->
<g id="edge2" class="edge">
<title>A:ForeignKey2&#45;&gt;B:PrimaryKey</title>
<path fill="none" stroke="#000000" d="M184.5,-28.5C203.6337,-28.5 210.7714,-28.5 225.969,-28.5"/>
<polygon fill="#000000" stroke="#000000" points="226,-32.0001 236,-28.5 226,-25.0001 226,-32.0001"/>
</g>
</g>
</svg>
