<?xml version="1.0" encoding="UTF-8" standalone="no"?>
<!DOCTYPE svg PUBLIC "-//W3C//DTD SVG 1.1//EN"
 "http://www.w3.org/Graphics/SVG/1.1/DTD/svg11.dtd">
<!-- Generated by graphviz version 2.36.0 (20140111.2315)
 -->
<!-- Title: %3 Pages: 1 -->
<svg width="372pt" height="136pt"
 viewBox="0.00 0.00 372.00 136.00" xmlns="http://www.w3.org/2000/svg" xmlns:xlink="http://www.w3.org/1999/xlink">
<g id="graph0" class="graph" transform="scale(1 1) rotate(0) translate(4 132)">
<title>%3</title>
<polygon fill="white" stroke="none" points="-4,4 -4,-132 368,-132 368,4 -4,4"/>
<!-- A -->
<g id="node1" class="node"><title>A</title>
<polygon fill="white" stroke="none" points="194,-128.5 80,-128.5 80,-17.5 194,-17.5 194,-128.5"/>
<polygon fill="none" stroke="black" points="88,-106 88,-124 186,-124 186,-106 88,-106"/>
<text text-anchor="start" x="91" y="-113.5" font-family="Courier,monospace" font-weight="bold" font-size="10.00">A</text>
<polygon fill="none" stroke="black" points="88,-89 88,-106 186,-106 186,-89 88,-89"/>
<text text-anchor="start" x="91" y="-96" font-family="Courier,monospace" text-decoration="underline" font-size="10.00">PrimaryKey</text>
<polygon fill="none" stroke="black" points="88,-72 88,-89 186,-89 186,-72 88,-72"/>
<text text-anchor="start" x="91" y="-78" font-family="Courier,monospace" font-size="10.00">PlainField</text>
<polygon fill="none" stroke="black" points="88,-55 88,-72 186,-72 186,-55 88,-55"/>
<text text-anchor="start" x="91" y="-61" font-family="Courier,monospace" font-size="10.00">OptionalField ?</text>
<polygon fill="none" stroke="black" points="88,-38 88,-55 186,-55 186,-38 88,-38"/>
<text text-anchor="start" x="91" y="-44" font-family="Courier,monospace" font-size="10.00">ForeignKey1</text>
<polygon fill="none" stroke="black" points="88,-21 88,-38 186,-38 186,-21 88,-21"/>
<text text-anchor="start" x="91" y="-27" font-family="Courier,monospace" font-size="10.00">ForeignKey2</text>
</g>
<!-- A&#45;&gt;A -->
<g id="edge1" class="edge"><title>A:ForeignKey1&#45;&gt;A:PrimaryKey</title>
<path fill="none" stroke="black" d="M87.8383,-41.0443C45.1538,-40.0847 0,-47.3906 0,-72 0,-94.6868 38.3741,-102.668 77.8116,-103.025"/>
<polygon fill="black" stroke="black" points="77.8627,-106.525 87.8383,-102.956 77.8143,-99.5249 77.8627,-106.525"/>
</g>
<!-- B -->
<g id="node2" class="node"><title>B</title>
<polygon fill="white" stroke="none" points="363.5,-60 230.5,-60 230.5,-3.55271e-15 363.5,-3.55271e-15 363.5,-60"/>
<polygon fill="none" stroke="black" points="239,-38 239,-56 356,-56 356,-38 239,-38"/>
<text text-anchor="start" x="242" y="-45.5" font-family="Courier,monospace" font-weight="bold" font-size="10.00">B</text>
<polygon fill="none" stroke="black" points="239,-21 239,-38 356,-38 356,-21 239,-21"/>
<text text-anchor="start" x="242" y="-28" font-family="Courier,monospace" text-decoration="underline" font-size="10.00">PrimaryKey</text>
<text text-anchor="start" x="303" y="-28" font-family="Courier,monospace" font-size="10.00"> </text>
<text text-anchor="start" x="310" y="-28" font-family="Courier,monospace" font-style="italic" font-size="10.00">int</text>
<polygon fill="none" stroke="black" points="239,-4 239,-21 356,-21 356,-4 239,-4"/>
<text text-anchor="start" x="242" y="-11" font-family="Courier,monospace" font-size="10.00">PlainField </text>
<text text-anchor="start" x="309" y="-11" font-family="Courier,monospace" font-style="italic" font-size="10.00">varchar</text>
</g>
<!-- A&#45;&gt;B -->
<g id="edge2" class="edge"><title>A:ForeignKey2&#45;&gt;B:PrimaryKey</title>
<path fill="none" stroke="black" d="M187,-29C205.771,-29 212.883,-29 227.646,-29"/>
<polygon fill="black" stroke="black" points="228,-32.5001 238,-29 228,-25.5001 228,-32.5001"/>
</g>
</g>
</svg>
