<?xml version="1.0" encoding="UTF-8" standalone="no"?>
<!DOCTYPE svg PUBLIC "-//W3C//DTD SVG 1.1//EN"
 "http://www.w3.org/Graphics/SVG/1.1/DTD/svg11.dtd">
<!-- Generated by graphviz version 2.36.0 (20140111.2315)
 -->
<!-- Title: %3 Pages: 1 -->
<svg width="846pt" height="552pt"
 viewBox="0.00 0.00 846.00 552.00" xmlns="http://www.w3.org/2000/svg" xmlns:xlink="http://www.w3.org/1999/xlink">
<g id="graph0" class="graph" transform="scale(1 1) rotate(0) translate(4 548)">
<title>%3</title>
<polygon fill="white" stroke="none" points="-4,4 -4,-548 842,-548 842,4 -4,4"/>
<!-- USER -->
<g id="node1" class="node"><title>USER</title>
<polygon fill="white" stroke="black" points="284,-252 230,-252 230,-216 284,-216 284,-252"/>
<text text-anchor="middle" x="257" y="-231.5" font-family="Courier,monospace" font-size="10.00">USER</text>
</g>
<!-- FOLLOWS -->
<g id="node17" class="node"><title>FOLLOWS</title>
<polygon fill="white" stroke="black" points="377,-320 327.765,-302 377,-284 426.235,-302 377,-320"/>
<text text-anchor="middle" x="377" y="-299.5" font-family="Courier,monospace" font-size="10.00">FOLLOWS</text>
</g>
<!-- USER&#45;&#45;FOLLOWS -->
<g id="edge15" class="edge"><title>USER&#45;&#45;FOLLOWS</title>
<path fill="none" stroke="black" d="M271.703,-252.381C279.616,-261.842 290.305,-272.857 302,-280 314.582,-287.685 330.014,-292.827 343.524,-296.193"/>
<text text-anchor="middle" x="306" y="-287" font-family="Courier,monospace" font-size="10.00">M</text>
</g>
<!-- WRITES -->
<g id="node18" class="node"><title>WRITES</title>
<polygon fill="white" stroke="black" points="377,-266 332.755,-248 377,-230 421.245,-248 377,-266"/>
<text text-anchor="middle" x="377" y="-245.5" font-family="Courier,monospace" font-size="10.00">WRITES</text>
</g>
<!-- USER&#45;&#45;WRITES -->
<g id="edge17" class="edge"><title>USER&#45;&#45;WRITES</title>
<path fill="none" stroke="black" d="M284.243,-233.611C292.505,-233.728 301.651,-234.104 310,-235 322.773,-236.37 336.755,-238.963 348.549,-241.475"/>
<text text-anchor="middle" x="306" y="-238" font-family="Courier,monospace" font-size="10.00">1</text>
</g>
<!-- LIKES -->
<g id="node19" class="node"><title>LIKES</title>
<polygon fill="white" stroke="black" points="377,-212 337.745,-194 377,-176 416.255,-194 377,-212"/>
<text text-anchor="middle" x="377" y="-191.5" font-family="Courier,monospace" font-size="10.00">LIKES</text>
</g>
<!-- USER&#45;&#45;LIKES -->
<g id="edge19" class="edge"><title>USER&#45;&#45;LIKES</title>
<path fill="none" stroke="black" d="M284.054,-225.105C289.954,-223.094 296.192,-220.971 302,-219 319.336,-213.117 338.966,-206.486 353.651,-201.533"/>
<text text-anchor="middle" x="306" y="-222" font-family="Courier,monospace" font-size="10.00">M</text>
</g>
<!-- REACTS -->
<g id="node25" class="node"><title>REACTS</title>
<polygon fill="white" stroke="black" points="488,-180 443.755,-162 488,-144 532.245,-162 488,-180"/>
<text text-anchor="middle" x="488" y="-159.5" font-family="Courier,monospace" font-size="10.00">REACTS</text>
</g>
<!-- USER&#45;&#45;REACTS -->
<g id="edge26" class="edge"><title>USER&#45;&#45;REACTS</title>
<path fill="none" stroke="black" d="M270.622,-215.967C283.102,-199.816 303.803,-177.158 328,-167 369.89,-149.414 423.597,-152.364 456.637,-156.72"/>
<text text-anchor="middle" x="306" y="-186" font-family="Courier,monospace" font-size="10.00">1</text>
</g>
<!-- USER_Num -->
<g id="node2" class="node"><title>USER_Num</title>
<ellipse fill="white" stroke="black" cx="150" cy="-423" rx="27" ry="18"/>
<text text-anchor="start" x="140.5" y="-421.5" font-family="Courier,monospace" text-decoration="underline" font-size="10.00">Num</text>
</g>
<!-- USER_Num&#45;&#45;USER -->
<g id="edge1" class="edge"><title>USER_Num&#45;&#45;USER</title>
<path fill="none" stroke="black" d="M172.132,-412.51C179.194,-408.181 186.625,-402.615 192,-396 228.137,-351.526 245.843,-284.127 252.603,-252.112"/>
</g>
<!-- USER_Login -->
<g id="node3" class="node"><title>USER_Login</title>
<ellipse fill="white" stroke="black" cx="150" cy="-369" rx="27.8353" ry="18"/>
<text text-anchor="middle" x="150" y="-366.5" font-family="Courier,monospace" font-size="10.00">Login</text>
</g>
<!-- USER_Login&#45;&#45;USER -->
<g id="edge2" class="edge"><title>USER_Login&#45;&#45;USER</title>
<path fill="none" stroke="black" d="M171.988,-357.748C178.876,-353.418 186.236,-348.044 192,-342 218.022,-314.714 238.101,-274.985 248.386,-252.092"/>
</g>
<!-- USER_Joined -->
<g id="node4" class="node"><title>USER_Joined</title>
<ellipse fill="white" stroke="black" cx="150" cy="-315" rx="31.3996" ry="18"/>
<text text-anchor="middle" x="150" y="-312.5" font-family="Courier,monospace" font-size="10.00">Joined</text>
</g>
<!-- USER_Joined&#45;&#45;USER -->
<g id="edge3" class="edge"><title>USER_Joined&#45;&#45;USER</title>
<path fill="none" stroke="black" d="M171.765,-302.008C178.349,-297.709 185.582,-292.795 192,-288 207.141,-276.689 223.408,-262.941 235.753,-252.147"/>
</g>
<!-- USER_Name -->
<g id="node5" class="node"><title>USER_Name</title>
<ellipse fill="white" stroke="black" cx="150" cy="-261" rx="27" ry="18"/>
<text text-anchor="middle" x="150" y="-258.5" font-family="Courier,monospace" font-size="10.00">Name</text>
</g>
<!-- USER_Name&#45;&#45;USER -->
<g id="edge4" class="edge"><title>USER_Name&#45;&#45;USER</title>
<path fill="none" stroke="black" d="M175.353,-254.738C191.71,-250.532 213.243,-244.995 229.944,-240.7"/>
</g>
<!-- USER_BirthDate -->
<g id="node6" class="node"><title>USER_BirthDate</title>
<ellipse fill="white" stroke="black" cx="150" cy="-207" rx="41.5911" ry="18"/>
<text text-anchor="middle" x="150" y="-204.5" font-family="Courier,monospace" font-size="10.00">BirthDate</text>
</g>
<!-- USER_BirthDate&#45;&#45;USER -->
<g id="edge5" class="edge"><title>USER_BirthDate&#45;&#45;USER</title>
<path fill="none" stroke="black" d="M186.256,-216.066C200.554,-219.742 216.773,-223.913 229.969,-227.306"/>
</g>
<!-- USER_Age -->
<g id="node7" class="node"><title>USER_Age</title>
<ellipse fill="none" stroke="black" stroke-dasharray="5,2" cx="150" cy="-153" rx="27" ry="18"/>
<text text-anchor="middle" x="150" y="-150.5" font-family="Courier,monospace" font-size="10.00">Age</text>
</g>
<!-- USER_Age&#45;&#45;USER -->
<g id="edge6" class="edge"><title>USER_Age&#45;&#45;USER</title>
<path fill="none" stroke="black" d="M170.513,-165.177C177.422,-169.664 185.172,-174.899 192,-180 207.141,-191.311 223.408,-205.059 235.753,-215.853"/>
</g>
<!-- USER_Sex -->
<g id="node8" class="node"><title>USER_Sex</title>
<ellipse fill="white" stroke="black" cx="150" cy="-99" rx="27" ry="18"/>
<text text-anchor="middle" x="150" y="-96.5" font-family="Courier,monospace" font-size="10.00">Sex</text>
</g>
<!-- USER_Sex&#45;&#45;USER -->
<g id="edge7" class="edge"><title>USER_Sex&#45;&#45;USER</title>
<path fill="none" stroke="black" d="M171.567,-109.988C178.575,-114.363 186.118,-119.832 192,-126 218.022,-153.286 238.101,-193.015 248.386,-215.908"/>
</g>
<!-- USER_Contact -->
<g id="node9" class="node"><title>USER_Contact</title>
<ellipse fill="white" stroke="black" cx="150" cy="-45" rx="34.9638" ry="18"/>
<text text-anchor="middle" x="150" y="-42.5" font-family="Courier,monospace" font-size="10.00">Contact</text>
</g>
<!-- USER_Contact&#45;&#45;USER -->
<g id="edge8" class="edge"><title>USER_Contact&#45;&#45;USER</title>
<path fill="none" stroke="black" d="M175.54,-57.6622C181.519,-61.6268 187.485,-66.4438 192,-72 228.137,-116.474 245.843,-183.873 252.603,-215.888"/>
</g>
<!-- USER_Contact_Phone -->
<g id="node10" class="node"><title>USER_Contact_Phone</title>
<ellipse fill="white" stroke="black" cx="35" cy="-72" rx="34.9638" ry="18"/>
<text text-anchor="middle" x="35" y="-69.5" font-family="Courier,monospace" font-size="10.00">Phone ?</text>
</g>
<!-- USER_Contact_Phone&#45;&#45;USER_Contact -->
<g id="edge9" class="edge"><title>USER_Contact_Phone&#45;&#45;USER_Contact</title>
<path fill="none" stroke="black" d="M66.8777,-64.6221C82.8222,-60.8124 102.221,-56.1774 118.16,-52.3689"/>
</g>
<!-- USER_Contact_Email -->
<g id="node11" class="node"><title>USER_Contact_Email</title>
<ellipse fill="white" stroke="black" cx="35" cy="-18" rx="27.8353" ry="18"/>
<text text-anchor="middle" x="35" y="-15.5" font-family="Courier,monospace" font-size="10.00">Email</text>
</g>
<!-- USER_Contact_Email&#45;&#45;USER_Contact -->
<g id="edge10" class="edge"><title>USER_Contact_Email&#45;&#45;USER_Contact</title>
<path fill="none" stroke="black" d="M61.3594,-24.0593C78.1476,-28.0707 100.27,-33.3566 118.088,-37.614"/>
</g>
<!-- POST -->
<g id="node12" class="node"><title>POST</title>
<polygon fill="white" stroke="black" points="604,-378 550,-378 550,-342 604,-342 604,-378"/>
<text text-anchor="middle" x="577" y="-357.5" font-family="Courier,monospace" font-size="10.00">POST</text>
</g>
<!-- HAS -->
<g id="node24" class="node"><title>HAS</title>
<polygon fill="white" stroke="black" points="687,-268.161 657.665,-250 687,-231.839 716.335,-250 687,-268.161"/>
<polygon fill="none" stroke="black" points="687,-272.905 650.002,-250 687,-227.095 723.998,-250 687,-272.905"/>
<text text-anchor="middle" x="687" y="-247.5" font-family="Courier,monospace" font-size="10.00">HAS</text>
</g>
<!-- POST&#45;&#45;HAS -->
<g id="edge24" class="edge"><title>POST&#45;&#45;HAS</title>
<path fill="none" stroke="black" d="M593.167,-341.689C606.909,-325.45 628.007,-301.372 648,-282 654.937,-275.278 663.078,-268.313 670.041,-262.604"/>
<text text-anchor="middle" x="626" y="-309" font-family="Courier,monospace" font-size="10.00">1</text>
</g>
<!-- POST_Num -->
<g id="node13" class="node"><title>POST_Num</title>
<ellipse fill="white" stroke="black" cx="377" cy="-526" rx="27" ry="18"/>
<text text-anchor="start" x="367.5" y="-524.5" font-family="Courier,monospace" text-decoration="underline" font-size="10.00">Num</text>
</g>
<!-- POST_Num&#45;&#45;POST -->
<g id="edge11" class="edge"><title>POST_Num&#45;&#45;POST</title>
<path fill="none" stroke="black" d="M400.839,-517.17C433.265,-503.715 493.029,-475.419 532,-436 548.614,-419.195 561.24,-394.878 568.616,-378.307"/>
</g>
<!-- POST_Creation -->
<g id="node14" class="node"><title>POST_Creation</title>
<ellipse fill="white" stroke="black" cx="377" cy="-472" rx="38.0276" ry="18"/>
<text text-anchor="middle" x="377" y="-469.5" font-family="Courier,monospace" font-size="10.00">Creation</text>
</g>
<!-- POST_Creation&#45;&#45;POST -->
<g id="edge12" class="edge"><title>POST_Creation&#45;&#45;POST</title>
<path fill="none" stroke="black" d="M407.764,-461.183C439.844,-448.834 491.715,-426.832 532,-400 541.451,-393.705 550.904,-385.434 558.612,-378.048"/>
</g>
<!-- POST_Content -->
<g id="node15" class="node"><title>POST_Content</title>
<ellipse fill="white" stroke="black" cx="377" cy="-418" rx="34.9638" ry="18"/>
<text text-anchor="middle" x="377" y="-415.5" font-family="Courier,monospace" font-size="10.00">Content</text>
</g>
<!-- POST_Content&#45;&#45;POST -->
<g id="edge13" class="edge"><title>POST_Content&#45;&#45;POST</title>
<path fill="none" stroke="black" d="M407.887,-409.745C438.971,-401.093 489.009,-386.978 532,-374 537.832,-372.239 544.08,-370.29 549.982,-368.42"/>
</g>
<!-- POST_HashTag -->
<g id="node16" class="node"><title>POST_HashTag</title>
<ellipse fill="white" stroke="black" cx="377" cy="-360" rx="34.9396" ry="18"/>
<ellipse fill="none" stroke="black" cx="377" cy="-360" rx="38.9636" ry="22"/>
<text text-anchor="middle" x="377" y="-357.5" font-family="Courier,monospace" font-size="10.00">HashTag</text>
</g>
<!-- POST_HashTag&#45;&#45;POST -->
<g id="edge14" class="edge"><title>POST_HashTag&#45;&#45;POST</title>
<path fill="none" stroke="black" d="M416.176,-360C455.508,-360 515.752,-360 549.937,-360"/>
</g>
<!-- FOLLOWS&#45;&#45;USER -->
<g id="edge16" class="edge"><title>FOLLOWS&#45;&#45;USER</title>
<path fill="none" stroke="black" d="M356.804,-291.303C348.005,-286.374 337.453,-280.426 328,-275 313.465,-266.656 297.317,-257.21 284.197,-249.49"/>
<text text-anchor="middle" x="306" y="-266" font-family="Courier,monospace" font-size="10.00">N</text>
</g>
<!-- WRITES&#45;&#45;POST -->
<g id="edge18" class="edge"><title>WRITES&#45;&#45;POST</title>
<path fill="none" stroke="black" d="M397.222,-256.5C406.19,-261.54 417.156,-267.71 426.983,-273.258 470.515,-297.836 521.085,-326.52 550.987,-343.494"/>
<path fill="none" stroke="none" d="M396.242,-258.243C405.21,-263.283 416.175,-269.453 426,-275 469.528,-299.575 520.099,-328.26 550,-345.234"/>
<path fill="none" stroke="black" d="M395.262,-259.987C404.229,-265.026 415.195,-271.196 425.017,-276.742 468.542,-301.315 519.112,-329.999 549.012,-346.973"/>
<text text-anchor="middle" x="488" y="-336" font-family="Courier,monospace" font-size="10.00">N</text>
</g>
<!-- LIKES&#45;&#45;POST -->
<g id="edge20" class="edge"><title>LIKES&#45;&#45;POST</title>
<path fill="none" stroke="black" d="M402.001,-200.673C435.008,-210.922 494.567,-233.398 532,-271 552.065,-291.156 564.543,-322.302 570.879,-341.898"/>
<text text-anchor="middle" x="488" y="-274" font-family="Courier,monospace" font-size="10.00">N</text>
</g>
<!-- COMMENT -->
<g id="node20" class="node"><title>COMMENT</title>
<polygon fill="white" stroke="black" points="833.5,-327 774.5,-327 774.5,-291 833.5,-291 833.5,-327"/>
<polygon fill="none" stroke="black" points="837.5,-331 770.5,-331 770.5,-287 837.5,-287 837.5,-331"/>
<text text-anchor="middle" x="804" y="-306.5" font-family="Courier,monospace" font-size="10.00">COMMENT</text>
</g>
<!-- COMMENT_Order -->
<g id="node21" class="node"><title>COMMENT_Order</title>
<ellipse fill="white" stroke="black" cx="687" cy="-417" rx="27.8353" ry="18"/>
<text text-anchor="start" x="671.5" y="-415.5" font-family="Courier,monospace" text-decoration="underline" font-size="10.00">Order</text>
</g>
<!-- COMMENT_Order&#45;&#45;COMMENT -->
<g id="edge21" class="edge"><title>COMMENT_Order&#45;&#45;COMMENT</title>
<path fill="none" stroke="black" d="M707.097,-404.507C713.318,-400.158 720.13,-395.089 726,-390 747.258,-371.571 769.137,-348.033 784.114,-331.085"/>
</g>
<!-- COMMENT_Text -->
<g id="node22" class="node"><title>COMMENT_Text</title>
<ellipse fill="white" stroke="black" cx="687" cy="-363" rx="27" ry="18"/>
<text text-anchor="middle" x="687" y="-360.5" font-family="Courier,monospace" font-size="10.00">Text</text>
</g>
<!-- COMMENT_Text&#45;&#45;COMMENT -->
<g id="edge22" class="edge"><title>COMMENT_Text&#45;&#45;COMMENT</title>
<path fill="none" stroke="black" d="M709.631,-352.843C726.677,-344.838 750.727,-333.546 770.149,-324.426"/>
</g>
<!-- COMMENT_Creation -->
<g id="node23" class="node"><title>COMMENT_Creation</title>
<ellipse fill="white" stroke="black" cx="687" cy="-309" rx="38.0276" ry="18"/>
<text text-anchor="middle" x="687" y="-306.5" font-family="Courier,monospace" font-size="10.00">Creation</text>
</g>
<!-- COMMENT_Creation&#45;&#45;COMMENT -->
<g id="edge23" class="edge"><title>COMMENT_Creation&#45;&#45;COMMENT</title>
<path fill="none" stroke="black" d="M725.337,-309C739.897,-309 756.432,-309 770.491,-309"/>
</g>
<!-- HAS&#45;&#45;COMMENT -->
<g id="edge25" class="edge"><title>HAS&#45;&#45;COMMENT</title>
<path fill="none" stroke="black" d="M708.682,-258.363C725.893,-267.193 751.178,-280.165 771.369,-290.524"/>
<path fill="none" stroke="none" d="M707.769,-260.142C724.98,-268.972 750.265,-281.945 770.456,-292.304"/>
<path fill="none" stroke="black" d="M706.856,-261.922C724.067,-270.752 749.352,-283.724 769.543,-294.083"/>
<text text-anchor="middle" x="748" y="-284" font-family="Courier,monospace" font-size="10.00">N</text>
</g>
<!-- REACTS&#45;&#45;COMMENT -->
<g id="edge27" class="edge"><title>REACTS&#45;&#45;COMMENT</title>
<path fill="none" stroke="black" d="M528.079,-161.787C577.618,-165.644 663.933,-177.771 727.046,-216.295 755.476,-233.906 778.275,-264.562 791.727,-285.645"/>
<path fill="none" stroke="none" d="M527.924,-163.781C577.34,-167.624 663.655,-179.752 726,-218 753.872,-235.099 776.67,-265.755 790.041,-286.721"/>
<path fill="none" stroke="black" d="M527.769,-165.775C577.062,-169.605 663.377,-181.732 724.954,-219.705 752.267,-236.293 775.065,-266.949 788.354,-287.796"/>
<text text-anchor="middle" x="626" y="-183" font-family="Courier,monospace" font-size="10.00">N</text>
</g>
</g>
</svg>
