<?xml version="1.0" encoding="UTF-8" standalone="no"?>
<!DOCTYPE svg PUBLIC "-//W3C//DTD SVG 1.1//EN"
 "http://www.w3.org/Graphics/SVG/1.1/DTD/svg11.dtd">
<!-- Generated by graphviz version 2.36.0 (20140111.2315)
 -->
<!-- Title: %3 Pages: 1 -->
<svg width="272pt" height="296pt"
 viewBox="0.00 0.00 272.00 296.00" xmlns="http://www.w3.org/2000/svg" xmlns:xlink="http://www.w3.org/1999/xlink">
<g id="graph0" class="graph" transform="scale(1 1) rotate(0) translate(4 292)">
<title>%3</title>
<polygon fill="white" stroke="none" points="-4,4 -4,-292 268,-292 268,4 -4,4"/>
<!-- USER -->
<g id="node1" class="node"><title>USER</title>
<polygon fill="white" stroke="none" points="264,-230.5 210,-230.5 210,-153.5 264,-153.5 264,-230.5"/>
<polygon fill="none" stroke="black" points="218,-208 218,-226 256,-226 256,-208 218,-208"/>
<text text-anchor="start" x="221" y="-215.5" font-family="Courier,monospace" font-weight="bold" font-size="10.00">USER</text>
<polygon fill="none" stroke="black" points="218,-191 218,-208 256,-208 256,-191 218,-191"/>
<text text-anchor="start" x="221" y="-198" font-family="Courier,monospace" text-decoration="underline" font-size="10.00">Login</text>
<polygon fill="none" stroke="black" points="218,-174 218,-191 256,-191 256,-174 218,-174"/>
<text text-anchor="start" x="221" y="-180" font-family="Courier,monospace" font-size="10.00">Name</text>
<polygon fill="none" stroke="black" points="218,-157 218,-174 256,-174 256,-157 218,-157"/>
<text text-anchor="start" x="221" y="-163" font-family="Courier,monospace" font-size="10.00">Email</text>
</g>
<!-- FOLLOWS -->
<g id="node2" class="node"><title>FOLLOWS</title>
<polygon fill="white" stroke="none" points="174,-288 102,-288 102,-228 174,-228 174,-288"/>
<polygon fill="none" stroke="black" points="110,-266 110,-284 166,-284 166,-266 110,-266"/>
<text text-anchor="start" x="113" y="-273.5" font-family="Courier,monospace" font-weight="bold" font-size="10.00">FOLLOWS</text>
<polygon fill="none" stroke="black" points="110,-249 110,-266 166,-266 166,-249 110,-249"/>
<text text-anchor="start" x="113" y="-256" font-family="Courier,monospace" text-decoration="underline" font-size="10.00">Followed</text>
<polygon fill="none" stroke="black" points="110,-232 110,-249 166,-249 166,-232 110,-232"/>
<text text-anchor="start" x="113" y="-239" font-family="Courier,monospace" text-decoration="underline" font-size="10.00">Follower</text>
</g>
<!-- FOLLOWS&#45;&gt;USER -->
<g id="edge1" class="edge"><title>FOLLOWS:Followed&#45;&gt;USER:Login</title>
<path fill="none" stroke="black" d="M167,-257C196.75,-257 186.677,-212.577 207.093,-202.165"/>
<polygon fill="black" stroke="black" points="207.978,-205.554 217,-200 206.483,-198.716 207.978,-205.554"/>
</g>
<!-- FOLLOWS&#45;&gt;USER -->
<g id="edge2" class="edge"><title>FOLLOWS:Follower&#45;&gt;USER:Login</title>
<path fill="none" stroke="black" d="M167,-240C191.456,-240 189.787,-210.459 206.896,-202.151"/>
<polygon fill="black" stroke="black" points="207.948,-205.505 217,-200 206.49,-198.659 207.948,-205.505"/>
</g>
<!-- POST -->
<g id="node3" class="node"><title>POST</title>
<polygon fill="white" stroke="none" points="168,-171.5 108,-171.5 108,-94.5 168,-94.5 168,-171.5"/>
<polygon fill="none" stroke="black" points="116,-149 116,-167 160,-167 160,-149 116,-149"/>
<text text-anchor="start" x="119" y="-156.5" font-family="Courier,monospace" font-weight="bold" font-size="10.00">POST</text>
<polygon fill="none" stroke="black" points="116,-132 116,-149 160,-149 160,-132 116,-132"/>
<text text-anchor="start" x="119" y="-139" font-family="Courier,monospace" text-decoration="underline" font-size="10.00">Id</text>
<polygon fill="none" stroke="black" points="116,-115 116,-132 160,-132 160,-115 116,-115"/>
<text text-anchor="start" x="119" y="-121" font-family="Courier,monospace" font-size="10.00">Author</text>
<polygon fill="none" stroke="black" points="116,-98 116,-115 160,-115 160,-98 116,-98"/>
<text text-anchor="start" x="119" y="-104" font-family="Courier,monospace" font-size="10.00">Text</text>
</g>
<!-- POST&#45;&gt;USER -->
<g id="edge3" class="edge"><title>POST:Author&#45;&gt;USER:Login</title>
<path fill="none" stroke="black" d="M161,-123C199.349,-123 179.429,-186.239 206.852,-198.097"/>
<polygon fill="black" stroke="black" points="206.526,-201.596 217,-200 207.817,-194.716 206.526,-201.596"/>
</g>
<!-- HASHTAG -->
<g id="node4" class="node"><title>HASHTAG</title>
<polygon fill="white" stroke="none" points="66,-172 0,-172 0,-112 66,-112 66,-172"/>
<polygon fill="none" stroke="black" points="8,-150 8,-168 58,-168 58,-150 8,-150"/>
<text text-anchor="start" x="11" y="-157.5" font-family="Courier,monospace" font-weight="bold" font-size="10.00">HASHTAG</text>
<polygon fill="none" stroke="black" points="8,-133 8,-150 58,-150 58,-133 8,-133"/>
<text text-anchor="start" x="11" y="-140" font-family="Courier,monospace" text-decoration="underline" font-size="10.00">Post</text>
<polygon fill="none" stroke="black" points="8,-116 8,-133 58,-133 58,-116 8,-116"/>
<text text-anchor="start" x="11" y="-123" font-family="Courier,monospace" text-decoration="underline" font-size="10.00">HashTag</text>
</g>
<!-- HASHTAG&#45;&gt;POST -->
<g id="edge4" class="edge"><title>HASHTAG:Post&#45;&gt;POST:Id</title>
<path fill="none" stroke="black" d="M59,-141C80,-141 87.7109,-141 104.558,-141"/>
<polygon fill="black" stroke="black" points="105,-144.5 115,-141 105,-137.5 105,-144.5"/>
</g>
<!-- LIKES -->
<g id="node5" class="node"><title>LIKES</title>
<polygon fill="white" stroke="none" points="60,-250 6,-250 6,-190 60,-190 60,-250"/>
<polygon fill="none" stroke="black" points="14,-228 14,-246 52,-246 52,-228 14,-228"/>
<text text-anchor="start" x="17" y="-235.5" font-family="Courier,monospace" font-weight="bold" font-size="10.00">LIKES</text>
<polygon fill="none" stroke="black" points="14,-211 14,-228 52,-228 52,-211 14,-211"/>
<text text-anchor="start" x="17" y="-218" font-family="Courier,monospace" text-decoration="underline" font-size="10.00">User</text>
<polygon fill="none" stroke="black" points="14,-194 14,-211 52,-211 52,-194 14,-194"/>
<text text-anchor="start" x="17" y="-201" font-family="Courier,monospace" text-decoration="underline" font-size="10.00">Post</text>
</g>
<!-- LIKES&#45;&gt;USER -->
<g id="edge5" class="edge"><title>LIKES:User&#45;&gt;USER:Login</title>
<path fill="none" stroke="black" d="M53,-219C122.794,-219 141.805,-201.81 206.64,-200.131"/>
<polygon fill="black" stroke="black" points="207.045,-203.627 217,-200 206.956,-196.627 207.045,-203.627"/>
</g>
<!-- LIKES&#45;&gt;POST -->
<g id="edge6" class="edge"><title>LIKES:Post&#45;&gt;POST:Id</title>
<path fill="none" stroke="black" d="M53,-202C87.8814,-202 78.8197,-152.332 105.118,-142.632"/>
<polygon fill="black" stroke="black" points="105.704,-146.082 115,-141 104.563,-139.176 105.704,-146.082"/>
</g>
<!-- COMMENT -->
<g id="node6" class="node"><title>COMMENT</title>
<polygon fill="white" stroke="none" points="66,-94 0,-94 0,-0 66,-0 66,-94"/>
<polygon fill="none" stroke="black" points="8,-72 8,-90 58,-90 58,-72 8,-72"/>
<text text-anchor="start" x="11" y="-79.5" font-family="Courier,monospace" font-weight="bold" font-size="10.00">COMMENT</text>
<polygon fill="none" stroke="black" points="8,-55 8,-72 58,-72 58,-55 8,-55"/>
<text text-anchor="start" x="11" y="-62" font-family="Courier,monospace" text-decoration="underline" font-size="10.00">Post</text>
<polygon fill="none" stroke="black" points="8,-38 8,-55 58,-55 58,-38 8,-38"/>
<text text-anchor="start" x="11" y="-45" font-family="Courier,monospace" text-decoration="underline" font-size="10.00">Order</text>
<polygon fill="none" stroke="black" points="8,-21 8,-38 58,-38 58,-21 8,-21"/>
<text text-anchor="start" x="11" y="-27" font-family="Courier,monospace" font-size="10.00">Author</text>
<polygon fill="none" stroke="black" points="8,-4 8,-21 58,-21 58,-4 8,-4"/>
<text text-anchor="start" x="11" y="-10" font-family="Courier,monospace" font-size="10.00">Text</text>
</g>
<!-- COMMENT&#45;&gt;USER -->
<g id="edge8" class="edge"><title>COMMENT:Author&#45;&gt;USER:Login</title>
<path fill="none" stroke="black" d="M59,-29C115.849,-29 135.763,-42.9318 174,-85 208.122,-122.54 168.801,-189.676 206.95,-198.931"/>
<polygon fill="black" stroke="black" points="206.686,-202.423 217,-200 207.426,-195.462 206.686,-202.423"/>
</g>
<!-- COMMENT&#45;&gt;POST -->
<g id="edge7" class="edge"><title>COMMENT:Post&#45;&gt;POST:Id</title>
<path fill="none" stroke="black" d="M59,-64C97.3486,-64 77.4291,-127.239 104.852,-139.097"/>
<polygon fill="black" stroke="black" points="104.526,-142.596 115,-141 105.817,-135.716 104.526,-142.596"/>
</g>
</g>
</svg>
