<?xml version="1.0" encoding="UTF-8" standalone="no"?>
<!DOCTYPE svg PUBLIC "-//W3C//DTD SVG 1.1//EN"
 "http://www.w3.org/Graphics/SVG/1.1/DTD/svg11.dtd">
<!-- Generated by graphviz version 2.40.1 (20161225.0304)
 -->
<!-- Title: %3 Pages: 1 -->
<svg width="270pt" height="292pt"
 viewBox="0.00 0.00 270.00 292.00" xmlns="http://www.w3.org/2000/svg" xmlns:xlink="http://www.w3.org/1999/xlink">
<g id="graph0" class="graph" transform="scale(1 1) rotate(0) translate(4 288)">
<title>%3</title>
<polygon fill="#ffffff" stroke="transparent" points="-4,4 -4,-288 266,-288 266,4 -4,4"/>
<!-- USER -->
<g id="node1" class="node">
<title>USER</title>
<polygon fill="#ffffff" stroke="transparent" points="262,-225.5 208,-225.5 208,-149.5 262,-149.5 262,-225.5"/>
<polygon fill="none" stroke="#000000" points="217,-204.5 217,-221.5 254,-221.5 254,-204.5 217,-204.5"/>
<text text-anchor="start" x="220" y="-211.5" font-family="Courier,monospace" font-weight="bold" font-size="10.00" fill="#000000">USER</text>
<polygon fill="none" stroke="#000000" points="217,-187.5 217,-204.5 254,-204.5 254,-187.5 217,-187.5"/>
<text text-anchor="start" x="220" y="-194.5" font-family="Courier,monospace" text-decoration="underline" font-size="10.00" fill="#000000">Login</text>
<polygon fill="none" stroke="#000000" points="217,-170.5 217,-187.5 254,-187.5 254,-170.5 217,-170.5"/>
<text text-anchor="start" x="220" y="-176.5" font-family="Courier,monospace" font-size="10.00" fill="#000000">Name</text>
<polygon fill="none" stroke="#000000" points="217,-153.5 217,-170.5 254,-170.5 254,-153.5 217,-153.5"/>
<text text-anchor="start" x="220" y="-159.5" font-family="Courier,monospace" font-size="10.00" fill="#000000">Email</text>
</g>
<!-- FOLLOWS -->
<g id="node2" class="node">
<title>FOLLOWS</title>
<polygon fill="#ffffff" stroke="transparent" points="172,-284 101,-284 101,-225 172,-225 172,-284"/>
<polygon fill="none" stroke="#000000" points="109.5,-262.5 109.5,-279.5 164.5,-279.5 164.5,-262.5 109.5,-262.5"/>
<text text-anchor="start" x="112.5" y="-269.5" font-family="Courier,monospace" font-weight="bold" font-size="10.00" fill="#000000">FOLLOWS</text>
<polygon fill="none" stroke="#000000" points="109.5,-245.5 109.5,-262.5 164.5,-262.5 164.5,-245.5 109.5,-245.5"/>
<text text-anchor="start" x="112.5" y="-252.5" font-family="Courier,monospace" text-decoration="underline" font-size="10.00" fill="#000000">Followed</text>
<polygon fill="none" stroke="#000000" points="109.5,-228.5 109.5,-245.5 164.5,-245.5 164.5,-228.5 109.5,-228.5"/>
<text text-anchor="start" x="112.5" y="-235.5" font-family="Courier,monospace" text-decoration="underline" font-size="10.00" fill="#000000">Follower</text>
</g>
<!-- FOLLOWS&#45;&gt;USER -->
<g id="edge1" class="edge">
<title>FOLLOWS:Followed&#45;&gt;USER:Login</title>
<path fill="none" stroke="#000000" d="M164.5,-253.5C195.04,-253.5 185.618,-208.6826 207.1041,-198.5287"/>
<polygon fill="#000000" stroke="#000000" points="207.9066,-201.937 217,-196.5 206.5008,-195.0796 207.9066,-201.937"/>
</g>
<!-- FOLLOWS&#45;&gt;USER -->
<g id="edge2" class="edge">
<title>FOLLOWS:Follower&#45;&gt;USER:Login</title>
<path fill="none" stroke="#000000" d="M164.5,-236.5C189.9382,-236.5 188.6781,-206.4194 207.0245,-198.4293"/>
<polygon fill="#000000" stroke="#000000" points="207.8466,-201.8352 217,-196.5 206.5173,-194.9626 207.8466,-201.8352"/>
</g>
<!-- POST -->
<g id="node3" class="node">
<title>POST</title>
<polygon fill="#ffffff" stroke="transparent" points="166,-168.5 107,-168.5 107,-92.5 166,-92.5 166,-168.5"/>
<polygon fill="none" stroke="#000000" points="115.5,-147.5 115.5,-164.5 158.5,-164.5 158.5,-147.5 115.5,-147.5"/>
<text text-anchor="start" x="118.5" y="-154.5" font-family="Courier,monospace" font-weight="bold" font-size="10.00" fill="#000000">POST</text>
<polygon fill="none" stroke="#000000" points="115.5,-130.5 115.5,-147.5 158.5,-147.5 158.5,-130.5 115.5,-130.5"/>
<text text-anchor="start" x="118.5" y="-137.5" font-family="Courier,monospace" text-decoration="underline" font-size="10.00" fill="#000000">Id</text>
<polygon fill="none" stroke="#000000" points="115.5,-113.5 115.5,-130.5 158.5,-130.5 158.5,-113.5 115.5,-113.5"/>
<text text-anchor="start" x="118.5" y="-119.5" font-family="Courier,monospace" font-size="10.00" fill="#000000">Author</text>
<polygon fill="none" stroke="#000000" points="115.5,-96.5 115.5,-113.5 158.5,-113.5 158.5,-96.5 115.5,-96.5"/>
<text text-anchor="start" x="118.5" y="-102.5" font-family="Courier,monospace" font-size="10.00" fill="#000000">Text</text>
</g>
<!-- POST&#45;&gt;USER -->
<g id="edge3" class="edge">
<title>POST:Author&#45;&gt;USER:Login</title>
<path fill="none" stroke="#000000" d="M158.5,-121.5C196.811,-121.5 179.0094,-183.0967 206.7993,-194.6461"/>
<polygon fill="#000000" stroke="#000000" points="206.5353,-198.1553 217,-196.5 207.7871,-191.2682 206.5353,-198.1553"/>
</g>
<!-- HASHTAG -->
<g id="node4" class="node">
<title>HASHTAG</title>
<polygon fill="#ffffff" stroke="transparent" points="65,-170 0,-170 0,-111 65,-111 65,-170"/>
<polygon fill="none" stroke="#000000" points="8.5,-148.5 8.5,-165.5 57.5,-165.5 57.5,-148.5 8.5,-148.5"/>
<text text-anchor="start" x="11.5" y="-155.5" font-family="Courier,monospace" font-weight="bold" font-size="10.00" fill="#000000">HASHTAG</text>
<polygon fill="none" stroke="#000000" points="8.5,-131.5 8.5,-148.5 57.5,-148.5 57.5,-131.5 8.5,-131.5"/>
<text text-anchor="start" x="11.5" y="-138.5" font-family="Courier,monospace" text-decoration="underline" font-size="10.00" fill="#000000">Post</text>
<polygon fill="none" stroke="#000000" points="8.5,-114.5 8.5,-131.5 57.5,-131.5 57.5,-114.5 8.5,-114.5"/>
<text text-anchor="start" x="11.5" y="-121.5" font-family="Courier,monospace" text-decoration="underline" font-size="10.00" fill="#000000">HashTag</text>
</g>
<!-- HASHTAG&#45;&gt;POST -->
<g id="edge4" class="edge">
<title>HASHTAG:Post&#45;&gt;POST:Id</title>
<path fill="none" stroke="#000000" d="M57.5,-139.5C79.4514,-139.5 87.383,-139.5 105.1723,-139.5"/>
<polygon fill="#000000" stroke="#000000" points="105.5,-143.0001 115.5,-139.5 105.5,-136.0001 105.5,-143.0001"/>
</g>
<!-- LIKES -->
<g id="node5" class="node">
<title>LIKES</title>
<polygon fill="#ffffff" stroke="transparent" points="59.5,-247 5.5,-247 5.5,-188 59.5,-188 59.5,-247"/>
<polygon fill="none" stroke="#000000" points="14.5,-225.5 14.5,-242.5 51.5,-242.5 51.5,-225.5 14.5,-225.5"/>
<text text-anchor="start" x="17.5" y="-232.5" font-family="Courier,monospace" font-weight="bold" font-size="10.00" fill="#000000">LIKES</text>
<polygon fill="none" stroke="#000000" points="14.5,-208.5 14.5,-225.5 51.5,-225.5 51.5,-208.5 14.5,-208.5"/>
<text text-anchor="start" x="17.5" y="-215.5" font-family="Courier,monospace" text-decoration="underline" font-size="10.00" fill="#000000">User</text>
<polygon fill="none" stroke="#000000" points="14.5,-191.5 14.5,-208.5 51.5,-208.5 51.5,-191.5 14.5,-191.5"/>
<text text-anchor="start" x="17.5" y="-198.5" font-family="Courier,monospace" text-decoration="underline" font-size="10.00" fill="#000000">Post</text>
</g>
<!-- LIKES&#45;&gt;USER -->
<g id="edge5" class="edge">
<title>LIKES:User&#45;&gt;USER:Login</title>
<path fill="none" stroke="#000000" d="M51.5,-216.5C122.1177,-216.5 141.1609,-198.3311 206.9435,-196.6277"/>
<polygon fill="#000000" stroke="#000000" points="207.0453,-200.1268 217,-196.5 206.9563,-193.1274 207.0453,-200.1268"/>
</g>
<!-- LIKES&#45;&gt;POST -->
<g id="edge6" class="edge">
<title>LIKES:Post&#45;&gt;POST:Id</title>
<path fill="none" stroke="#000000" d="M51.5,-199.5C86.6821,-199.5 78.7355,-150.6465 105.494,-141.1049"/>
<polygon fill="#000000" stroke="#000000" points="106.1805,-144.5396 115.5,-139.5 105.0719,-137.6279 106.1805,-144.5396"/>
</g>
<!-- COMMENT -->
<g id="node6" class="node">
<title>COMMENT</title>
<polygon fill="#ffffff" stroke="transparent" points="65,-93 0,-93 0,0 65,0 65,-93"/>
<polygon fill="none" stroke="#000000" points="8.5,-71.5 8.5,-88.5 57.5,-88.5 57.5,-71.5 8.5,-71.5"/>
<text text-anchor="start" x="11.5" y="-78.5" font-family="Courier,monospace" font-weight="bold" font-size="10.00" fill="#000000">COMMENT</text>
<polygon fill="none" stroke="#000000" points="8.5,-54.5 8.5,-71.5 57.5,-71.5 57.5,-54.5 8.5,-54.5"/>
<text text-anchor="start" x="11.5" y="-61.5" font-family="Courier,monospace" text-decoration="underline" font-size="10.00" fill="#000000">Post</text>
<polygon fill="none" stroke="#000000" points="8.5,-37.5 8.5,-54.5 57.5,-54.5 57.5,-37.5 8.5,-37.5"/>
<text text-anchor="start" x="11.5" y="-44.5" font-family="Courier,monospace" text-decoration="underline" font-size="10.00" fill="#000000">Order</text>
<polygon fill="none" stroke="#000000" points="8.5,-20.5 8.5,-37.5 57.5,-37.5 57.5,-20.5 8.5,-20.5"/>
<text text-anchor="start" x="11.5" y="-26.5" font-family="Courier,monospace" font-size="10.00" fill="#000000">Author</text>
<polygon fill="none" stroke="#000000" points="8.5,-3.5 8.5,-20.5 57.5,-20.5 57.5,-3.5 8.5,-3.5"/>
<text text-anchor="start" x="11.5" y="-9.5" font-family="Courier,monospace" font-size="10.00" fill="#000000">Text</text>
</g>
<!-- COMMENT&#45;&gt;USER -->
<g id="edge8" class="edge">
<title>COMMENT:Author&#45;&gt;USER:Login</title>
<path fill="none" stroke="#000000" d="M57.5,-28.5C113.9554,-28.5 133.4771,-42.2302 172,-83.5 206.2934,-120.2388 168.9935,-186.3344 207.0168,-195.4475"/>
<polygon fill="#000000" stroke="#000000" points="206.6881,-198.9322 217,-196.5 207.4221,-191.9707 206.6881,-198.9322"/>
</g>
<!-- COMMENT&#45;&gt;POST -->
<g id="edge7" class="edge">
<title>COMMENT:Post&#45;&gt;POST:Id</title>
<path fill="none" stroke="#000000" d="M57.5,-63.5C96.1729,-63.5 77.297,-126.4572 105.629,-137.7698"/>
<polygon fill="#000000" stroke="#000000" points="105.0459,-141.2209 115.5,-139.5 106.2544,-134.326 105.0459,-141.2209"/>
</g>
</g>
</svg>
