<?xml version="1.0" encoding="UTF-8" standalone="no"?>
<!DOCTYPE svg PUBLIC "-//W3C//DTD SVG 1.1//EN"
 "http://www.w3.org/Graphics/SVG/1.1/DTD/svg11.dtd">
<!-- Generated by graphviz version 2.36.0 (20140111.2315)
 -->
<!-- Title: %3 Pages: 1 -->
<svg width="706pt" height="341pt"
 viewBox="0.00 0.00 706.00 341.27" xmlns="http://www.w3.org/2000/svg" xmlns:xlink="http://www.w3.org/1999/xlink">
<g id="graph0" class="graph" transform="scale(1 1) rotate(0) translate(4 337.27)">
<title>%3</title>
<polygon fill="white" stroke="none" points="-4,4 -4,-337.27 702,-337.27 702,4 -4,4"/>
<!-- USER -->
<g id="node1" class="node"><title>USER</title>
<polygon fill="white" stroke="black" points="148,-95.2696 94,-95.2696 94,-59.2696 148,-59.2696 148,-95.2696"/>
<text text-anchor="middle" x="121" y="-74.7696" font-family="Courier,monospace" font-size="10.00">USER</text>
</g>
<!-- FOLLOWS -->
<g id="node9" class="node"><title>FOLLOWS</title>
<polygon fill="white" stroke="black" points="241,-163.27 191.765,-145.27 241,-127.27 290.235,-145.27 241,-163.27"/>
<text text-anchor="middle" x="241" y="-142.77" font-family="Courier,monospace" font-size="10.00">FOLLOWS</text>
</g>
<!-- USER&#45;&#45;FOLLOWS -->
<g id="edge7" class="edge"><title>USER&#45;&#45;FOLLOWS</title>
<path fill="none" stroke="black" d="M135.703,-95.6502C143.616,-105.111 154.305,-116.127 166,-123.27 178.582,-130.954 194.014,-136.097 207.524,-139.463"/>
<text text-anchor="middle" x="170" y="-131.27" font-family="Courier,monospace" font-size="10.00">M</text>
</g>
<!-- WRITES -->
<g id="node10" class="node"><title>WRITES</title>
<polygon fill="white" stroke="black" points="241,-109.27 196.755,-91.2696 241,-73.2696 285.245,-91.2696 241,-109.27"/>
<text text-anchor="middle" x="241" y="-88.7696" font-family="Courier,monospace" font-size="10.00">WRITES</text>
</g>
<!-- USER&#45;&#45;WRITES -->
<g id="edge9" class="edge"><title>USER&#45;&#45;WRITES</title>
<path fill="none" stroke="black" d="M148.243,-76.8803C156.505,-76.9971 165.651,-77.374 174,-78.2696 186.773,-79.6396 200.755,-82.2325 212.549,-84.7444"/>
<text text-anchor="middle" x="170" y="-81.2696" font-family="Courier,monospace" font-size="10.00">1</text>
</g>
<!-- LIKES -->
<g id="node11" class="node"><title>LIKES</title>
<polygon fill="white" stroke="black" points="241,-55.2696 201.745,-37.2696 241,-19.2696 280.255,-37.2696 241,-55.2696"/>
<text text-anchor="middle" x="241" y="-34.7696" font-family="Courier,monospace" font-size="10.00">LIKES</text>
</g>
<!-- USER&#45;&#45;LIKES -->
<g id="edge11" class="edge"><title>USER&#45;&#45;LIKES</title>
<path fill="none" stroke="black" d="M148.188,-68.3923C169.101,-61.3032 198.077,-51.4806 217.848,-44.7786"/>
<text text-anchor="middle" x="170" y="-65.2696" font-family="Courier,monospace" font-size="10.00">M</text>
</g>
<!-- REACTS -->
<g id="node16" class="node"><title>REACTS</title>
<polygon fill="white" stroke="black" points="352,-59.2696 307.755,-41.2696 352,-23.2696 396.245,-41.2696 352,-59.2696"/>
<text text-anchor="middle" x="352" y="-38.7696" font-family="Courier,monospace" font-size="10.00">REACTS</text>
</g>
<!-- USER&#45;&#45;REACTS -->
<g id="edge17" class="edge"><title>USER&#45;&#45;REACTS</title>
<path fill="none" stroke="black" d="M134.551,-59.0618C146.98,-42.7872 167.646,-20.0463 192,-10.2696 232.42,5.95693 247.643,-0.124062 290,-10.2696 306.058,-14.1158 322.662,-22.9245 334.485,-30.1729"/>
<text text-anchor="middle" x="170" y="-29.2696" font-family="Courier,monospace" font-size="10.00">1</text>
</g>
<!-- USER_Login -->
<g id="node2" class="node"><title>USER_Login</title>
<ellipse fill="white" stroke="black" cx="28" cy="-131.27" rx="27.8353" ry="18"/>
<text text-anchor="start" x="12.5" y="-129.77" font-family="Courier,monospace" text-decoration="underline" font-size="10.00">Login</text>
</g>
<!-- USER_Login&#45;&#45;USER -->
<g id="edge1" class="edge"><title>USER_Login&#45;&#45;USER</title>
<path fill="none" stroke="black" d="M49.1958,-119.285C62.3911,-111.455 79.7494,-101.154 93.9764,-92.7122"/>
</g>
<!-- USER_Nome -->
<g id="node3" class="node"><title>USER_Nome</title>
<ellipse fill="white" stroke="black" cx="28" cy="-77.2696" rx="27" ry="18"/>
<text text-anchor="middle" x="28" y="-74.7696" font-family="Courier,monospace" font-size="10.00">Nome</text>
</g>
<!-- USER_Nome&#45;&#45;USER -->
<g id="edge2" class="edge"><title>USER_Nome&#45;&#45;USER</title>
<path fill="none" stroke="black" d="M55.321,-77.2696C67.3941,-77.2696 81.6723,-77.2696 93.7382,-77.2696"/>
</g>
<!-- USER_Email -->
<g id="node4" class="node"><title>USER_Email</title>
<ellipse fill="white" stroke="black" cx="28" cy="-23.2696" rx="27.8353" ry="18"/>
<text text-anchor="middle" x="28" y="-20.7696" font-family="Courier,monospace" font-size="10.00">Email</text>
</g>
<!-- USER_Email&#45;&#45;USER -->
<g id="edge3" class="edge"><title>USER_Email&#45;&#45;USER</title>
<path fill="none" stroke="black" d="M49.1958,-35.2539C62.3911,-43.084 79.7494,-53.3846 93.9764,-61.8269"/>
</g>
<!-- POST -->
<g id="node5" class="node"><title>POST</title>
<polygon fill="white" stroke="black" points="468,-186.27 414,-186.27 414,-150.27 468,-150.27 468,-186.27"/>
<text text-anchor="middle" x="441" y="-165.77" font-family="Courier,monospace" font-size="10.00">POST</text>
</g>
<!-- HAS -->
<g id="node15" class="node"><title>HAS</title>
<polygon fill="white" stroke="black" points="549,-129.431 519.665,-111.27 549,-93.1082 578.335,-111.27 549,-129.431"/>
<polygon fill="none" stroke="black" points="549,-134.175 512.002,-111.27 549,-88.3643 585.998,-111.27 549,-134.175"/>
<text text-anchor="middle" x="549" y="-108.77" font-family="Courier,monospace" font-size="10.00">HAS</text>
</g>
<!-- POST&#45;&#45;HAS -->
<g id="edge15" class="edge"><title>POST&#45;&#45;HAS</title>
<path fill="none" stroke="black" d="M468.202,-154.18C486.962,-144.092 511.802,-130.735 528.752,-121.62"/>
<text text-anchor="middle" x="490" y="-146.27" font-family="Courier,monospace" font-size="10.00">1</text>
</g>
<!-- POST_Id -->
<g id="node6" class="node"><title>POST_Id</title>
<ellipse fill="white" stroke="black" cx="241" cy="-315.27" rx="27" ry="18"/>
<text text-anchor="start" x="234.5" y="-313.77" font-family="Courier,monospace" text-decoration="underline" font-size="10.00">Id</text>
</g>
<!-- POST_Id&#45;&#45;POST -->
<g id="edge4" class="edge"><title>POST_Id&#45;&#45;POST</title>
<path fill="none" stroke="black" d="M264.886,-306.489C296.841,-293.428 355.456,-266.478 396,-230.27 410.078,-217.697 422.157,-199.825 430.078,-186.496"/>
</g>
<!-- POST_Text -->
<g id="node7" class="node"><title>POST_Text</title>
<ellipse fill="white" stroke="black" cx="241" cy="-261.27" rx="27" ry="18"/>
<text text-anchor="middle" x="241" y="-258.77" font-family="Courier,monospace" font-size="10.00">Text</text>
</g>
<!-- POST_Text&#45;&#45;POST -->
<g id="edge5" class="edge"><title>POST_Text&#45;&#45;POST</title>
<path fill="none" stroke="black" d="M265.32,-253.147C296.037,-242.098 351.382,-220.971 396,-197.27 402.14,-194.008 408.513,-190.127 414.439,-186.281"/>
</g>
<!-- POST_HashTag -->
<g id="node8" class="node"><title>POST_HashTag</title>
<ellipse fill="white" stroke="black" cx="241" cy="-203.27" rx="34.9396" ry="18"/>
<ellipse fill="none" stroke="black" cx="241" cy="-203.27" rx="38.9636" ry="22"/>
<text text-anchor="middle" x="241" y="-200.77" font-family="Courier,monospace" font-size="10.00">HashTag</text>
</g>
<!-- POST_HashTag&#45;&#45;POST -->
<g id="edge6" class="edge"><title>POST_HashTag&#45;&#45;POST</title>
<path fill="none" stroke="black" d="M278.316,-196.85C317.503,-189.923 378.948,-179.062 413.717,-172.916"/>
</g>
<!-- FOLLOWS&#45;&#45;USER -->
<g id="edge8" class="edge"><title>FOLLOWS&#45;&#45;USER</title>
<path fill="none" stroke="black" d="M220.804,-134.572C212.005,-129.644 201.453,-123.696 192,-118.27 177.465,-109.926 161.317,-100.48 148.197,-92.7592"/>
<text text-anchor="middle" x="170" y="-110.27" font-family="Courier,monospace" font-size="10.00">N</text>
</g>
<!-- WRITES&#45;&#45;POST -->
<g id="edge10" class="edge"><title>WRITES&#45;&#45;POST</title>
<path fill="none" stroke="black" d="M265.053,-98.0887C301.867,-112.405 375.126,-140.895 414.403,-156.169"/>
<path fill="none" stroke="none" d="M264.328,-99.9528C301.142,-114.269 374.401,-142.759 413.678,-158.033"/>
<path fill="none" stroke="black" d="M263.603,-101.817C300.417,-116.133 373.676,-144.623 412.953,-159.897"/>
<text text-anchor="middle" x="352" y="-153.27" font-family="Courier,monospace" font-size="10.00">N</text>
</g>
<!-- LIKES&#45;&#45;POST -->
<g id="edge12" class="edge"><title>LIKES&#45;&#45;POST</title>
<path fill="none" stroke="black" d="M260.66,-46.3436C273.815,-52.6642 291.888,-61.1955 308,-68.2696 346.692,-85.2576 363.1,-77.7506 396,-104.27 411.432,-116.708 423.649,-135.965 431.255,-150.107"/>
<text text-anchor="middle" x="352" y="-107.27" font-family="Courier,monospace" font-size="10.00">N</text>
</g>
<!-- COMMENT -->
<g id="node12" class="node"><title>COMMENT</title>
<polygon fill="white" stroke="black" points="693.5,-166.27 634.5,-166.27 634.5,-130.27 693.5,-130.27 693.5,-166.27"/>
<polygon fill="none" stroke="black" points="697.5,-170.27 630.5,-170.27 630.5,-126.27 697.5,-126.27 697.5,-170.27"/>
<text text-anchor="middle" x="664" y="-145.77" font-family="Courier,monospace" font-size="10.00">COMMENT</text>
</g>
<!-- COMMENT_Order -->
<g id="node13" class="node"><title>COMMENT_Order</title>
<ellipse fill="white" stroke="black" cx="549" cy="-224.27" rx="27.8353" ry="18"/>
<text text-anchor="start" x="533.5" y="-222.77" font-family="Courier,monospace" text-decoration="underline" font-size="10.00">Order</text>
</g>
<!-- COMMENT_Order&#45;&#45;COMMENT -->
<g id="edge13" class="edge"><title>COMMENT_Order&#45;&#45;COMMENT</title>
<path fill="none" stroke="black" d="M568.914,-211.549C585.626,-200.309 610.368,-183.668 630.286,-170.272"/>
</g>
<!-- COMMENT_Text -->
<g id="node14" class="node"><title>COMMENT_Text</title>
<ellipse fill="white" stroke="black" cx="549" cy="-170.27" rx="27" ry="18"/>
<text text-anchor="middle" x="549" y="-167.77" font-family="Courier,monospace" font-size="10.00">Text</text>
</g>
<!-- COMMENT_Text&#45;&#45;COMMENT -->
<g id="edge14" class="edge"><title>COMMENT_Text&#45;&#45;COMMENT</title>
<path fill="none" stroke="black" d="M575.078,-165.387C591.334,-162.222 612.677,-158.067 630.264,-154.643"/>
</g>
<!-- HAS&#45;&#45;COMMENT -->
<g id="edge16" class="edge"><title>HAS&#45;&#45;COMMENT</title>
<path fill="none" stroke="black" d="M574.311,-117.125C590.749,-122.508 612.858,-129.747 630.965,-135.676"/>
<path fill="none" stroke="none" d="M573.689,-119.026C590.127,-124.408 612.235,-131.648 630.343,-137.577"/>
<path fill="none" stroke="black" d="M573.066,-120.927C589.504,-126.309 611.613,-133.548 629.721,-139.477"/>
<text text-anchor="middle" x="608" y="-134.27" font-family="Courier,monospace" font-size="10.00">N</text>
</g>
<!-- REACTS&#45;&#45;COMMENT -->
<g id="edge18" class="edge"><title>REACTS&#45;&#45;COMMENT</title>
<path fill="none" stroke="black" d="M396.448,-39.1724C445.056,-40.6574 524.805,-47.9196 586.863,-77.4653 610.368,-88.8152 631.544,-108.842 645.947,-124.602"/>
<path fill="none" stroke="none" d="M396.388,-41.1715C444.875,-42.6492 524.624,-49.9113 586,-79.2696 608.994,-90.2683 630.17,-110.295 644.471,-125.95"/>
<path fill="none" stroke="black" d="M396.327,-43.1706C444.694,-44.6409 524.442,-51.9031 585.137,-81.0738 607.62,-91.7214 628.796,-111.748 642.994,-127.299"/>
<text text-anchor="middle" x="490" y="-54.2696" font-family="Courier,monospace" font-size="10.00">N</text>
</g>
</g>
</svg>
