<?xml version="1.0" encoding="UTF-8" standalone="no"?>
<!DOCTYPE svg PUBLIC "-//W3C//DTD SVG 1.1//EN"
 "http://www.w3.org/Graphics/SVG/1.1/DTD/svg11.dtd">
<!-- Generated by graphviz version 2.40.1 (20161225.0304)
 -->
<!-- Title: %3 Pages: 1 -->
<svg width="838pt" height="552pt"
 viewBox="0.00 0.00 838.06 552.00" xmlns="http://www.w3.org/2000/svg" xmlns:xlink="http://www.w3.org/1999/xlink">
<g id="graph0" class="graph" transform="scale(1 1) rotate(0) translate(4 548)">
<title>%3</title>
<polygon fill="#ffffff" stroke="transparent" points="-4,4 -4,-548 834.0575,-548 834.0575,4 -4,4"/>
<!-- USER -->
<g id="node1" class="node">
<title>USER</title>
<polygon fill="#ffffff" stroke="#000000" points="281.0524,-252 227.0524,-252 227.0524,-216 281.0524,-216 281.0524,-252"/>
<text text-anchor="middle" x="254.0524" y="-231.5" font-family="Courier,monospace" font-size="10.00" fill="#000000">USER</text>
</g>
<!-- FOLLOWS -->
<g id="node17" class="node">
<title>FOLLOWS</title>
<polygon fill="#ffffff" stroke="#000000" points="373.1696,-320 323.9349,-302 373.1696,-284 422.4043,-302 373.1696,-320"/>
<text text-anchor="middle" x="373.1696" y="-299.5" font-family="Courier,monospace" font-size="10.00" fill="#000000">FOLLOWS</text>
</g>
<!-- USER&#45;&#45;FOLLOWS -->
<g id="edge15" class="edge">
<title>USER&#45;&#45;FOLLOWS</title>
<path fill="none" stroke="#000000" d="M268.1435,-252.3735C276.2593,-261.8323 287.1879,-272.8483 299.0524,-280 311.4675,-287.4837 326.5987,-292.5685 339.9445,-295.9466"/>
<text text-anchor="middle" x="302.5524" y="-286" font-family="Courier,monospace" font-size="10.00" fill="#000000">M</text>
</g>
<!-- WRITES -->
<g id="node18" class="node">
<title>WRITES</title>
<polygon fill="#ffffff" stroke="#000000" points="373.1696,-266 328.9248,-248 373.1696,-230 417.4144,-248 373.1696,-266"/>
<text text-anchor="middle" x="373.1696" y="-245.5" font-family="Courier,monospace" font-size="10.00" fill="#000000">WRITES</text>
</g>
<!-- USER&#45;&#45;WRITES -->
<g id="edge17" class="edge">
<title>USER&#45;&#45;WRITES</title>
<path fill="none" stroke="#000000" d="M281.0962,-233.6389C289.1447,-233.769 297.9709,-234.1461 306.0524,-235 318.9178,-236.3594 332.9952,-238.918 344.9201,-241.4081"/>
<text text-anchor="middle" x="302.5524" y="-238" font-family="Courier,monospace" font-size="10.00" fill="#000000">1</text>
</g>
<!-- LIKES -->
<g id="node19" class="node">
<title>LIKES</title>
<polygon fill="#ffffff" stroke="#000000" points="373.1696,-212 333.9146,-194 373.1696,-176 412.4245,-194 373.1696,-212"/>
<text text-anchor="middle" x="373.1696" y="-191.5" font-family="Courier,monospace" font-size="10.00" fill="#000000">LIKES</text>
</g>
<!-- USER&#45;&#45;LIKES -->
<g id="edge19" class="edge">
<title>USER&#45;&#45;LIKES</title>
<path fill="none" stroke="#000000" d="M281.0819,-224.9234C301.949,-217.9161 330.5009,-208.3283 350.2555,-201.6946"/>
<text text-anchor="middle" x="302.5524" y="-221" font-family="Courier,monospace" font-size="10.00" fill="#000000">M</text>
</g>
<!-- REACTS -->
<g id="node25" class="node">
<title>REACTS</title>
<polygon fill="#ffffff" stroke="#000000" points="484.409,-180 440.1642,-162 484.409,-144 528.6539,-162 484.409,-180"/>
<text text-anchor="middle" x="484.409" y="-159.5" font-family="Courier,monospace" font-size="10.00" fill="#000000">REACTS</text>
</g>
<!-- USER&#45;&#45;REACTS -->
<g id="edge26" class="edge">
<title>USER&#45;&#45;REACTS</title>
<path fill="none" stroke="#000000" d="M266.674,-215.9655C279.1537,-199.8133 299.8539,-177.1551 324.0524,-167 366.0446,-149.3776 419.8081,-152.2256 453.1782,-156.5844"/>
<text text-anchor="middle" x="302.5524" y="-184" font-family="Courier,monospace" font-size="10.00" fill="#000000">1</text>
</g>
<!-- USER_Num -->
<g id="node2" class="node">
<title>USER_Num</title>
<ellipse fill="#ffffff" stroke="#000000" cx="148.2573" cy="-423" rx="27" ry="18"/>
<text text-anchor="start" x="138.7573" y="-421.5" font-family="Courier,monospace" text-decoration="underline" font-size="10.00" fill="#000000">Num</text>
</g>
<!-- USER_Num&#45;&#45;USER -->
<g id="edge1" class="edge">
<title>USER_Num&#45;&#45;USER</title>
<path fill="none" stroke="#000000" d="M170.2334,-412.3221C177.3021,-408.0378 184.685,-402.5467 190.0524,-396 226.3849,-351.6847 243.9968,-284.2094 250.6952,-252.1442"/>
</g>
<!-- USER_Login -->
<g id="node3" class="node">
<title>USER_Login</title>
<ellipse fill="#ffffff" stroke="#000000" cx="148.2573" cy="-369" rx="27.8353" ry="18"/>
<text text-anchor="middle" x="148.2573" y="-366.5" font-family="Courier,monospace" font-size="10.00" fill="#000000">Login</text>
</g>
<!-- USER_Login&#45;&#45;USER -->
<g id="edge2" class="edge">
<title>USER_Login&#45;&#45;USER</title>
<path fill="none" stroke="#000000" d="M170.0902,-357.5462C176.9878,-353.267 184.3027,-347.9761 190.0524,-342 216.1944,-314.8287 236.2314,-275.0596 246.4761,-252.1281"/>
</g>
<!-- USER_Joined -->
<g id="node4" class="node">
<title>USER_Joined</title>
<ellipse fill="#ffffff" stroke="#000000" cx="148.2573" cy="-315" rx="31.3996" ry="18"/>
<text text-anchor="middle" x="148.2573" y="-312.5" font-family="Courier,monospace" font-size="10.00" fill="#000000">Joined</text>
</g>
<!-- USER_Joined&#45;&#45;USER -->
<g id="edge3" class="edge">
<title>USER_Joined&#45;&#45;USER</title>
<path fill="none" stroke="#000000" d="M169.8739,-301.7764C176.4701,-297.5453 183.6646,-292.7283 190.0524,-288 205.2427,-276.7559 221.5093,-263.0064 233.8418,-252.1956"/>
</g>
<!-- USER_Name -->
<g id="node5" class="node">
<title>USER_Name</title>
<ellipse fill="#ffffff" stroke="#000000" cx="148.2573" cy="-261" rx="27" ry="18"/>
<text text-anchor="middle" x="148.2573" y="-258.5" font-family="Courier,monospace" font-size="10.00" fill="#000000">Name</text>
</g>
<!-- USER_Name&#45;&#45;USER -->
<g id="edge4" class="edge">
<title>USER_Name&#45;&#45;USER</title>
<path fill="none" stroke="#000000" d="M173.5979,-254.5328C189.6139,-250.4454 210.306,-245.1645 226.6947,-240.982"/>
</g>
<!-- USER_BirthDate -->
<g id="node6" class="node">
<title>USER_BirthDate</title>
<ellipse fill="#ffffff" stroke="#000000" cx="148.2573" cy="-207" rx="41.5911" ry="18"/>
<text text-anchor="middle" x="148.2573" y="-204.5" font-family="Courier,monospace" font-size="10.00" fill="#000000">BirthDate</text>
</g>
<!-- USER_BirthDate&#45;&#45;USER -->
<g id="edge5" class="edge">
<title>USER_BirthDate&#45;&#45;USER</title>
<path fill="none" stroke="#000000" d="M184.3701,-216.2164C198.2574,-219.7606 213.8667,-223.7442 226.786,-227.0413"/>
</g>
<!-- USER_Age -->
<g id="node7" class="node">
<title>USER_Age</title>
<ellipse fill="none" stroke="#000000" stroke-dasharray="5,2" cx="148.2573" cy="-153" rx="27" ry="18"/>
<text text-anchor="middle" x="148.2573" y="-150.5" font-family="Courier,monospace" font-size="10.00" fill="#000000">Age</text>
</g>
<!-- USER_Age&#45;&#45;USER -->
<g id="edge6" class="edge">
<title>USER_Age&#45;&#45;USER</title>
<path fill="none" stroke="#000000" d="M168.5913,-165.4034C175.5283,-169.8261 183.248,-174.9633 190.0524,-180 205.2427,-191.2441 221.5093,-204.9936 233.8418,-215.8044"/>
</g>
<!-- USER_Sex -->
<g id="node8" class="node">
<title>USER_Sex</title>
<ellipse fill="#ffffff" stroke="#000000" cx="148.2573" cy="-99" rx="27" ry="18"/>
<text text-anchor="middle" x="148.2573" y="-96.5" font-family="Courier,monospace" font-size="10.00" fill="#000000">Sex</text>
</g>
<!-- USER_Sex&#45;&#45;USER -->
<g id="edge7" class="edge">
<title>USER_Sex&#45;&#45;USER</title>
<path fill="none" stroke="#000000" d="M169.6597,-110.1877C176.6823,-114.5128 184.1829,-119.8994 190.0524,-126 216.1944,-153.1713 236.2314,-192.9404 246.4761,-215.8719"/>
</g>
<!-- USER_Contact -->
<g id="node9" class="node">
<title>USER_Contact</title>
<ellipse fill="#ffffff" stroke="#000000" cx="148.2573" cy="-45" rx="34.9638" ry="18"/>
<text text-anchor="middle" x="148.2573" y="-42.5" font-family="Courier,monospace" font-size="10.00" fill="#000000">Contact</text>
</g>
<!-- USER_Contact&#45;&#45;USER -->
<g id="edge8" class="edge">
<title>USER_Contact&#45;&#45;USER</title>
<path fill="none" stroke="#000000" d="M173.2753,-57.5875C179.3704,-61.5526 185.4517,-66.3885 190.0524,-72 226.3849,-116.3153 243.9968,-183.7906 250.6952,-215.8558"/>
</g>
<!-- USER_Contact_Phone -->
<g id="node10" class="node">
<title>USER_Contact_Phone</title>
<ellipse fill="#ffffff" stroke="#000000" cx="34.7311" cy="-72" rx="34.9638" ry="18"/>
<text text-anchor="middle" x="34.7311" y="-69.5" font-family="Courier,monospace" font-size="10.00" fill="#000000">Phone ?</text>
</g>
<!-- USER_Contact_Phone&#45;&#45;USER_Contact -->
<g id="edge9" class="edge">
<title>USER_Contact_Phone&#45;&#45;USER_Contact</title>
<path fill="none" stroke="#000000" d="M66.3545,-64.479C81.9693,-60.7653 100.7647,-56.2952 116.4098,-52.5743"/>
</g>
<!-- USER_Contact_Email -->
<g id="node11" class="node">
<title>USER_Contact_Email</title>
<ellipse fill="#ffffff" stroke="#000000" cx="34.7311" cy="-18" rx="27.8353" ry="18"/>
<text text-anchor="middle" x="34.7311" y="-15.5" font-family="Courier,monospace" font-size="10.00" fill="#000000">Email</text>
</g>
<!-- USER_Contact_Email&#45;&#45;USER_Contact -->
<g id="edge10" class="edge">
<title>USER_Contact_Email&#45;&#45;USER_Contact</title>
<path fill="none" stroke="#000000" d="M60.7763,-24.1943C77.4038,-28.1489 99.0636,-33.3002 116.6705,-37.4877"/>
</g>
<!-- POST -->
<g id="node12" class="node">
<title>POST</title>
<polygon fill="#ffffff" stroke="#000000" points="600.5313,-378 546.5313,-378 546.5313,-342 600.5313,-342 600.5313,-378"/>
<text text-anchor="middle" x="573.5313" y="-357.5" font-family="Courier,monospace" font-size="10.00" fill="#000000">POST</text>
</g>
<!-- HAS -->
<g id="node24" class="node">
<title>HAS</title>
<polygon fill="#ffffff" stroke="#000000" points="681.7944,-311.1614 652.4589,-293 681.7944,-274.8386 711.1298,-293 681.7944,-311.1614"/>
<polygon fill="none" stroke="#000000" points="681.7944,-315.9052 644.7963,-293 681.7944,-270.0948 718.7924,-293 681.7944,-315.9052"/>
<text text-anchor="middle" x="681.7944" y="-290.5" font-family="Courier,monospace" font-size="10.00" fill="#000000">HAS</text>
</g>
<!-- POST&#45;&#45;HAS -->
<g id="edge24" class="edge">
<title>POST&#45;&#45;HAS</title>
<path fill="none" stroke="#000000" d="M600.5714,-343.2659C620.112,-331.1729 645.9987,-315.1526 663.241,-304.482"/>
<text text-anchor="middle" x="622.0313" y="-333" font-family="Courier,monospace" font-size="10.00" fill="#000000">1</text>
</g>
<!-- POST_Id -->
<g id="node13" class="node">
<title>POST_Id</title>
<ellipse fill="#ffffff" stroke="#000000" cx="373.1696" cy="-526" rx="27" ry="18"/>
<text text-anchor="start" x="366.6696" y="-524.5" font-family="Courier,monospace" text-decoration="underline" font-size="10.00" fill="#000000">Id</text>
</g>
<!-- POST_Id&#45;&#45;POST -->
<g id="edge11" class="edge">
<title>POST_Id&#45;&#45;POST</title>
<path fill="none" stroke="#000000" d="M396.7261,-516.9564C429.5197,-503.4272 489.31,-475.2465 528.5313,-436 545.3321,-419.1884 558.2848,-394.8736 565.8902,-378.3045"/>
</g>
<!-- POST_Creation -->
<g id="node14" class="node">
<title>POST_Creation</title>
<ellipse fill="#ffffff" stroke="#000000" cx="373.1696" cy="-472" rx="38.0276" ry="18"/>
<text text-anchor="middle" x="373.1696" y="-469.5" font-family="Courier,monospace" font-size="10.00" fill="#000000">Creation</text>
</g>
<!-- POST_Creation&#45;&#45;POST -->
<g id="edge12" class="edge">
<title>POST_Creation&#45;&#45;POST</title>
<path fill="none" stroke="#000000" d="M403.7388,-460.9164C436.1025,-448.4929 488.0069,-426.568 528.5313,-400 538.147,-393.6958 547.8077,-385.4241 555.6992,-378.0395"/>
</g>
<!-- POST_Content -->
<g id="node15" class="node">
<title>POST_Content</title>
<ellipse fill="#ffffff" stroke="#000000" cx="373.1696" cy="-418" rx="34.9638" ry="18"/>
<text text-anchor="middle" x="373.1696" y="-415.5" font-family="Courier,monospace" font-size="10.00" fill="#000000">Content</text>
</g>
<!-- POST_Content&#45;&#45;POST -->
<g id="edge13" class="edge">
<title>POST_Content&#45;&#45;POST</title>
<path fill="none" stroke="#000000" d="M403.8942,-409.5487C435.2841,-400.8558 485.4011,-386.8143 528.5313,-374 534.3351,-372.2756 540.5437,-370.3784 546.438,-368.5522"/>
</g>
<!-- POST_HashTag -->
<g id="node16" class="node">
<title>POST_HashTag</title>
<ellipse fill="#ffffff" stroke="#000000" cx="373.1696" cy="-360" rx="34.9396" ry="18"/>
<ellipse fill="none" stroke="#000000" cx="373.1696" cy="-360" rx="38.9636" ry="22"/>
<text text-anchor="middle" x="373.1696" y="-357.5" font-family="Courier,monospace" font-size="10.00" fill="#000000">HashTag</text>
</g>
<!-- POST_HashTag&#45;&#45;POST -->
<g id="edge14" class="edge">
<title>POST_HashTag&#45;&#45;POST</title>
<path fill="none" stroke="#000000" d="M412.277,-360C451.7949,-360 511.8155,-360 546.3965,-360"/>
</g>
<!-- FOLLOWS&#45;&#45;USER -->
<g id="edge16" class="edge">
<title>FOLLOWS&#45;&#45;USER</title>
<path fill="none" stroke="#000000" d="M353.0271,-291.0883C344.1167,-286.22 333.5306,-280.3795 324.0524,-275 309.844,-266.9358 294.1394,-257.7615 281.2119,-250.139"/>
<text text-anchor="middle" x="302.5524" y="-266" font-family="Courier,monospace" font-size="10.00" fill="#000000">N</text>
</g>
<!-- WRITES&#45;&#45;POST -->
<g id="edge18" class="edge">
<title>WRITES&#45;&#45;POST</title>
<path fill="none" stroke="#000000" d="M393.2814,-256.719C402.3751,-261.706 413.3849,-267.7638 423.2585,-273.2519 466.8395,-297.476 517.2861,-325.9058 547.51,-342.981"/>
<path fill="none" stroke="transparent" d="M392.3197,-258.4726C401.411,-263.4583 412.4208,-269.5161 422.2868,-275 465.8576,-299.2183 516.3041,-327.6482 546.5262,-344.7223"/>
<path fill="none" stroke="#000000" d="M391.358,-260.2262C400.4469,-265.2105 411.4566,-271.2684 421.3151,-276.7481 464.8756,-300.9607 515.3222,-329.3905 545.5425,-346.4637"/>
<text text-anchor="middle" x="484.409" y="-336" font-family="Courier,monospace" font-size="10.00" fill="#000000">N</text>
</g>
<!-- LIKES&#45;&#45;POST -->
<g id="edge20" class="edge">
<title>LIKES&#45;&#45;POST</title>
<path fill="none" stroke="#000000" d="M397.8995,-200.8391C431.2529,-211.1571 490.8109,-233.58 528.5313,-271 548.8128,-291.12 561.6441,-322.2765 568.2036,-341.8845"/>
<text text-anchor="middle" x="484.409" y="-274" font-family="Courier,monospace" font-size="10.00" fill="#000000">N</text>
</g>
<!-- COMMENT -->
<g id="node20" class="node">
<title>COMMENT</title>
<polygon fill="#ffffff" stroke="#000000" points="826.0575,-370 767.0575,-370 767.0575,-334 826.0575,-334 826.0575,-370"/>
<polygon fill="none" stroke="#000000" points="830.0575,-374 763.0575,-374 763.0575,-330 830.0575,-330 830.0575,-374"/>
<text text-anchor="middle" x="796.5575" y="-349.5" font-family="Courier,monospace" font-size="10.00" fill="#000000">COMMENT</text>
</g>
<!-- COMMENT_Order -->
<g id="node21" class="node">
<title>COMMENT_Order</title>
<ellipse fill="#ffffff" stroke="#000000" cx="681.7944" cy="-460" rx="27.8353" ry="18"/>
<text text-anchor="start" x="666.2944" y="-458.5" font-family="Courier,monospace" text-decoration="underline" font-size="10.00" fill="#000000">Order</text>
</g>
<!-- COMMENT_Order&#45;&#45;COMMENT -->
<g id="edge21" class="edge">
<title>COMMENT_Order&#45;&#45;COMMENT</title>
<path fill="none" stroke="#000000" d="M701.432,-447.2617C707.5901,-442.9761 714.2829,-438.0061 720.0575,-433 741.2498,-414.6281 762.9776,-391.082 777.8355,-374.1171"/>
</g>
<!-- COMMENT_Text -->
<g id="node22" class="node">
<title>COMMENT_Text</title>
<ellipse fill="#ffffff" stroke="#000000" cx="681.7944" cy="-406" rx="27" ry="18"/>
<text text-anchor="middle" x="681.7944" y="-403.5" font-family="Courier,monospace" font-size="10.00" fill="#000000">Text</text>
</g>
<!-- COMMENT_Text&#45;&#45;COMMENT -->
<g id="edge22" class="edge">
<title>COMMENT_Text&#45;&#45;COMMENT</title>
<path fill="none" stroke="#000000" d="M703.9218,-395.5883C720.5963,-387.7424 743.7552,-376.8453 762.7455,-367.9097"/>
</g>
<!-- COMMENT_Creation -->
<g id="node23" class="node">
<title>COMMENT_Creation</title>
<ellipse fill="#ffffff" stroke="#000000" cx="681.7944" cy="-352" rx="38.0276" ry="18"/>
<text text-anchor="middle" x="681.7944" y="-349.5" font-family="Courier,monospace" font-size="10.00" fill="#000000">Creation</text>
</g>
<!-- COMMENT_Creation&#45;&#45;COMMENT -->
<g id="edge23" class="edge">
<title>COMMENT_Creation&#45;&#45;COMMENT</title>
<path fill="none" stroke="#000000" d="M720.3281,-352C734.1329,-352 749.5749,-352 762.9316,-352"/>
</g>
<!-- HAS&#45;&#45;COMMENT -->
<g id="edge25" class="edge">
<title>HAS&#45;&#45;COMMENT</title>
<path fill="none" stroke="#000000" d="M702.962,-301.6335C719.8212,-310.3008 744.174,-322.8207 763.9366,-332.9807"/>
<path fill="none" stroke="transparent" d="M702.0475,-303.4122C718.9067,-312.0796 743.2596,-324.5994 763.0221,-334.7594"/>
<path fill="none" stroke="#000000" d="M701.1331,-305.1909C717.9923,-313.8583 742.3451,-326.3781 762.1077,-336.5381"/>
<text text-anchor="middle" x="741.5575" y="-327" font-family="Courier,monospace" font-size="10.00" fill="#000000">N</text>
</g>
<!-- REACTS&#45;&#45;COMMENT -->
<g id="edge27" class="edge">
<title>REACTS&#45;&#45;COMMENT</title>
<path fill="none" stroke="#000000" d="M512.5035,-167.0463C558.9049,-179.7443 653.8441,-209.8887 721.2434,-259.3895 747.5702,-278.8742 770.3062,-308.4896 784.178,-328.8036"/>
<path fill="none" stroke="transparent" d="M511.9757,-168.9754C558.2997,-181.6505 653.2388,-211.7949 720.0575,-261 745.9838,-280.0921 768.7198,-309.7075 782.5262,-329.9312"/>
<path fill="none" stroke="#000000" d="M511.4479,-170.9045C557.6944,-183.5567 652.6336,-213.7011 718.8715,-262.6105 744.3974,-281.31 767.1333,-310.9254 780.8744,-331.0589"/>
<text text-anchor="middle" x="622.0313" y="-210" font-family="Courier,monospace" font-size="10.00" fill="#000000">N</text>
</g>
</g>
</svg>
