<?xml version="1.0" encoding="UTF-8" standalone="no"?>
<!DOCTYPE svg PUBLIC "-//W3C//DTD SVG 1.1//EN"
 "http://www.w3.org/Graphics/SVG/1.1/DTD/svg11.dtd">
<!-- Generated by graphviz version 2.40.1 (20161225.0304)
 -->
<!-- Title: %3 Pages: 1 -->
<svg width="700pt" height="341pt"
 viewBox="0.00 0.00 700.31 341.25" xmlns="http://www.w3.org/2000/svg" xmlns:xlink="http://www.w3.org/1999/xlink">
<g id="graph0" class="graph" transform="scale(1 1) rotate(0) translate(4 337.2455)">
<title>%3</title>
<polygon fill="#ffffff" stroke="transparent" points="-4,4 -4,-337.2455 696.3096,-337.2455 696.3096,4 -4,4"/>
<!-- USER -->
<g id="node1" class="node">
<title>USER</title>
<polygon fill="#ffffff" stroke="#000000" points="146.3343,-95.2455 92.3343,-95.2455 92.3343,-59.2455 146.3343,-59.2455 146.3343,-95.2455"/>
<text text-anchor="middle" x="119.3343" y="-74.7455" font-family="Courier,monospace" font-size="10.00" fill="#000000">USER</text>
</g>
<!-- FOLLOWS -->
<g id="node9" class="node">
<title>FOLLOWS</title>
<polygon fill="#ffffff" stroke="#000000" points="238.4515,-163.2455 189.2168,-145.2455 238.4515,-127.2455 287.6862,-145.2455 238.4515,-163.2455"/>
<text text-anchor="middle" x="238.4515" y="-142.7455" font-family="Courier,monospace" font-size="10.00" fill="#000000">FOLLOWS</text>
</g>
<!-- USER&#45;&#45;FOLLOWS -->
<g id="edge7" class="edge">
<title>USER&#45;&#45;FOLLOWS</title>
<path fill="none" stroke="#000000" d="M133.4255,-95.619C141.5412,-105.0778 152.4699,-116.0938 164.3343,-123.2455 176.7495,-130.7292 191.8806,-135.814 205.2265,-139.1921"/>
<text text-anchor="middle" x="167.8343" y="-129.2455" font-family="Courier,monospace" font-size="10.00" fill="#000000">M</text>
</g>
<!-- WRITES -->
<g id="node10" class="node">
<title>WRITES</title>
<polygon fill="#ffffff" stroke="#000000" points="238.4515,-109.2455 194.2067,-91.2455 238.4515,-73.2455 282.6964,-91.2455 238.4515,-109.2455"/>
<text text-anchor="middle" x="238.4515" y="-88.7455" font-family="Courier,monospace" font-size="10.00" fill="#000000">WRITES</text>
</g>
<!-- USER&#45;&#45;WRITES -->
<g id="edge9" class="edge">
<title>USER&#45;&#45;WRITES</title>
<path fill="none" stroke="#000000" d="M146.3782,-76.8845C154.4266,-77.0145 163.2528,-77.3916 171.3343,-78.2455 184.1997,-79.6049 198.2771,-82.1635 210.202,-84.6536"/>
<text text-anchor="middle" x="167.8343" y="-81.2455" font-family="Courier,monospace" font-size="10.00" fill="#000000">1</text>
</g>
<!-- LIKES -->
<g id="node11" class="node">
<title>LIKES</title>
<polygon fill="#ffffff" stroke="#000000" points="238.4515,-55.2455 199.1966,-37.2455 238.4515,-19.2455 277.7065,-37.2455 238.4515,-55.2455"/>
<text text-anchor="middle" x="238.4515" y="-34.7455" font-family="Courier,monospace" font-size="10.00" fill="#000000">LIKES</text>
</g>
<!-- USER&#45;&#45;LIKES -->
<g id="edge11" class="edge">
<title>USER&#45;&#45;LIKES</title>
<path fill="none" stroke="#000000" d="M146.3639,-68.1689C167.2309,-61.1616 195.7829,-51.5738 215.5374,-44.9402"/>
<text text-anchor="middle" x="167.8343" y="-64.2455" font-family="Courier,monospace" font-size="10.00" fill="#000000">M</text>
</g>
<!-- REACTS -->
<g id="node16" class="node">
<title>REACTS</title>
<polygon fill="#ffffff" stroke="#000000" points="349.691,-59.2455 305.4462,-41.2455 349.691,-23.2455 393.9358,-41.2455 349.691,-59.2455"/>
<text text-anchor="middle" x="349.691" y="-38.7455" font-family="Courier,monospace" font-size="10.00" fill="#000000">REACTS</text>
</g>
<!-- USER&#45;&#45;REACTS -->
<g id="edge17" class="edge">
<title>USER&#45;&#45;REACTS</title>
<path fill="none" stroke="#000000" d="M131.8849,-59.0378C144.3143,-42.7632 164.9806,-20.0222 189.3343,-10.2455 229.8511,6.0198 245.073,-.2313 287.5687,-10.2455 303.7589,-14.0608 320.5461,-22.7709 332.5819,-29.99"/>
<text text-anchor="middle" x="167.8343" y="-28.2455" font-family="Courier,monospace" font-size="10.00" fill="#000000">1</text>
</g>
<!-- USER_Login -->
<g id="node2" class="node">
<title>USER_Login</title>
<ellipse fill="#ffffff" stroke="#000000" cx="27.6672" cy="-131.2455" rx="27.8353" ry="18"/>
<text text-anchor="start" x="12.1672" y="-129.7455" font-family="Courier,monospace" text-decoration="underline" font-size="10.00" fill="#000000">Login</text>
</g>
<!-- USER_Login&#45;&#45;USER -->
<g id="edge1" class="edge">
<title>USER_Login&#45;&#45;USER</title>
<path fill="none" stroke="#000000" d="M48.4679,-118.9921C61.3568,-111.3994 78.0556,-101.5623 92.0057,-93.3445"/>
</g>
<!-- USER_Nome -->
<g id="node3" class="node">
<title>USER_Nome</title>
<ellipse fill="#ffffff" stroke="#000000" cx="27.6672" cy="-77.2455" rx="27" ry="18"/>
<text text-anchor="middle" x="27.6672" y="-74.7455" font-family="Courier,monospace" font-size="10.00" fill="#000000">Nome</text>
</g>
<!-- USER_Nome&#45;&#45;USER -->
<g id="edge2" class="edge">
<title>USER_Nome&#45;&#45;USER</title>
<path fill="none" stroke="#000000" d="M54.6745,-77.2455C66.5043,-77.2455 80.3593,-77.2455 92.2032,-77.2455"/>
</g>
<!-- USER_Email -->
<g id="node4" class="node">
<title>USER_Email</title>
<ellipse fill="#ffffff" stroke="#000000" cx="27.6672" cy="-23.2455" rx="27.8353" ry="18"/>
<text text-anchor="middle" x="27.6672" y="-20.7455" font-family="Courier,monospace" font-size="10.00" fill="#000000">Email</text>
</g>
<!-- USER_Email&#45;&#45;USER -->
<g id="edge3" class="edge">
<title>USER_Email&#45;&#45;USER</title>
<path fill="none" stroke="#000000" d="M48.4679,-35.4989C61.3568,-43.0917 78.0556,-52.9287 92.0057,-61.1466"/>
</g>
<!-- POST -->
<g id="node5" class="node">
<title>POST</title>
<polygon fill="#ffffff" stroke="#000000" points="465.8132,-186.2455 411.8132,-186.2455 411.8132,-150.2455 465.8132,-150.2455 465.8132,-186.2455"/>
<text text-anchor="middle" x="438.8132" y="-165.7455" font-family="Courier,monospace" font-size="10.00" fill="#000000">POST</text>
</g>
<!-- HAS -->
<g id="node15" class="node">
<title>HAS</title>
<polygon fill="#ffffff" stroke="#000000" points="545.5614,-151.4069 516.226,-133.2455 545.5614,-115.0841 574.8969,-133.2455 545.5614,-151.4069"/>
<polygon fill="none" stroke="#000000" points="545.5614,-156.1508 508.5634,-133.2455 545.5614,-110.3403 582.5595,-133.2455 545.5614,-156.1508"/>
<text text-anchor="middle" x="545.5614" y="-130.7455" font-family="Courier,monospace" font-size="10.00" fill="#000000">HAS</text>
</g>
<!-- POST&#45;&#45;HAS -->
<g id="edge15" class="edge">
<title>POST&#45;&#45;HAS</title>
<path fill="none" stroke="#000000" d="M466.0265,-159.323C483.0753,-153.7331 504.8553,-146.592 521.3115,-141.1964"/>
<text text-anchor="middle" x="487.3132" y="-155.2455" font-family="Courier,monospace" font-size="10.00" fill="#000000">1</text>
</g>
<!-- POST_Id -->
<g id="node6" class="node">
<title>POST_Id</title>
<ellipse fill="#ffffff" stroke="#000000" cx="238.4515" cy="-315.2455" rx="27" ry="18"/>
<text text-anchor="start" x="231.9515" y="-313.7455" font-family="Courier,monospace" text-decoration="underline" font-size="10.00" fill="#000000">Id</text>
</g>
<!-- POST_Id&#45;&#45;POST -->
<g id="edge4" class="edge">
<title>POST_Id&#45;&#45;POST</title>
<path fill="none" stroke="#000000" d="M262.0355,-306.2301C294.3325,-293.0711 352.9647,-266.2021 393.8132,-230.2455 408.0896,-217.6789 420.4578,-199.8058 428.595,-186.4758"/>
</g>
<!-- POST_Text -->
<g id="node7" class="node">
<title>POST_Text</title>
<ellipse fill="#ffffff" stroke="#000000" cx="238.4515" cy="-261.2455" rx="27" ry="18"/>
<text text-anchor="middle" x="238.4515" y="-258.7455" font-family="Courier,monospace" font-size="10.00" fill="#000000">Text</text>
</g>
<!-- POST_Text&#45;&#45;POST -->
<g id="edge5" class="edge">
<title>POST_Text&#45;&#45;POST</title>
<path fill="none" stroke="#000000" d="M262.4819,-252.8937C293.5412,-241.7526 348.9579,-220.6895 393.8132,-197.2455 399.9086,-194.0597 406.2402,-190.2925 412.1621,-186.5463"/>
</g>
<!-- POST_HashTag -->
<g id="node8" class="node">
<title>POST_HashTag</title>
<ellipse fill="#ffffff" stroke="#000000" cx="238.4515" cy="-203.2455" rx="34.9396" ry="18"/>
<ellipse fill="none" stroke="#000000" cx="238.4515" cy="-203.2455" rx="38.9636" ry="22"/>
<text text-anchor="middle" x="238.4515" y="-200.7455" font-family="Courier,monospace" font-size="10.00" fill="#000000">HashTag</text>
</g>
<!-- POST_HashTag&#45;&#45;POST -->
<g id="edge6" class="edge">
<title>POST_HashTag&#45;&#45;POST</title>
<path fill="none" stroke="#000000" d="M275.6685,-196.7443C315.1648,-189.8449 376.6191,-179.1098 411.7452,-172.9739"/>
</g>
<!-- FOLLOWS&#45;&#45;USER -->
<g id="edge8" class="edge">
<title>FOLLOWS&#45;&#45;USER</title>
<path fill="none" stroke="#000000" d="M218.3091,-134.3338C209.3986,-129.4655 198.8125,-123.6251 189.3343,-118.2455 175.126,-110.1813 159.4214,-101.007 146.4938,-93.3845"/>
<text text-anchor="middle" x="167.8343" y="-109.2455" font-family="Courier,monospace" font-size="10.00" fill="#000000">N</text>
</g>
<!-- WRITES&#45;&#45;POST -->
<g id="edge10" class="edge">
<title>WRITES&#45;&#45;POST</title>
<path fill="none" stroke="#000000" d="M262.153,-98.2115C299.363,-112.5115 372.6256,-140.6667 412.3592,-155.9365"/>
<path fill="none" stroke="transparent" d="M261.4356,-100.0784C298.6456,-114.3784 371.9082,-142.5336 411.6417,-157.8034"/>
<path fill="none" stroke="#000000" d="M260.7181,-101.9453C297.9281,-116.2453 371.1907,-144.4005 410.9243,-159.6703"/>
<text text-anchor="middle" x="349.691" y="-152.2455" font-family="Courier,monospace" font-size="10.00" fill="#000000">N</text>
</g>
<!-- LIKES&#45;&#45;POST -->
<g id="edge12" class="edge">
<title>LIKES&#45;&#45;POST</title>
<path fill="none" stroke="#000000" d="M257.7096,-46.483C271.0584,-52.8013 289.2901,-61.2642 305.5687,-68.2455 344.3452,-84.8754 360.7795,-76.9978 393.8132,-103.2455 409.7172,-115.8824 422.2725,-135.6327 430.0355,-150.048"/>
<text text-anchor="middle" x="349.691" y="-106.2455" font-family="Courier,monospace" font-size="10.00" fill="#000000">N</text>
</g>
<!-- COMMENT -->
<g id="node12" class="node">
<title>COMMENT</title>
<polygon fill="#ffffff" stroke="#000000" points="688.3096,-195.2455 629.3096,-195.2455 629.3096,-159.2455 688.3096,-159.2455 688.3096,-195.2455"/>
<polygon fill="none" stroke="#000000" points="692.3096,-199.2455 625.3096,-199.2455 625.3096,-155.2455 692.3096,-155.2455 692.3096,-199.2455"/>
<text text-anchor="middle" x="658.8096" y="-174.7455" font-family="Courier,monospace" font-size="10.00" fill="#000000">COMMENT</text>
</g>
<!-- COMMENT_Order -->
<g id="node13" class="node">
<title>COMMENT_Order</title>
<ellipse fill="#ffffff" stroke="#000000" cx="545.5614" cy="-246.2455" rx="27.8353" ry="18"/>
<text text-anchor="start" x="530.0614" y="-244.7455" font-family="Courier,monospace" text-decoration="underline" font-size="10.00" fill="#000000">Order</text>
</g>
<!-- COMMENT_Order&#45;&#45;COMMENT -->
<g id="edge13" class="edge">
<title>COMMENT_Order&#45;&#45;COMMENT</title>
<path fill="none" stroke="#000000" d="M565.8079,-233.9097C582.2223,-223.9087 605.7091,-209.5986 624.9728,-197.8616"/>
</g>
<!-- COMMENT_Text -->
<g id="node14" class="node">
<title>COMMENT_Text</title>
<ellipse fill="#ffffff" stroke="#000000" cx="545.5614" cy="-192.2455" rx="27" ry="18"/>
<text text-anchor="middle" x="545.5614" y="-189.7455" font-family="Courier,monospace" font-size="10.00" fill="#000000">Text</text>
</g>
<!-- COMMENT_Text&#45;&#45;COMMENT -->
<g id="edge14" class="edge">
<title>COMMENT_Text&#45;&#45;COMMENT</title>
<path fill="none" stroke="#000000" d="M572.1131,-188.7287C587.9342,-186.6331 608.1677,-183.9532 625.1081,-181.7094"/>
</g>
<!-- HAS&#45;&#45;COMMENT -->
<g id="edge16" class="edge">
<title>HAS&#45;&#45;COMMENT</title>
<path fill="none" stroke="#000000" d="M569.2032,-140.2853C585.4904,-146.6134 607.6274,-155.2142 625.9102,-162.3175"/>
<path fill="none" stroke="transparent" d="M568.4789,-142.1496C584.7661,-148.4776 606.903,-157.0784 625.1859,-164.1818"/>
<path fill="none" stroke="#000000" d="M567.7546,-144.0138C584.0418,-150.3418 606.1787,-158.9426 624.4616,-166.046"/>
<text text-anchor="middle" x="603.8096" y="-159.2455" font-family="Courier,monospace" font-size="10.00" fill="#000000">N</text>
</g>
<!-- REACTS&#45;&#45;COMMENT -->
<g id="edge18" class="edge">
<title>REACTS&#45;&#45;COMMENT</title>
<path fill="none" stroke="#000000" d="M386.0045,-42.6388C433.8035,-48.3966 519.2125,-63.1817 583.2986,-99.5072 607.6861,-113.4843 629.3596,-136.5234 643.567,-153.7748"/>
<path fill="none" stroke="transparent" d="M385.7654,-44.6245C433.4623,-50.3673 518.8714,-65.1524 582.3096,-101.2455 606.2293,-114.8546 627.9029,-137.8938 642.0229,-155.0459"/>
<path fill="none" stroke="#000000" d="M385.5263,-46.6102C433.1212,-52.338 518.5302,-67.1231 581.3206,-102.9839 604.7726,-116.225 626.4462,-139.2642 640.4788,-156.317"/>
<text text-anchor="middle" x="487.3132" y="-66.2455" font-family="Courier,monospace" font-size="10.00" fill="#000000">N</text>
</g>
</g>
</svg>
