<?xml version="1.0" encoding="UTF-8" standalone="no"?>
<!DOCTYPE svg PUBLIC "-//W3C//DTD SVG 1.1//EN"
 "http://www.w3.org/Graphics/SVG/1.1/DTD/svg11.dtd">
<!-- Generated by graphviz version 2.36.0 (20140111.2315)
 -->
<!-- Title: %3 Pages: 1 -->
<svg width="446pt" height="312pt"
 viewBox="0.00 0.00 446.00 312.00" xmlns="http://www.w3.org/2000/svg" xmlns:xlink="http://www.w3.org/1999/xlink">
<g id="graph0" class="graph" transform="scale(1 1) rotate(0) translate(4 308)">
<title>%3</title>
<polygon fill="white" stroke="none" points="-4,4 -4,-308 442,-308 442,4 -4,4"/>
<!-- USER -->
<g id="node1" class="node"><title>USER</title>
<polygon fill="white" stroke="none" points="437.5,-246 328.5,-246 328.5,-84 437.5,-84 437.5,-246"/>
<polygon fill="none" stroke="black" points="337,-224 337,-242 430,-242 430,-224 337,-224"/>
<text text-anchor="start" x="340" y="-231.5" font-family="Courier,monospace" font-weight="bold" font-size="10.00">USER</text>
<polygon fill="none" stroke="black" points="337,-207 337,-224 430,-224 430,-207 337,-207"/>
<text text-anchor="start" x="340" y="-214" font-family="Courier,monospace" text-decoration="underline" font-size="10.00">Num</text>
<text text-anchor="start" x="359" y="-214" font-family="Courier,monospace" font-size="10.00"> </text>
<text text-anchor="start" x="366" y="-214" font-family="Courier,monospace" font-style="italic" font-size="10.00">int</text>
<polygon fill="none" stroke="black" points="337,-190 337,-207 430,-207 430,-190 337,-190"/>
<text text-anchor="start" x="340" y="-197" font-family="Courier,monospace" font-size="10.00">Login </text>
<text text-anchor="start" x="377" y="-197" font-family="Courier,monospace" font-style="italic" font-size="10.00">varchar</text>
<polygon fill="none" stroke="black" points="337,-173 337,-190 430,-190 430,-173 337,-173"/>
<text text-anchor="start" x="340" y="-180" font-family="Courier,monospace" font-size="10.00">Name </text>
<text text-anchor="start" x="371" y="-180" font-family="Courier,monospace" font-style="italic" font-size="10.00">varchar</text>
<polygon fill="none" stroke="black" points="337,-156 337,-173 430,-173 430,-156 337,-156"/>
<text text-anchor="start" x="340" y="-163" font-family="Courier,monospace" font-size="10.00">Joined </text>
<text text-anchor="start" x="383" y="-163" font-family="Courier,monospace" font-style="italic" font-size="10.00">date</text>
<polygon fill="none" stroke="black" points="337,-139 337,-156 430,-156 430,-139 337,-139"/>
<text text-anchor="start" x="340" y="-146" font-family="Courier,monospace" font-size="10.00">BirthDate </text>
<text text-anchor="start" x="401" y="-146" font-family="Courier,monospace" font-style="italic" font-size="10.00">date</text>
<polygon fill="none" stroke="black" points="337,-122 337,-139 430,-139 430,-122 337,-122"/>
<text text-anchor="start" x="340" y="-129" font-family="Courier,monospace" font-size="10.00">Sex </text>
<text text-anchor="start" x="365" y="-129" font-family="Courier,monospace" font-style="italic" font-size="10.00">enum</text>
<polygon fill="none" stroke="black" points="337,-105 337,-122 430,-122 430,-105 337,-105"/>
<text text-anchor="start" x="340" y="-112" font-family="Courier,monospace" font-size="10.00">Phone ? </text>
<text text-anchor="start" x="389" y="-112" font-family="Courier,monospace" font-style="italic" font-size="10.00">int</text>
<polygon fill="none" stroke="black" points="337,-88 337,-105 430,-105 430,-88 337,-88"/>
<text text-anchor="start" x="340" y="-95" font-family="Courier,monospace" font-size="10.00">Email </text>
<text text-anchor="start" x="377" y="-95" font-family="Courier,monospace" font-style="italic" font-size="10.00">varchar</text>
</g>
<!-- FOLLOWS -->
<g id="node2" class="node"><title>FOLLOWS</title>
<polygon fill="white" stroke="none" points="277,-304 179,-304 179,-244 277,-244 277,-304"/>
<polygon fill="none" stroke="black" points="187,-282 187,-300 269,-300 269,-282 187,-282"/>
<text text-anchor="start" x="190" y="-289.5" font-family="Courier,monospace" font-weight="bold" font-size="10.00">FOLLOWS</text>
<polygon fill="none" stroke="black" points="187,-265 187,-282 269,-282 269,-265 187,-265"/>
<text text-anchor="start" x="190" y="-272" font-family="Courier,monospace" text-decoration="underline" font-size="10.00">Followed</text>
<text text-anchor="start" x="239" y="-272" font-family="Courier,monospace" font-size="10.00"> </text>
<text text-anchor="start" x="246" y="-272" font-family="Courier,monospace" font-style="italic" font-size="10.00">int</text>
<polygon fill="none" stroke="black" points="187,-248 187,-265 269,-265 269,-248 187,-248"/>
<text text-anchor="start" x="190" y="-255" font-family="Courier,monospace" text-decoration="underline" font-size="10.00">Follower</text>
<text text-anchor="start" x="239" y="-255" font-family="Courier,monospace" font-size="10.00"> </text>
<text text-anchor="start" x="246" y="-255" font-family="Courier,monospace" font-style="italic" font-size="10.00">int</text>
</g>
<!-- FOLLOWS&#45;&gt;USER -->
<g id="edge1" class="edge"><title>FOLLOWS:Followed&#45;&gt;USER:Num</title>
<path fill="none" stroke="black" d="M270,-273C304.974,-273 299.011,-226.589 325.99,-217.525"/>
<polygon fill="black" stroke="black" points="326.641,-220.966 336,-216 325.587,-214.046 326.641,-220.966"/>
</g>
<!-- FOLLOWS&#45;&gt;USER -->
<g id="edge2" class="edge"><title>FOLLOWS:Follower&#45;&gt;USER:Num</title>
<path fill="none" stroke="black" d="M270,-256C300.548,-256 301.827,-224.271 325.973,-217.331"/>
<polygon fill="black" stroke="black" points="326.547,-220.785 336,-216 325.626,-213.846 326.547,-220.785"/>
</g>
<!-- POST -->
<g id="node3" class="node"><title>POST</title>
<polygon fill="white" stroke="none" points="291.5,-188 164.5,-188 164.5,-94 291.5,-94 291.5,-188"/>
<polygon fill="none" stroke="black" points="173,-166 173,-184 284,-184 284,-166 173,-166"/>
<text text-anchor="start" x="176" y="-173.5" font-family="Courier,monospace" font-weight="bold" font-size="10.00">POST</text>
<polygon fill="none" stroke="black" points="173,-149 173,-166 284,-166 284,-149 173,-149"/>
<text text-anchor="start" x="176" y="-156" font-family="Courier,monospace" text-decoration="underline" font-size="10.00">Num</text>
<text text-anchor="start" x="195" y="-156" font-family="Courier,monospace" font-size="10.00"> </text>
<text text-anchor="start" x="202" y="-156" font-family="Courier,monospace" font-style="italic" font-size="10.00">int</text>
<polygon fill="none" stroke="black" points="173,-132 173,-149 284,-149 284,-132 173,-132"/>
<text text-anchor="start" x="176" y="-139" font-family="Courier,monospace" font-size="10.00">Author </text>
<text text-anchor="start" x="219" y="-139" font-family="Courier,monospace" font-style="italic" font-size="10.00">int</text>
<polygon fill="none" stroke="black" points="173,-115 173,-132 284,-132 284,-115 173,-115"/>
<text text-anchor="start" x="176" y="-122" font-family="Courier,monospace" font-size="10.00">Creation </text>
<text text-anchor="start" x="231" y="-122" font-family="Courier,monospace" font-style="italic" font-size="10.00">datetime</text>
<polygon fill="none" stroke="black" points="173,-98 173,-115 284,-115 284,-98 173,-98"/>
<text text-anchor="start" x="176" y="-105" font-family="Courier,monospace" font-size="10.00">Content </text>
<text text-anchor="start" x="225" y="-105" font-family="Courier,monospace" font-style="italic" font-size="10.00">text</text>
</g>
<!-- POST&#45;&gt;USER -->
<g id="edge3" class="edge"><title>POST:Author&#45;&gt;USER:Num</title>
<path fill="none" stroke="black" d="M285,-140C321.706,-140 300.573,-201.881 325.983,-213.967"/>
<polygon fill="black" stroke="black" points="325.504,-217.441 336,-216 326.896,-210.581 325.504,-217.441"/>
</g>
<!-- HASHTAG -->
<g id="node4" class="node"><title>HASHTAG</title>
<polygon fill="white" stroke="none" points="110,-189 18,-189 18,-129 110,-129 110,-189"/>
<polygon fill="none" stroke="black" points="26,-167 26,-185 102,-185 102,-167 26,-167"/>
<text text-anchor="start" x="29" y="-174.5" font-family="Courier,monospace" font-weight="bold" font-size="10.00">HASHTAG</text>
<polygon fill="none" stroke="black" points="26,-150 26,-167 102,-167 102,-150 26,-150"/>
<text text-anchor="start" x="29" y="-157" font-family="Courier,monospace" text-decoration="underline" font-size="10.00">Post</text>
<text text-anchor="start" x="54" y="-157" font-family="Courier,monospace" font-size="10.00"> </text>
<text text-anchor="start" x="61" y="-157" font-family="Courier,monospace" font-style="italic" font-size="10.00">int</text>
<polygon fill="none" stroke="black" points="26,-133 26,-150 102,-150 102,-133 26,-133"/>
<text text-anchor="start" x="29" y="-140" font-family="Courier,monospace" text-decoration="underline" font-size="10.00">Tag</text>
<text text-anchor="start" x="48" y="-140" font-family="Courier,monospace" font-size="10.00"> </text>
<text text-anchor="start" x="55" y="-140" font-family="Courier,monospace" font-style="italic" font-size="10.00">varchar</text>
</g>
<!-- HASHTAG&#45;&gt;POST -->
<g id="edge4" class="edge"><title>HASHTAG:Post&#45;&gt;POST:Num</title>
<path fill="none" stroke="black" d="M103,-158C129.953,-158 139.139,-158 161.789,-158"/>
<polygon fill="black" stroke="black" points="162,-161.5 172,-158 162,-154.5 162,-161.5"/>
</g>
<!-- POST_LIKED -->
<g id="node5" class="node"><title>POST_LIKED</title>
<polygon fill="white" stroke="none" points="106,-267 22,-267 22,-207 106,-207 106,-267"/>
<polygon fill="none" stroke="black" points="30,-245 30,-263 98,-263 98,-245 30,-245"/>
<text text-anchor="start" x="33" y="-252.5" font-family="Courier,monospace" font-weight="bold" font-size="10.00">POST_LIKED</text>
<polygon fill="none" stroke="black" points="30,-228 30,-245 98,-245 98,-228 30,-228"/>
<text text-anchor="start" x="33" y="-235" font-family="Courier,monospace" text-decoration="underline" font-size="10.00">User</text>
<text text-anchor="start" x="58" y="-235" font-family="Courier,monospace" font-size="10.00"> </text>
<text text-anchor="start" x="65" y="-235" font-family="Courier,monospace" font-style="italic" font-size="10.00">int</text>
<polygon fill="none" stroke="black" points="30,-211 30,-228 98,-228 98,-211 30,-211"/>
<text text-anchor="start" x="33" y="-218" font-family="Courier,monospace" text-decoration="underline" font-size="10.00">Post</text>
<text text-anchor="start" x="58" y="-218" font-family="Courier,monospace" font-size="10.00"> </text>
<text text-anchor="start" x="65" y="-218" font-family="Courier,monospace" font-style="italic" font-size="10.00">int</text>
</g>
<!-- POST_LIKED&#45;&gt;USER -->
<g id="edge5" class="edge"><title>POST_LIKED:User&#45;&gt;USER:Num</title>
<path fill="none" stroke="black" d="M99,-236C201.198,-236 228.505,-217.306 325.73,-216.065"/>
<polygon fill="black" stroke="black" points="326.022,-219.563 336,-216 325.978,-212.563 326.022,-219.563"/>
</g>
<!-- POST_LIKED&#45;&gt;POST -->
<g id="edge6" class="edge"><title>POST_LIKED:Post&#45;&gt;POST:Num</title>
<path fill="none" stroke="black" d="M99,-219C137.482,-219 131.362,-168.469 161.83,-159.389"/>
<polygon fill="black" stroke="black" points="162.565,-162.821 172,-158 161.618,-155.885 162.565,-162.821"/>
</g>
<!-- COMMENT -->
<g id="node6" class="node"><title>COMMENT</title>
<polygon fill="white" stroke="none" points="127.5,-110.5 0.5,-110.5 0.5,0.5 127.5,0.5 127.5,-110.5"/>
<polygon fill="none" stroke="black" points="9,-88 9,-106 120,-106 120,-88 9,-88"/>
<text text-anchor="start" x="12" y="-95.5" font-family="Courier,monospace" font-weight="bold" font-size="10.00">COMMENT</text>
<polygon fill="none" stroke="black" points="9,-71 9,-88 120,-88 120,-71 9,-71"/>
<text text-anchor="start" x="12" y="-78" font-family="Courier,monospace" text-decoration="underline" font-size="10.00">Post</text>
<text text-anchor="start" x="37" y="-78" font-family="Courier,monospace" font-size="10.00"> </text>
<text text-anchor="start" x="44" y="-78" font-family="Courier,monospace" font-style="italic" font-size="10.00">int</text>
<polygon fill="none" stroke="black" points="9,-54 9,-71 120,-71 120,-54 9,-54"/>
<text text-anchor="start" x="12" y="-61" font-family="Courier,monospace" text-decoration="underline" font-size="10.00">Order</text>
<text text-anchor="start" x="43" y="-61" font-family="Courier,monospace" font-size="10.00"> </text>
<text text-anchor="start" x="50" y="-61" font-family="Courier,monospace" font-style="italic" font-size="10.00">int</text>
<polygon fill="none" stroke="black" points="9,-37 9,-54 120,-54 120,-37 9,-37"/>
<text text-anchor="start" x="12" y="-44" font-family="Courier,monospace" font-size="10.00">Author </text>
<text text-anchor="start" x="55" y="-44" font-family="Courier,monospace" font-style="italic" font-size="10.00">int</text>
<polygon fill="none" stroke="black" points="9,-20 9,-37 120,-37 120,-20 9,-20"/>
<text text-anchor="start" x="12" y="-27" font-family="Courier,monospace" font-size="10.00">Creation </text>
<text text-anchor="start" x="67" y="-27" font-family="Courier,monospace" font-style="italic" font-size="10.00">datetime</text>
<polygon fill="none" stroke="black" points="9,-3 9,-20 120,-20 120,-3 9,-3"/>
<text text-anchor="start" x="12" y="-10" font-family="Courier,monospace" font-size="10.00">Content </text>
<text text-anchor="start" x="61" y="-10" font-family="Courier,monospace" font-style="italic" font-size="10.00">text</text>
</g>
<!-- COMMENT&#45;&gt;USER -->
<g id="edge8" class="edge"><title>COMMENT:Author&#45;&gt;USER:Num</title>
<path fill="none" stroke="black" d="M121,-45C199.052,-45 234.271,-32.4704 292,-85 334.588,-123.752 282.014,-204.981 325.883,-214.983"/>
<polygon fill="black" stroke="black" points="325.7,-218.482 336,-216 326.4,-211.517 325.7,-218.482"/>
</g>
<!-- COMMENT&#45;&gt;POST -->
<g id="edge7" class="edge"><title>COMMENT:Post&#45;&gt;POST:Num</title>
<path fill="none" stroke="black" d="M121,-80C158.536,-80 135.907,-144.061 162.162,-156.072"/>
<polygon fill="black" stroke="black" points="161.514,-159.511 172,-158 162.86,-152.642 161.514,-159.511"/>
</g>
</g>
</svg>
