<?xml version="1.0" encoding="UTF-8" standalone="no"?>
<!DOCTYPE svg PUBLIC "-//W3C//DTD SVG 1.1//EN"
 "http://www.w3.org/Graphics/SVG/1.1/DTD/svg11.dtd">
<!-- Generated by graphviz version 2.40.1 (20161225.0304)
 -->
<!-- Title: %3 Pages: 1 -->
<svg width="440pt" height="311pt"
 viewBox="0.00 0.00 440.00 310.50" xmlns="http://www.w3.org/2000/svg" xmlns:xlink="http://www.w3.org/1999/xlink">
<g id="graph0" class="graph" transform="scale(1 1) rotate(0) translate(4 306.5)">
<title>%3</title>
<polygon fill="#ffffff" stroke="transparent" points="-4,4 -4,-306.5 436,-306.5 436,4 -4,4"/>
<!-- USER -->
<g id="node1" class="node">
<title>USER</title>
<polygon fill="#ffffff" stroke="transparent" points="432,-244.5 324,-244.5 324,-83.5 432,-83.5 432,-244.5"/>
<polygon fill="none" stroke="#000000" points="332,-223 332,-240 424,-240 424,-223 332,-223"/>
<text text-anchor="start" x="335" y="-230" font-family="Courier,monospace" font-weight="bold" font-size="10.00" fill="#000000">USER</text>
<polygon fill="none" stroke="#000000" points="332,-206 332,-223 424,-223 424,-206 332,-206"/>
<text text-anchor="start" x="335" y="-213" font-family="Courier,monospace" text-decoration="underline" font-size="10.00" fill="#000000">Num</text>
<text text-anchor="start" x="354" y="-213" font-family="Courier,monospace" font-size="10.00" fill="#000000"> </text>
<text text-anchor="start" x="361" y="-213" font-family="Courier,monospace" font-style="italic" font-size="10.00" fill="#000000">int</text>
<polygon fill="none" stroke="#000000" points="332,-189 332,-206 424,-206 424,-189 332,-189"/>
<text text-anchor="start" x="335" y="-196" font-family="Courier,monospace" font-size="10.00" fill="#000000">Login </text>
<text text-anchor="start" x="372" y="-196" font-family="Courier,monospace" font-style="italic" font-size="10.00" fill="#000000">varchar</text>
<polygon fill="none" stroke="#000000" points="332,-172 332,-189 424,-189 424,-172 332,-172"/>
<text text-anchor="start" x="335" y="-179" font-family="Courier,monospace" font-size="10.00" fill="#000000">Name </text>
<text text-anchor="start" x="366" y="-179" font-family="Courier,monospace" font-style="italic" font-size="10.00" fill="#000000">varchar</text>
<polygon fill="none" stroke="#000000" points="332,-155 332,-172 424,-172 424,-155 332,-155"/>
<text text-anchor="start" x="335" y="-162" font-family="Courier,monospace" font-size="10.00" fill="#000000">Joined </text>
<text text-anchor="start" x="378" y="-162" font-family="Courier,monospace" font-style="italic" font-size="10.00" fill="#000000">date</text>
<polygon fill="none" stroke="#000000" points="332,-138 332,-155 424,-155 424,-138 332,-138"/>
<text text-anchor="start" x="335" y="-145" font-family="Courier,monospace" font-size="10.00" fill="#000000">BirthDate </text>
<text text-anchor="start" x="396" y="-145" font-family="Courier,monospace" font-style="italic" font-size="10.00" fill="#000000">date</text>
<polygon fill="none" stroke="#000000" points="332,-121 332,-138 424,-138 424,-121 332,-121"/>
<text text-anchor="start" x="335" y="-128" font-family="Courier,monospace" font-size="10.00" fill="#000000">Sex </text>
<text text-anchor="start" x="360" y="-128" font-family="Courier,monospace" font-style="italic" font-size="10.00" fill="#000000">enum</text>
<polygon fill="none" stroke="#000000" points="332,-104 332,-121 424,-121 424,-104 332,-104"/>
<text text-anchor="start" x="335" y="-111" font-family="Courier,monospace" font-size="10.00" fill="#000000">Phone ? </text>
<text text-anchor="start" x="384" y="-111" font-family="Courier,monospace" font-style="italic" font-size="10.00" fill="#000000">int</text>
<polygon fill="none" stroke="#000000" points="332,-87 332,-104 424,-104 424,-87 332,-87"/>
<text text-anchor="start" x="335" y="-94" font-family="Courier,monospace" font-size="10.00" fill="#000000">Email </text>
<text text-anchor="start" x="372" y="-94" font-family="Courier,monospace" font-style="italic" font-size="10.00" fill="#000000">varchar</text>
</g>
<!-- FOLLOWS -->
<g id="node2" class="node">
<title>FOLLOWS</title>
<polygon fill="#ffffff" stroke="transparent" points="273.5,-302.5 176.5,-302.5 176.5,-243.5 273.5,-243.5 273.5,-302.5"/>
<polygon fill="none" stroke="#000000" points="185,-281 185,-298 266,-298 266,-281 185,-281"/>
<text text-anchor="start" x="188" y="-288" font-family="Courier,monospace" font-weight="bold" font-size="10.00" fill="#000000">FOLLOWS</text>
<polygon fill="none" stroke="#000000" points="185,-264 185,-281 266,-281 266,-264 185,-264"/>
<text text-anchor="start" x="188" y="-271" font-family="Courier,monospace" text-decoration="underline" font-size="10.00" fill="#000000">Followed</text>
<text text-anchor="start" x="237" y="-271" font-family="Courier,monospace" font-size="10.00" fill="#000000"> </text>
<text text-anchor="start" x="244" y="-271" font-family="Courier,monospace" font-style="italic" font-size="10.00" fill="#000000">int</text>
<polygon fill="none" stroke="#000000" points="185,-247 185,-264 266,-264 266,-247 185,-247"/>
<text text-anchor="start" x="188" y="-254" font-family="Courier,monospace" text-decoration="underline" font-size="10.00" fill="#000000">Follower</text>
<text text-anchor="start" x="237" y="-254" font-family="Courier,monospace" font-size="10.00" fill="#000000"> </text>
<text text-anchor="start" x="244" y="-254" font-family="Courier,monospace" font-style="italic" font-size="10.00" fill="#000000">int</text>
</g>
<!-- FOLLOWS&#45;&gt;USER -->
<g id="edge1" class="edge">
<title>FOLLOWS:Followed&#45;&gt;USER:Num</title>
<path fill="none" stroke="#000000" d="M266,-272C300.9735,-272 295.0114,-225.5892 321.9897,-216.5246"/>
<polygon fill="#000000" stroke="#000000" points="322.641,-219.9659 332,-215 321.587,-213.0457 322.641,-219.9659"/>
</g>
<!-- FOLLOWS&#45;&gt;USER -->
<g id="edge2" class="edge">
<title>FOLLOWS:Follower&#45;&gt;USER:Num</title>
<path fill="none" stroke="#000000" d="M266,-255C296.5485,-255 297.8273,-223.2715 321.973,-216.3309"/>
<polygon fill="#000000" stroke="#000000" points="322.5475,-219.7854 332,-215 321.6264,-212.8463 322.5475,-219.7854"/>
</g>
<!-- POST -->
<g id="node3" class="node">
<title>POST</title>
<polygon fill="#ffffff" stroke="transparent" points="288,-186.5 162,-186.5 162,-93.5 288,-93.5 288,-186.5"/>
<polygon fill="none" stroke="#000000" points="170,-165 170,-182 280,-182 280,-165 170,-165"/>
<text text-anchor="start" x="173" y="-172" font-family="Courier,monospace" font-weight="bold" font-size="10.00" fill="#000000">POST</text>
<polygon fill="none" stroke="#000000" points="170,-148 170,-165 280,-165 280,-148 170,-148"/>
<text text-anchor="start" x="173" y="-155" font-family="Courier,monospace" text-decoration="underline" font-size="10.00" fill="#000000">Num</text>
<text text-anchor="start" x="192" y="-155" font-family="Courier,monospace" font-size="10.00" fill="#000000"> </text>
<text text-anchor="start" x="199" y="-155" font-family="Courier,monospace" font-style="italic" font-size="10.00" fill="#000000">int</text>
<polygon fill="none" stroke="#000000" points="170,-131 170,-148 280,-148 280,-131 170,-131"/>
<text text-anchor="start" x="173" y="-138" font-family="Courier,monospace" font-size="10.00" fill="#000000">Author </text>
<text text-anchor="start" x="216" y="-138" font-family="Courier,monospace" font-style="italic" font-size="10.00" fill="#000000">int</text>
<polygon fill="none" stroke="#000000" points="170,-114 170,-131 280,-131 280,-114 170,-114"/>
<text text-anchor="start" x="173" y="-121" font-family="Courier,monospace" font-size="10.00" fill="#000000">Creation </text>
<text text-anchor="start" x="228" y="-121" font-family="Courier,monospace" font-style="italic" font-size="10.00" fill="#000000">datetime</text>
<polygon fill="none" stroke="#000000" points="170,-97 170,-114 280,-114 280,-97 170,-97"/>
<text text-anchor="start" x="173" y="-104" font-family="Courier,monospace" font-size="10.00" fill="#000000">Content </text>
<text text-anchor="start" x="222" y="-104" font-family="Courier,monospace" font-style="italic" font-size="10.00" fill="#000000">text</text>
</g>
<!-- POST&#45;&gt;USER -->
<g id="edge3" class="edge">
<title>POST:Author&#45;&gt;USER:Num</title>
<path fill="none" stroke="#000000" d="M280,-139C316.9307,-139 296.2285,-200.881 321.9028,-212.9672"/>
<polygon fill="#000000" stroke="#000000" points="321.5059,-216.4574 332,-215 322.8875,-209.5951 321.5059,-216.4574"/>
</g>
<!-- HASHTAG -->
<g id="node4" class="node">
<title>HASHTAG</title>
<polygon fill="#ffffff" stroke="transparent" points="108.5,-187.5 17.5,-187.5 17.5,-128.5 108.5,-128.5 108.5,-187.5"/>
<polygon fill="none" stroke="#000000" points="26,-166 26,-183 101,-183 101,-166 26,-166"/>
<text text-anchor="start" x="29" y="-173" font-family="Courier,monospace" font-weight="bold" font-size="10.00" fill="#000000">HASHTAG</text>
<polygon fill="none" stroke="#000000" points="26,-149 26,-166 101,-166 101,-149 26,-149"/>
<text text-anchor="start" x="29" y="-156" font-family="Courier,monospace" text-decoration="underline" font-size="10.00" fill="#000000">Post</text>
<text text-anchor="start" x="54" y="-156" font-family="Courier,monospace" font-size="10.00" fill="#000000"> </text>
<text text-anchor="start" x="61" y="-156" font-family="Courier,monospace" font-style="italic" font-size="10.00" fill="#000000">int</text>
<polygon fill="none" stroke="#000000" points="26,-132 26,-149 101,-149 101,-132 26,-132"/>
<text text-anchor="start" x="29" y="-139" font-family="Courier,monospace" text-decoration="underline" font-size="10.00" fill="#000000">Tag</text>
<text text-anchor="start" x="48" y="-139" font-family="Courier,monospace" font-size="10.00" fill="#000000"> </text>
<text text-anchor="start" x="55" y="-139" font-family="Courier,monospace" font-style="italic" font-size="10.00" fill="#000000">varchar</text>
</g>
<!-- HASHTAG&#45;&gt;POST -->
<g id="edge4" class="edge">
<title>HASHTAG:Post&#45;&gt;POST:Num</title>
<path fill="none" stroke="#000000" d="M101,-157C127.9531,-157 137.1393,-157 159.7895,-157"/>
<polygon fill="#000000" stroke="#000000" points="160,-160.5001 170,-157 160,-153.5001 160,-160.5001"/>
</g>
<!-- POST_LIKED -->
<g id="node5" class="node">
<title>POST_LIKED</title>
<polygon fill="#ffffff" stroke="transparent" points="104.5,-264.5 21.5,-264.5 21.5,-205.5 104.5,-205.5 104.5,-264.5"/>
<polygon fill="none" stroke="#000000" points="30,-243 30,-260 97,-260 97,-243 30,-243"/>
<text text-anchor="start" x="33" y="-250" font-family="Courier,monospace" font-weight="bold" font-size="10.00" fill="#000000">POST_LIKED</text>
<polygon fill="none" stroke="#000000" points="30,-226 30,-243 97,-243 97,-226 30,-226"/>
<text text-anchor="start" x="33" y="-233" font-family="Courier,monospace" text-decoration="underline" font-size="10.00" fill="#000000">User</text>
<text text-anchor="start" x="58" y="-233" font-family="Courier,monospace" font-size="10.00" fill="#000000"> </text>
<text text-anchor="start" x="65" y="-233" font-family="Courier,monospace" font-style="italic" font-size="10.00" fill="#000000">int</text>
<polygon fill="none" stroke="#000000" points="30,-209 30,-226 97,-226 97,-209 30,-209"/>
<text text-anchor="start" x="33" y="-216" font-family="Courier,monospace" text-decoration="underline" font-size="10.00" fill="#000000">Post</text>
<text text-anchor="start" x="58" y="-216" font-family="Courier,monospace" font-size="10.00" fill="#000000"> </text>
<text text-anchor="start" x="65" y="-216" font-family="Courier,monospace" font-style="italic" font-size="10.00" fill="#000000">int</text>
</g>
<!-- POST_LIKED&#45;&gt;USER -->
<g id="edge5" class="edge">
<title>POST_LIKED:User&#45;&gt;USER:Num</title>
<path fill="none" stroke="#000000" d="M97,-234C198.3061,-234 225.4386,-216.2408 321.8191,-215.0614"/>
<polygon fill="#000000" stroke="#000000" points="322.0213,-218.5604 332,-215 321.979,-211.5605 322.0213,-218.5604"/>
</g>
<!-- POST_LIKED&#45;&gt;POST -->
<g id="edge6" class="edge">
<title>POST_LIKED:Post&#45;&gt;POST:Num</title>
<path fill="none" stroke="#000000" d="M97,-217C135.2239,-217 129.5507,-167.2969 159.8868,-158.3659"/>
<polygon fill="#000000" stroke="#000000" points="160.5585,-161.8071 170,-157 159.6215,-154.8701 160.5585,-161.8071"/>
</g>
<!-- COMMENT -->
<g id="node6" class="node">
<title>COMMENT</title>
<polygon fill="#ffffff" stroke="transparent" points="126,-110 0,-110 0,0 126,0 126,-110"/>
<polygon fill="none" stroke="#000000" points="8,-89 8,-106 118,-106 118,-89 8,-89"/>
<text text-anchor="start" x="11" y="-96" font-family="Courier,monospace" font-weight="bold" font-size="10.00" fill="#000000">COMMENT</text>
<polygon fill="none" stroke="#000000" points="8,-72 8,-89 118,-89 118,-72 8,-72"/>
<text text-anchor="start" x="11" y="-79" font-family="Courier,monospace" text-decoration="underline" font-size="10.00" fill="#000000">Post</text>
<text text-anchor="start" x="36" y="-79" font-family="Courier,monospace" font-size="10.00" fill="#000000"> </text>
<text text-anchor="start" x="43" y="-79" font-family="Courier,monospace" font-style="italic" font-size="10.00" fill="#000000">int</text>
<polygon fill="none" stroke="#000000" points="8,-55 8,-72 118,-72 118,-55 8,-55"/>
<text text-anchor="start" x="11" y="-62" font-family="Courier,monospace" text-decoration="underline" font-size="10.00" fill="#000000">Order</text>
<text text-anchor="start" x="42" y="-62" font-family="Courier,monospace" font-size="10.00" fill="#000000"> </text>
<text text-anchor="start" x="49" y="-62" font-family="Courier,monospace" font-style="italic" font-size="10.00" fill="#000000">int</text>
<polygon fill="none" stroke="#000000" points="8,-38 8,-55 118,-55 118,-38 8,-38"/>
<text text-anchor="start" x="11" y="-45" font-family="Courier,monospace" font-size="10.00" fill="#000000">Author </text>
<text text-anchor="start" x="54" y="-45" font-family="Courier,monospace" font-style="italic" font-size="10.00" fill="#000000">int</text>
<polygon fill="none" stroke="#000000" points="8,-21 8,-38 118,-38 118,-21 8,-21"/>
<text text-anchor="start" x="11" y="-28" font-family="Courier,monospace" font-size="10.00" fill="#000000">Creation </text>
<text text-anchor="start" x="66" y="-28" font-family="Courier,monospace" font-style="italic" font-size="10.00" fill="#000000">datetime</text>
<polygon fill="none" stroke="#000000" points="8,-4 8,-21 118,-21 118,-4 8,-4"/>
<text text-anchor="start" x="11" y="-11" font-family="Courier,monospace" font-size="10.00" fill="#000000">Content </text>
<text text-anchor="start" x="60" y="-11" font-family="Courier,monospace" font-style="italic" font-size="10.00" fill="#000000">text</text>
</g>
<!-- COMMENT&#45;&gt;USER -->
<g id="edge8" class="edge">
<title>COMMENT:Author&#45;&gt;USER:Num</title>
<path fill="none" stroke="#000000" d="M118,-46C195.5183,-46 230.4932,-33.0187 288,-85 330.4227,-123.3465 278.3637,-204.0511 321.9509,-213.9894"/>
<polygon fill="#000000" stroke="#000000" points="321.6999,-217.4817 332,-215 322.4004,-210.5169 321.6999,-217.4817"/>
</g>
<!-- COMMENT&#45;&gt;POST -->
<g id="edge7" class="edge">
<title>COMMENT:Post&#45;&gt;POST:Num</title>
<path fill="none" stroke="#000000" d="M118,-81C154.9307,-81 134.2285,-142.881 159.9028,-154.9672"/>
<polygon fill="#000000" stroke="#000000" points="159.5059,-158.4574 170,-157 160.8875,-151.5951 159.5059,-158.4574"/>
</g>
</g>
</svg>
