<?xml version="1.0" encoding="UTF-8" standalone="no"?>
<!DOCTYPE svg PUBLIC "-//W3C//DTD SVG 1.1//EN"
 "http://www.w3.org/Graphics/SVG/1.1/DTD/svg11.dtd">
<!-- Generated by graphviz version 2.36.0 (20140111.2315)
 -->
<!-- Title: %3 Pages: 1 -->
<svg width="468pt" height="384pt"
 viewBox="0.00 0.00 468.00 384.00" xmlns="http://www.w3.org/2000/svg" xmlns:xlink="http://www.w3.org/1999/xlink">
<g id="graph0" class="graph" transform="scale(1 1) rotate(0) translate(4 380)">
<title>%3</title>
<polygon fill="white" stroke="none" points="-4,4 -4,-380 464,-380 464,4 -4,4"/>
<!-- EntityA -->
<g id="node1" class="node"><title>EntityA</title>
<polygon fill="white" stroke="black" points="151.5,-264 92.5,-264 92.5,-228 151.5,-228 151.5,-264"/>
<text text-anchor="middle" x="122" y="-243.5" font-family="Courier,monospace" font-size="10.00">EntityA</text>
</g>
<!-- IdentRelA -->
<g id="node8" class="node"><title>IdentRelA</title>
<polygon fill="white" stroke="black" points="269,-264.148 210.024,-246 269,-227.852 327.976,-246 269,-264.148"/>
<polygon fill="none" stroke="black" points="269,-268.364 196.324,-246 269,-223.636 341.676,-246 269,-268.364"/>
<text text-anchor="middle" x="269" y="-243.5" font-family="Courier,monospace" font-size="10.00">IdentRelA</text>
</g>
<!-- EntityA&#45;&#45;IdentRelA -->
<g id="edge5" class="edge"><title>EntityA&#45;&#45;IdentRelA</title>
<path fill="none" stroke="black" d="M151.647,-246C164.523,-246 180.354,-246 196.144,-246"/>
<text text-anchor="middle" x="174" y="-249" font-family="Courier,monospace" font-size="10.00">1</text>
</g>
<!-- EntityA_KeyA -->
<g id="node2" class="node"><title>EntityA_KeyA</title>
<ellipse fill="white" stroke="black" cx="27" cy="-246" rx="27" ry="18"/>
<text text-anchor="start" x="14.5" y="-244.5" font-family="Courier,monospace" text-decoration="underline" font-size="10.00">KeyA</text>
</g>
<!-- EntityA_KeyA&#45;&#45;EntityA -->
<g id="edge1" class="edge"><title>EntityA_KeyA&#45;&#45;EntityA</title>
<path fill="none" stroke="black" d="M54.4013,-246C66.2155,-246 80.1731,-246 92.2508,-246"/>
</g>
<!-- EntityB -->
<g id="node3" class="node"><title>EntityB</title>
<polygon fill="white" stroke="black" points="151.5,-90 92.5,-90 92.5,-54 151.5,-54 151.5,-90"/>
<text text-anchor="middle" x="122" y="-69.5" font-family="Courier,monospace" font-size="10.00">EntityB</text>
</g>
<!-- Re -->
<g id="node9" class="node"><title>Re</title>
<polygon fill="white" stroke="black" points="269,-206 242,-188 269,-170 296,-188 269,-206"/>
<text text-anchor="middle" x="269" y="-185.5" font-family="Courier,monospace" font-size="10.00">Re</text>
</g>
<!-- EntityB&#45;&#45;Re -->
<g id="edge7" class="edge"><title>EntityB&#45;&#45;Re</title>
<path fill="none" stroke="black" d="M133.722,-90.1057C146.339,-110 169.026,-141.69 196,-161 211.848,-172.346 233.038,-179.532 248.322,-183.613"/>
<text text-anchor="middle" x="174" y="-148" font-family="Courier,monospace" font-size="10.00">M</text>
</g>
<!-- IdentRelB -->
<g id="node13" class="node"><title>IdentRelB</title>
<polygon fill="white" stroke="black" points="269,-40.1484 210.024,-22 269,-3.85161 327.976,-22 269,-40.1484"/>
<polygon fill="none" stroke="black" points="269,-44.3642 196.324,-22 269,0.36423 341.676,-22 269,-44.3642"/>
<text text-anchor="middle" x="269" y="-19.5" font-family="Courier,monospace" font-size="10.00">IdentRelB</text>
</g>
<!-- EntityB&#45;&#45;IdentRelB -->
<g id="edge11" class="edge"><title>EntityB&#45;&#45;IdentRelB</title>
<path fill="none" stroke="black" d="M150.995,-60.2309C174.683,-52.0628 208.374,-40.4452 233.411,-31.8118"/>
<path fill="none" stroke="none" d="M151.647,-62.1216C175.335,-53.9536 209.026,-42.336 234.063,-33.7026"/>
<path fill="none" stroke="black" d="M152.299,-64.0124C175.987,-55.8443 209.678,-44.2267 234.715,-35.5933"/>
<text text-anchor="middle" x="174" y="-58" font-family="Courier,monospace" font-size="10.00">1</text>
</g>
<!-- EntityB_KeyB -->
<g id="node4" class="node"><title>EntityB_KeyB</title>
<ellipse fill="white" stroke="black" cx="27" cy="-72" rx="27" ry="18"/>
<text text-anchor="start" x="14.5" y="-70.5" font-family="Courier,monospace" text-decoration="underline" font-size="10.00">KeyB</text>
</g>
<!-- EntityB_KeyB&#45;&#45;EntityB -->
<g id="edge2" class="edge"><title>EntityB_KeyB&#45;&#45;EntityB</title>
<path fill="none" stroke="black" d="M54.4013,-72C66.2155,-72 80.1731,-72 92.2508,-72"/>
</g>
<!-- WeakEntA -->
<g id="node5" class="node"><title>WeakEntA</title>
<polygon fill="white" stroke="black" points="455.5,-301 390.5,-301 390.5,-265 455.5,-265 455.5,-301"/>
<polygon fill="none" stroke="black" points="459.5,-305 386.5,-305 386.5,-261 459.5,-261 459.5,-305"/>
<text text-anchor="middle" x="423" y="-280.5" font-family="Courier,monospace" font-size="10.00">WeakEntA</text>
</g>
<!-- WeakEntA_PKeyA -->
<g id="node6" class="node"><title>WeakEntA_PKeyA</title>
<ellipse fill="white" stroke="black" cx="269" cy="-358" rx="27.8353" ry="18"/>
<text text-anchor="start" x="253.5" y="-356.5" font-family="Courier,monospace" text-decoration="underline" font-size="10.00">PKeyA</text>
</g>
<!-- WeakEntA_PKeyA&#45;&#45;WeakEntA -->
<g id="edge3" class="edge"><title>WeakEntA_PKeyA&#45;&#45;WeakEntA</title>
<path fill="none" stroke="black" d="M294.127,-350.184C308.329,-345.282 326.49,-338.484 342,-331 357.609,-323.468 374.145,-313.847 388.107,-305.199"/>
</g>
<!-- WeakEntA_OtherWA -->
<g id="node7" class="node"><title>WeakEntA_OtherWA</title>
<ellipse fill="white" stroke="black" cx="269" cy="-304" rx="34.9638" ry="18"/>
<text text-anchor="middle" x="269" y="-301.5" font-family="Courier,monospace" font-size="10.00">OtherWA</text>
</g>
<!-- WeakEntA_OtherWA&#45;&#45;WeakEntA -->
<g id="edge4" class="edge"><title>WeakEntA_OtherWA&#45;&#45;WeakEntA</title>
<path fill="none" stroke="black" d="M302.982,-299.443C327.604,-296.042 361.209,-291.399 386.432,-287.914"/>
</g>
<!-- IdentRelA&#45;&#45;WeakEntA -->
<g id="edge6" class="edge"><title>IdentRelA&#45;&#45;WeakEntA</title>
<path fill="none" stroke="black" d="M310.807,-253.875C334.466,-259.634 364.088,-266.845 386.877,-272.392"/>
<path fill="none" stroke="none" d="M310.334,-255.818C333.993,-261.577 363.615,-268.788 386.404,-274.335"/>
<path fill="none" stroke="black" d="M309.861,-257.761C333.52,-263.52 363.142,-270.731 385.931,-276.278"/>
<text text-anchor="middle" x="364" y="-271" font-family="Courier,monospace" font-size="10.00">N</text>
</g>
<!-- Re&#45;&#45;WeakEntA -->
<g id="edge8" class="edge"><title>Re&#45;&#45;WeakEntA</title>
<path fill="none" stroke="black" d="M288.538,-193.014C303.566,-197.525 324.969,-204.984 342,-215 363.526,-227.66 384.924,-246.244 400.166,-260.787"/>
<text text-anchor="middle" x="364" y="-234" font-family="Courier,monospace" font-size="10.00">N</text>
</g>
<!-- WeakEntB -->
<g id="node10" class="node"><title>WeakEntB</title>
<polygon fill="white" stroke="black" points="455.5,-98 390.5,-98 390.5,-62 455.5,-62 455.5,-98"/>
<polygon fill="none" stroke="black" points="459.5,-102 386.5,-102 386.5,-58 459.5,-58 459.5,-102"/>
<text text-anchor="middle" x="423" y="-77.5" font-family="Courier,monospace" font-size="10.00">WeakEntB</text>
</g>
<!-- WeakEntB_PKeyWB -->
<g id="node11" class="node"><title>WeakEntB_PKeyWB</title>
<ellipse fill="white" stroke="black" cx="269" cy="-134" rx="31.3996" ry="18"/>
<text text-anchor="start" x="250.5" y="-132.5" font-family="Courier,monospace" text-decoration="underline" font-size="10.00">PKeyWB</text>
</g>
<!-- WeakEntB_PKeyWB&#45;&#45;WeakEntB -->
<g id="edge9" class="edge"><title>WeakEntB_PKeyWB&#45;&#45;WeakEntB</title>
<path fill="none" stroke="black" d="M296.13,-124.717C321,-115.882 358.626,-102.514 386.264,-92.6955"/>
</g>
<!-- WeakEntB_OtherWB -->
<g id="node12" class="node"><title>WeakEntB_OtherWB</title>
<ellipse fill="white" stroke="black" cx="269" cy="-80" rx="34.9638" ry="18"/>
<text text-anchor="middle" x="269" y="-77.5" font-family="Courier,monospace" font-size="10.00">OtherWB</text>
</g>
<!-- WeakEntB_OtherWB&#45;&#45;WeakEntB -->
<g id="edge10" class="edge"><title>WeakEntB_OtherWB&#45;&#45;WeakEntB</title>
<path fill="none" stroke="black" d="M303.734,-80C328.223,-80 361.297,-80 386.243,-80"/>
</g>
<!-- IdentRelB&#45;&#45;WeakEntB -->
<g id="edge12" class="edge"><title>IdentRelB&#45;&#45;WeakEntB</title>
<path fill="none" stroke="black" d="M302.948,-32.4317C327.61,-41.8422 361.599,-54.8117 387.07,-64.5307"/>
<path fill="none" stroke="none" d="M302.235,-34.3003C326.897,-43.7108 360.886,-56.6803 386.357,-66.3993"/>
<path fill="none" stroke="black" d="M301.522,-36.1689C326.184,-45.5794 360.173,-58.5488 385.644,-68.2679"/>
<text text-anchor="middle" x="364" y="-61" font-family="Courier,monospace" font-size="10.00">N</text>
</g>
</g>
</svg>
