<?xml version="1.0" encoding="UTF-8" standalone="no"?>
<!DOCTYPE svg PUBLIC "-//W3C//DTD SVG 1.1//EN"
 "http://www.w3.org/Graphics/SVG/1.1/DTD/svg11.dtd">
<!-- Generated by graphviz version 2.40.1 (20161225.0304)
 -->
<!-- Title: %3 Pages: 1 -->
<svg width="463pt" height="384pt"
 viewBox="0.00 0.00 462.68 384.18" xmlns="http://www.w3.org/2000/svg" xmlns:xlink="http://www.w3.org/1999/xlink">
<g id="graph0" class="graph" transform="scale(1 1) rotate(0) translate(4 380.1814)">
<title>%3</title>
<polygon fill="#ffffff" stroke="transparent" points="-4,4 -4,-380.1814 458.6753,-380.1814 458.6753,4 -4,4"/>
<!-- EntityA -->
<g id="node1" class="node">
<title>EntityA</title>
<polygon fill="#ffffff" stroke="#000000" points="150,-264.1814 91,-264.1814 91,-228.1814 150,-228.1814 150,-264.1814"/>
<text text-anchor="middle" x="120.5" y="-243.6814" font-family="Courier,monospace" font-size="10.00" fill="#000000">EntityA</text>
</g>
<!-- IdentRelA -->
<g id="node8" class="node">
<title>IdentRelA</title>
<polygon fill="#ffffff" stroke="#000000" points="265.8376,-264.3298 206.8619,-246.1814 265.8376,-228.033 324.8133,-246.1814 265.8376,-264.3298"/>
<polygon fill="none" stroke="#000000" points="265.8376,-268.5456 193.162,-246.1814 265.8376,-223.8171 338.5133,-246.1814 265.8376,-268.5456"/>
<text text-anchor="middle" x="265.8376" y="-243.6814" font-family="Courier,monospace" font-size="10.00" fill="#000000">IdentRelA</text>
</g>
<!-- EntityA&#45;&#45;IdentRelA -->
<g id="edge5" class="edge">
<title>EntityA&#45;&#45;IdentRelA</title>
<path fill="none" stroke="#000000" d="M150.262,-246.1814C162.7191,-246.1814 177.7971,-246.1814 192.8911,-246.1814"/>
<text text-anchor="middle" x="171.5" y="-249.1814" font-family="Courier,monospace" font-size="10.00" fill="#000000">1</text>
</g>
<!-- EntityA_KeyA -->
<g id="node2" class="node">
<title>EntityA_KeyA</title>
<ellipse fill="#ffffff" stroke="#000000" cx="27" cy="-246.1814" rx="27" ry="18"/>
<text text-anchor="start" x="14.5" y="-244.6814" font-family="Courier,monospace" text-decoration="underline" font-size="10.00" fill="#000000">KeyA</text>
</g>
<!-- EntityA_KeyA&#45;&#45;EntityA -->
<g id="edge1" class="edge">
<title>EntityA_KeyA&#45;&#45;EntityA</title>
<path fill="none" stroke="#000000" d="M54.0441,-246.1814C65.5859,-246.1814 79.0892,-246.1814 90.898,-246.1814"/>
</g>
<!-- EntityB -->
<g id="node3" class="node">
<title>EntityB</title>
<polygon fill="#ffffff" stroke="#000000" points="150,-107.1814 91,-107.1814 91,-71.1814 150,-71.1814 150,-107.1814"/>
<text text-anchor="middle" x="120.5" y="-86.6814" font-family="Courier,monospace" font-size="10.00" fill="#000000">EntityB</text>
</g>
<!-- Re -->
<g id="node9" class="node">
<title>Re</title>
<polygon fill="#ffffff" stroke="#000000" points="265.8376,-206.1814 238.8376,-188.1814 265.8376,-170.1814 292.8376,-188.1814 265.8376,-206.1814"/>
<text text-anchor="middle" x="265.8376" y="-185.6814" font-family="Courier,monospace" font-size="10.00" fill="#000000">Re</text>
</g>
<!-- EntityB&#45;&#45;Re -->
<g id="edge7" class="edge">
<title>EntityB&#45;&#45;Re</title>
<path fill="none" stroke="#000000" d="M134.8926,-107.3594C148.4183,-123.407 169.978,-146.4749 193,-161.1814 209.4797,-171.7086 230.6584,-178.9725 245.9262,-183.2925"/>
<text text-anchor="middle" x="171.5" y="-149.1814" font-family="Courier,monospace" font-size="10.00" fill="#000000">M</text>
</g>
<!-- IdentRelB -->
<g id="node13" class="node">
<title>IdentRelB</title>
<polygon fill="#ffffff" stroke="#000000" points="265.8376,-40.3298 206.8619,-22.1814 265.8376,-4.033 324.8133,-22.1814 265.8376,-40.3298"/>
<polygon fill="none" stroke="#000000" points="265.8376,-44.5456 193.162,-22.1814 265.8376,.1829 338.5133,-22.1814 265.8376,-44.5456"/>
<text text-anchor="middle" x="265.8376" y="-19.6814" font-family="Courier,monospace" font-size="10.00" fill="#000000">IdentRelB</text>
</g>
<!-- EntityB&#45;&#45;IdentRelB -->
<g id="edge11" class="edge">
<title>EntityB&#45;&#45;IdentRelB</title>
<path fill="none" stroke="#000000" d="M149.394,-72.1108C162.4365,-65.5477 177.9485,-57.9129 192.1633,-51.3648 205.6904,-45.1349 220.7604,-38.6474 233.6956,-33.2145"/>
<path fill="none" stroke="transparent" d="M150.293,-73.8974C163.3197,-67.3421 178.8317,-59.7073 193,-53.1814 206.4812,-46.9719 221.5512,-40.4844 234.47,-35.0585"/>
<path fill="none" stroke="#000000" d="M151.192,-75.6839C164.2029,-69.1365 179.7149,-61.5017 193.8367,-54.9979 207.272,-48.8089 222.342,-42.3214 235.2445,-36.9025"/>
<text text-anchor="middle" x="171.5" y="-68.1814" font-family="Courier,monospace" font-size="10.00" fill="#000000">1</text>
</g>
<!-- EntityB_KeyB -->
<g id="node4" class="node">
<title>EntityB_KeyB</title>
<ellipse fill="#ffffff" stroke="#000000" cx="27" cy="-89.1814" rx="27" ry="18"/>
<text text-anchor="start" x="14.5" y="-87.6814" font-family="Courier,monospace" text-decoration="underline" font-size="10.00" fill="#000000">KeyB</text>
</g>
<!-- EntityB_KeyB&#45;&#45;EntityB -->
<g id="edge2" class="edge">
<title>EntityB_KeyB&#45;&#45;EntityB</title>
<path fill="none" stroke="#000000" d="M54.0441,-89.1814C65.5859,-89.1814 79.0892,-89.1814 90.898,-89.1814"/>
</g>
<!-- WeakEntA -->
<g id="node5" class="node">
<title>WeakEntA</title>
<polygon fill="#ffffff" stroke="#000000" points="450.6753,-295.1814 385.6753,-295.1814 385.6753,-259.1814 450.6753,-259.1814 450.6753,-295.1814"/>
<polygon fill="none" stroke="#000000" points="454.6753,-299.1814 381.6753,-299.1814 381.6753,-255.1814 454.6753,-255.1814 454.6753,-299.1814"/>
<text text-anchor="middle" x="418.1753" y="-274.6814" font-family="Courier,monospace" font-size="10.00" fill="#000000">WeakEntA</text>
</g>
<!-- WeakEntA_PKeyA -->
<g id="node6" class="node">
<title>WeakEntA_PKeyA</title>
<ellipse fill="#ffffff" stroke="#000000" cx="265.8376" cy="-358.1814" rx="27.8353" ry="18"/>
<text text-anchor="start" x="250.3376" y="-356.6814" font-family="Courier,monospace" text-decoration="underline" font-size="10.00" fill="#000000">PKeyA</text>
</g>
<!-- WeakEntA_PKeyA&#45;&#45;WeakEntA -->
<g id="edge3" class="edge">
<title>WeakEntA_PKeyA&#45;&#45;WeakEntA</title>
<path fill="none" stroke="#000000" d="M291.0854,-350.4997C305.4054,-345.7332 323.4503,-339.027 338.6753,-331.1814 356.3248,-322.0863 374.7441,-309.7785 389.4039,-299.2101"/>
</g>
<!-- WeakEntA_OtherWA -->
<g id="node7" class="node">
<title>WeakEntA_OtherWA</title>
<ellipse fill="#ffffff" stroke="#000000" cx="265.8376" cy="-304.1814" rx="34.9638" ry="18"/>
<text text-anchor="middle" x="265.8376" y="-301.6814" font-family="Courier,monospace" font-size="10.00" fill="#000000">OtherWA</text>
</g>
<!-- WeakEntA_OtherWA&#45;&#45;WeakEntA -->
<g id="edge4" class="edge">
<title>WeakEntA_OtherWA&#45;&#45;WeakEntA</title>
<path fill="none" stroke="#000000" d="M298.8926,-298.3228C323.2197,-294.0111 356.2954,-288.1488 381.4473,-283.691"/>
</g>
<!-- IdentRelA&#45;&#45;WeakEntA -->
<g id="edge6" class="edge">
<title>IdentRelA&#45;&#45;WeakEntA</title>
<path fill="none" stroke="#000000" d="M310.2988,-253.188C332.9701,-257.8015 360.2864,-263.3603 381.8097,-267.7402"/>
<path fill="none" stroke="transparent" d="M309.9,-255.1479C332.5713,-259.7614 359.8876,-265.3201 381.4109,-269.7"/>
<path fill="none" stroke="#000000" d="M309.5012,-257.1077C332.1725,-261.7212 359.4888,-267.2799 381.0121,-271.6598"/>
<text text-anchor="middle" x="360.1753" y="-268.1814" font-family="Courier,monospace" font-size="10.00" fill="#000000">N</text>
</g>
<!-- Re&#45;&#45;WeakEntA -->
<g id="edge8" class="edge">
<title>Re&#45;&#45;WeakEntA</title>
<path fill="none" stroke="#000000" d="M285.0996,-193.541C300.2056,-198.1587 321.4782,-205.5921 338.6753,-215.1814 358.5485,-226.2629 378.739,-242.0779 393.7996,-254.9613"/>
<text text-anchor="middle" x="360.1753" y="-232.1814" font-family="Courier,monospace" font-size="10.00" fill="#000000">N</text>
</g>
<!-- WeakEntB -->
<g id="node10" class="node">
<title>WeakEntB</title>
<polygon fill="#ffffff" stroke="#000000" points="450.6753,-98.1814 385.6753,-98.1814 385.6753,-62.1814 450.6753,-62.1814 450.6753,-98.1814"/>
<polygon fill="none" stroke="#000000" points="454.6753,-102.1814 381.6753,-102.1814 381.6753,-58.1814 454.6753,-58.1814 454.6753,-102.1814"/>
<text text-anchor="middle" x="418.1753" y="-77.6814" font-family="Courier,monospace" font-size="10.00" fill="#000000">WeakEntB</text>
</g>
<!-- WeakEntB_PKeyWB -->
<g id="node11" class="node">
<title>WeakEntB_PKeyWB</title>
<ellipse fill="#ffffff" stroke="#000000" cx="265.8376" cy="-134.1814" rx="31.3996" ry="18"/>
<text text-anchor="start" x="247.3376" y="-132.6814" font-family="Courier,monospace" text-decoration="underline" font-size="10.00" fill="#000000">PKeyWB</text>
</g>
<!-- WeakEntB_PKeyWB&#45;&#45;WeakEntB -->
<g id="edge9" class="edge">
<title>WeakEntB_PKeyWB&#45;&#45;WeakEntB</title>
<path fill="none" stroke="#000000" d="M292.7219,-124.6516C317.4072,-115.9012 354.1955,-102.8607 381.5587,-93.1611"/>
</g>
<!-- WeakEntB_OtherWB -->
<g id="node12" class="node">
<title>WeakEntB_OtherWB</title>
<ellipse fill="#ffffff" stroke="#000000" cx="265.8376" cy="-80.1814" rx="34.9638" ry="18"/>
<text text-anchor="middle" x="265.8376" y="-77.6814" font-family="Courier,monospace" font-size="10.00" fill="#000000">OtherWB</text>
</g>
<!-- WeakEntB_OtherWB&#45;&#45;WeakEntB -->
<g id="edge10" class="edge">
<title>WeakEntB_OtherWB&#45;&#45;WeakEntB</title>
<path fill="none" stroke="#000000" d="M300.787,-80.1814C324.9436,-80.1814 357.0157,-80.1814 381.5314,-80.1814"/>
</g>
<!-- IdentRelB&#45;&#45;WeakEntB -->
<g id="edge12" class="edge">
<title>IdentRelB&#45;&#45;WeakEntB</title>
<path fill="none" stroke="#000000" d="M299.2295,-32.7547C323.6212,-42.0414 356.9608,-54.7349 382.2536,-64.3648"/>
<path fill="none" stroke="transparent" d="M298.5179,-34.6238C322.9096,-43.9105 356.2492,-56.604 381.542,-66.2339"/>
<path fill="none" stroke="#000000" d="M297.8063,-36.4929C322.1979,-45.7797 355.5375,-58.4732 380.8304,-68.103"/>
<text text-anchor="middle" x="360.1753" y="-61.1814" font-family="Courier,monospace" font-size="10.00" fill="#000000">N</text>
</g>
</g>
</svg>
